<svg xmlns="http://www.w3.org/2000/svg" viewBox="0 0 51.17 56.36"><defs><style>.cls-1{fill:none;}.cls-2{fill:#ec2127;}</style></defs><title>asiaOrientalIco</title><g id="Layer_2" data-name="Layer 2"><g id="Layer_1-2" data-name="Layer 1"><path class="cls-1" d="M7,49.32,7.88,51l-.16-.45a14.43,14.43,0,0,1-.38-1.88c-.24-.24-.47-.49-.71-.74Z"/><path class="cls-1" d="M27.64,29.51s-1.82-9.08,5.94-12.25c0,0-2.51,2.2-2.51,7s4.34,8.57,10.17,9.26A14.47,14.47,0,0,0,48,33.08c0-.22.08-.43.1-.65a22.06,22.06,0,0,0,.11-2.31c0-.59,0-1.18-.07-1.77,0-.1,0-.2,0-.3-.06-.56-.13-1.11-.22-1.66l-.06-.31c-.1-.56-.21-1.11-.35-1.65l0-.12q-.21-.79-.48-1.56l-.07-.22c-.19-.52-.4-1-.62-1.53l-.12-.27c-.23-.5-.47-1-.74-1.47a1.09,1.09,0,0,1-.08-.15c-.27-.48-.55-.94-.85-1.39a.75.75,0,0,1-.07-.12c-.31-.46-.64-.9-1-1.34l-.16-.21c-.35-.43-.71-.85-1.08-1.25L42,14.67a23.21,23.21,0,0,0-2.54-2.32l-.16-.13c-.44-.34-.9-.66-1.37-1l-.15-.1a22.15,22.15,0,0,0-3.07-1.66l-.14-.07C34.08,9.19,33.55,9,33,8.79l-.18-.06a22.54,22.54,0,0,0-18.41,1.78l-.19.11a23.05,23.05,0,0,0-2.41,1.62l-.18.14c-.35.28-.7.57-1,.88l-.07.05c-.36.33-.71.67-1,1l-.14.15c-.29.3-.58.62-.86.94l-.15.17c-.31.37-.61.74-.89,1.13l-.07.09c-.26.36-.5.71-.74,1.08l-.16.26c-.32.5-.6,1-.88,1.54,1.43-.81,4.59-2.39,7.33-2.39C21.36,17.29,21.59,27.57,27.64,29.51ZM41.56,19a3,3,0,1,1-3,3A3,3,0,0,1,41.56,19Z"/><path class="cls-2" d="M41.56,25a3,3,0,1,0-3-3A3,3,0,0,0,41.56,25Z"/><path class="cls-2" d="M42.85,39a54.61,54.61,0,0,1-20-4.29h0c-5.28-1.88-11-1.26-14.57,1.57S6,45.68,6,45.75L6.63,48c.24.25.47.5.71.74-.23-1.77-.21-4.36,1.45-5.93,1.16-1.1,5.55-4.39,13.37-.59,7.27,3.54,12.88,5.26,16.72,5.17A16.37,16.37,0,0,0,47,44.85a25.45,25.45,0,0,0,3.35-7.49,14.56,14.56,0,0,1-7,1.6Z"/><path class="cls-2" d="M6.76,34.29a15.68,15.68,0,0,1,8.82-3.14c-3.09-1.9-6.17-4.7-5.52-8.42h0a2.77,2.77,0,1,1,3.12,3.09c1.76,2.61,6.21,4.6,8,5.38l.49.22a52.63,52.63,0,0,0,21.26,5c5.17.14,7.61-2.24,7.64-2.27l.08-.08.35-.3a25.28,25.28,0,0,0,.18-3v-.66A25.56,25.56,0,0,0,37.63,7.55h0C34.36,5.46,34.06,0,34.06,0c-1.2,0-2.34.12-3.44.23a8.24,8.24,0,0,0,0,2.85A6.36,6.36,0,0,1,28.14.55c-14,2.19-19,10-19,10h0A25.55,25.55,0,0,0,0,30.12c0,.11,0,.22,0,.33s0,.22,0,.33a25.52,25.52,0,0,0,3.26,12.5C3.21,40.56,3.73,36.69,6.76,34.29Zm-.3-16.15.16-.26c.24-.37.48-.72.74-1.08l.07-.09c.28-.39.58-.76.89-1.13l.15-.17c.28-.32.57-.64.86-.94l.14-.15c.34-.34.69-.68,1-1l.07-.05c.34-.31.69-.6,1-.88l.18-.14a23.05,23.05,0,0,1,2.41-1.62l.19-.11A22.54,22.54,0,0,1,32.82,8.73l.18.06c.55.19,1.08.4,1.61.63l.14.07a22.15,22.15,0,0,1,3.07,1.66l.15.1c.47.31.93.63,1.37,1l.16.13A23.21,23.21,0,0,1,42,14.67l.12.13c.37.4.73.82,1.08,1.25l.16.21c.34.44.67.88,1,1.34a.75.75,0,0,0,.07.12c.3.45.58.91.85,1.39a1.09,1.09,0,0,0,.08.15c.27.48.51,1,.74,1.47l.12.27c.22.5.43,1,.62,1.53l.07.22q.27.77.48,1.56l0,.12c.14.54.25,1.09.35,1.65l.06.31c.09.55.16,1.1.22,1.66,0,.1,0,.2,0,.3,0,.59.07,1.18.07,1.77a22.06,22.06,0,0,1-.11,2.31c0,.22-.07.43-.1.65a14.47,14.47,0,0,1-6.72.43c-5.83-.69-10.17-4.46-10.17-9.26s2.51-7,2.51-7c-7.76,3.17-5.94,12.25-5.94,12.25-6.05-1.94-6.28-12.22-14.73-12.22-2.74,0-5.9,1.58-7.33,2.39C5.86,19.15,6.14,18.64,6.46,18.14Z"/><path class="cls-2" d="M21.06,44.44c-6.37-3.1-9.69-.67-10.55.15-1.23,1.17-.69,4.25-.4,5.24l.6,1.76A25.58,25.58,0,0,0,43.4,49.14a17.48,17.48,0,0,1-4.45.72C34.73,50,28.7,48.15,21.06,44.44Z"/></g></g></svg>