<svg width="321" height="138" viewBox="0 0 321 138" fill="none" xmlns="http://www.w3.org/2000/svg">
<g clip-path="url(#clip0_3_212)">
<mask id="mask0_3_212" style="mask-type:luminance" maskUnits="userSpaceOnUse" x="0" y="0" width="321" height="138">
<path d="M321 0H0V138H321V0Z" fill="white"/>
</mask>
<g mask="url(#mask0_3_212)">
<mask id="mask1_3_212" style="mask-type:luminance" maskUnits="userSpaceOnUse" x="0" y="0" width="321" height="138">
<path d="M321 0H0V138H321V0Z" fill="white"/>
</mask>
<g mask="url(#mask1_3_212)">
<path d="M1.83353 104.214H7.21638C7.88767 104.214 8.51137 104.294 9.08748 104.454C9.66359 104.614 10.1595 104.852 10.5753 105.165C10.9911 105.478 11.3193 105.878 11.5597 106.366C11.8002 106.854 11.9204 107.428 11.9204 108.083C11.9204 108.972 11.6725 109.698 11.1765 110.258C10.6805 110.819 10.0393 111.232 9.25029 111.492V111.537C9.71619 111.567 10.1545 111.687 10.5628 111.898C10.9711 112.11 11.3243 112.386 11.6249 112.729C11.9229 113.072 12.1609 113.47 12.3362 113.92C12.5116 114.373 12.5992 114.861 12.5992 115.384C12.5992 116.085 12.4565 116.701 12.1734 117.231C11.8904 117.764 11.4996 118.212 11.0037 118.575C10.5077 118.941 9.9316 119.216 9.27534 119.406C8.61908 119.596 7.91272 119.689 7.15376 119.689H1.83353V104.211V104.214ZM3.93256 110.641H6.79808C7.19133 110.641 7.56455 110.601 7.91272 110.521C8.2634 110.441 8.56898 110.306 8.83199 110.118C9.095 109.928 9.3029 109.688 9.45569 109.397C9.60848 109.107 9.68613 108.749 9.68613 108.326C9.68613 107.715 9.48825 107.182 9.095 106.729C8.70174 106.279 8.08054 106.051 7.23642 106.051H3.93256V110.641ZM3.93256 117.857H7.0185C7.33912 117.857 7.6923 117.824 8.08054 117.759C8.46629 117.694 8.82698 117.562 9.16263 117.366C9.49827 117.169 9.78132 116.903 10.0168 116.568C10.2497 116.233 10.3674 115.79 10.3674 115.234C10.3674 114.315 10.0694 113.627 9.47072 113.169C8.87207 112.711 8.06301 112.481 7.04104 112.481H3.93507V117.86L3.93256 117.857Z" fill="black"/>
<path d="M24.432 119.692H22.4632V118.095H22.4181C22.1701 118.648 21.7393 119.096 21.1281 119.439C20.5145 119.782 19.8081 119.952 19.0066 119.952C18.4956 119.952 18.0147 119.874 17.5613 119.722C17.1104 119.569 16.7121 119.331 16.369 119.011C16.0258 118.69 15.7528 118.277 15.5499 117.777C15.3445 117.274 15.2443 116.681 15.2443 115.995V109.327H17.2131V115.449C17.2131 115.93 17.2782 116.343 17.4085 116.683C17.5387 117.026 17.7141 117.304 17.9345 117.514C18.1524 117.724 18.4054 117.88 18.6885 117.972C18.974 118.067 19.2696 118.115 19.5752 118.115C19.9834 118.115 20.3617 118.05 20.7123 117.917C21.063 117.787 21.3686 117.579 21.6316 117.294C21.8946 117.009 22.0975 116.648 22.2453 116.213C22.3906 115.775 22.4632 115.259 22.4632 114.661V109.327H24.432V119.689V119.692Z" fill="black"/>
<path d="M29.0058 115.232C29.0058 115.685 29.1035 116.095 29.3014 116.465C29.4992 116.836 29.7572 117.154 30.0779 117.417C30.3985 117.679 30.7692 117.882 31.195 118.03C31.6183 118.175 32.0542 118.247 32.5075 118.247C33.1212 118.247 33.6522 118.105 34.1056 117.822C34.5565 117.537 34.9723 117.164 35.353 116.696L36.8409 117.832C35.7463 119.246 34.2158 119.952 32.247 119.952C31.4305 119.952 30.689 119.814 30.0253 119.536C29.3615 119.259 28.8004 118.878 28.342 118.388C27.8836 117.9 27.528 117.324 27.28 116.661C27.032 115.997 26.9068 115.279 26.9068 114.508C26.9068 113.737 27.042 113.019 27.3125 112.356C27.5831 111.692 27.9538 111.117 28.4272 110.629C28.9006 110.141 29.4667 109.758 30.1229 109.482C30.7792 109.205 31.4931 109.067 32.2671 109.067C33.1863 109.067 33.9628 109.227 34.5966 109.548C35.2303 109.868 35.7513 110.288 36.1596 110.804C36.5678 111.322 36.8634 111.905 37.0463 112.553C37.2291 113.202 37.3193 113.862 37.3193 114.533V115.232H29.0058ZM35.2177 113.66C35.2027 113.222 35.1326 112.821 35.0098 112.458C34.8871 112.095 34.6992 111.778 34.4513 111.507C34.2033 111.237 33.8927 111.027 33.522 110.874C33.1513 110.721 32.7154 110.644 32.2195 110.644C31.7235 110.644 31.2977 110.734 30.8969 110.917C30.4962 111.099 30.1555 111.335 29.88 111.627C29.6019 111.92 29.3865 112.243 29.2337 112.601C29.0809 112.959 29.0033 113.312 29.0033 113.662H35.2177V113.66Z" fill="black"/>
<path d="M39.7915 109.33H41.7603V110.927H41.8054C42.0534 110.373 42.4842 109.925 43.0954 109.583C43.7091 109.24 44.4154 109.069 45.217 109.069C45.7129 109.069 46.1914 109.147 46.6497 109.3C47.1081 109.452 47.5089 109.69 47.852 110.011C48.1952 110.331 48.4682 110.744 48.6711 111.244C48.874 111.748 48.9767 112.341 48.9767 113.026V119.694H47.0079V113.572C47.0079 113.092 46.9428 112.679 46.81 112.338C46.6798 111.995 46.5045 111.72 46.284 111.507C46.0661 111.297 45.8131 111.142 45.5301 111.049C45.2445 110.954 44.949 110.907 44.6434 110.907C44.2351 110.907 43.8544 110.972 43.5062 111.104C43.1555 111.234 42.8499 111.442 42.5869 111.728C42.3239 112.01 42.1185 112.373 41.9732 112.809C41.828 113.247 41.7553 113.762 41.7553 114.361V119.694H39.7865V109.332L39.7915 109.33Z" fill="black"/>
<path d="M51.5842 114.511C51.5842 113.752 51.727 113.047 52.0101 112.391C52.2956 111.735 52.6838 111.159 53.1798 110.664C53.6758 110.168 54.2594 109.778 54.9307 109.495C55.602 109.21 56.3233 109.069 57.0973 109.069C57.8713 109.069 58.5927 109.212 59.264 109.495C59.9353 109.778 60.5189 110.168 61.0149 110.664C61.5108 111.159 61.9016 111.735 62.1846 112.391C62.4702 113.047 62.6104 113.752 62.6104 114.511C62.6104 115.269 62.4677 115.98 62.1846 116.643C61.8991 117.306 61.5108 117.882 61.0149 118.37C60.5189 118.858 59.9353 119.244 59.264 119.529C58.5927 119.814 57.8713 119.954 57.0973 119.954C56.3233 119.954 55.602 119.812 54.9307 119.529C54.2594 119.246 53.6758 118.858 53.1798 118.37C52.6838 117.882 52.2931 117.306 52.0101 116.643C51.7245 115.98 51.5842 115.269 51.5842 114.511ZM53.6833 114.511C53.6833 115.036 53.7634 115.519 53.9237 115.965C54.084 116.41 54.3095 116.788 54.6025 117.101C54.8931 117.414 55.2513 117.662 55.6746 117.844C56.0979 118.027 56.5713 118.117 57.0973 118.117C57.6233 118.117 58.0968 118.027 58.5201 117.844C58.9434 117.662 59.2991 117.414 59.5921 117.101C59.8827 116.788 60.1106 116.41 60.2709 115.965C60.4312 115.519 60.5114 115.036 60.5114 114.511C60.5114 113.985 60.4312 113.502 60.2709 113.057C60.1106 112.611 59.8852 112.233 59.5921 111.92C59.3016 111.607 58.9434 111.36 58.5201 111.177C58.0968 110.994 57.6233 110.904 57.0973 110.904C56.5713 110.904 56.0979 110.997 55.6746 111.177C55.2513 111.36 54.8931 111.607 54.6025 111.92C54.3095 112.233 54.084 112.614 53.9237 113.057C53.7634 113.502 53.6833 113.985 53.6833 114.511Z" fill="black"/>
<path d="M70.706 111.933C70.4731 111.642 70.185 111.397 69.8418 111.199C69.4987 111.002 69.0804 110.904 68.5844 110.904C68.116 110.904 67.7128 111.002 67.3696 111.199C67.0264 111.397 66.8561 111.685 66.8561 112.063C66.8561 112.368 66.9538 112.616 67.1517 112.806C67.3496 112.996 67.5825 113.149 67.8505 113.264C68.121 113.382 68.4091 113.47 68.7147 113.527C69.0203 113.585 69.2833 113.637 69.5012 113.68C69.9245 113.782 70.3228 113.905 70.6935 114.053C71.0667 114.198 71.3873 114.388 71.6553 114.621C71.9259 114.854 72.1363 115.139 72.2891 115.474C72.4419 115.81 72.5195 116.218 72.5195 116.698C72.5195 117.281 72.3968 117.779 72.1488 118.195C71.9008 118.61 71.5802 118.948 71.1869 119.211C70.7937 119.474 70.3453 119.664 69.8418 119.779C69.3384 119.897 68.8324 119.954 68.3214 119.954C67.4598 119.954 66.7058 119.824 66.0571 119.561C65.4083 119.299 64.8272 118.818 64.3187 118.12L65.8066 116.896C66.1272 117.216 66.4854 117.502 66.8787 117.749C67.2719 117.997 67.7528 118.122 68.3214 118.122C68.5694 118.122 68.8199 118.097 69.0754 118.045C69.3309 117.995 69.5563 117.912 69.7542 117.804C69.9521 117.694 70.1124 117.557 70.2351 117.389C70.3578 117.221 70.4205 117.029 70.4205 116.811C70.4205 116.52 70.3303 116.28 70.1474 116.09C69.9646 115.9 69.7467 115.752 69.4912 115.642C69.2357 115.532 68.9652 115.444 68.6821 115.379C68.3966 115.314 68.1461 115.259 67.9282 115.217C67.5049 115.114 67.1041 114.999 66.7259 114.866C66.3476 114.736 66.012 114.561 65.7189 114.341C65.4284 114.123 65.1929 113.845 65.0201 113.51C64.8447 113.174 64.7571 112.759 64.7571 112.263C64.7571 111.725 64.8698 111.254 65.0952 110.854C65.3207 110.454 65.6212 110.121 65.9919 109.86C66.3627 109.598 66.786 109.4 67.2619 109.27C67.7353 109.14 68.2137 109.072 68.6946 109.072C69.396 109.072 70.0648 109.202 70.7085 109.465C71.3498 109.728 71.8607 110.166 72.239 110.776L70.7085 111.935L70.706 111.933Z" fill="black"/>
<path d="M86.6091 104.214H88.5128L95.143 119.692H92.6933L91.1403 115.865H83.7661L82.2357 119.692H79.786L86.6116 104.214H86.6091ZM90.3738 114.03L87.4858 106.925H87.4407L84.5101 114.03H90.3738Z" fill="black"/>
<path d="M96.4555 105.613C96.4555 105.22 96.5983 104.88 96.8814 104.597C97.1669 104.312 97.5051 104.171 97.8983 104.171C98.2916 104.171 98.6322 104.314 98.9153 104.597C99.2008 104.882 99.3411 105.22 99.3411 105.613C99.3411 106.006 99.1983 106.346 98.9153 106.629C98.6322 106.915 98.2916 107.055 97.8983 107.055C97.5051 107.055 97.1644 106.912 96.8814 106.629C96.5958 106.344 96.4555 106.006 96.4555 105.613ZM96.9139 109.33H98.8827V119.692H96.9139V109.33Z" fill="black"/>
<path d="M102.144 109.33H104.113V110.927H104.155C104.286 110.649 104.461 110.398 104.681 110.173C104.899 109.948 105.145 109.755 105.415 109.595C105.686 109.435 105.979 109.307 106.302 109.212C106.623 109.117 106.943 109.069 107.264 109.069C107.584 109.069 107.878 109.112 108.138 109.2L108.05 111.32C107.89 111.277 107.73 111.239 107.569 111.209C107.409 111.179 107.249 111.164 107.088 111.164C106.127 111.164 105.39 111.435 104.879 111.973C104.368 112.511 104.113 113.349 104.113 114.486V119.689H102.144V109.327V109.33Z" fill="black"/>
<path d="M111.462 115.232C111.462 115.685 111.56 116.095 111.757 116.465C111.955 116.836 112.213 117.154 112.534 117.417C112.855 117.679 113.228 117.882 113.651 118.03C114.074 118.175 114.51 118.247 114.964 118.247C115.577 118.247 116.108 118.105 116.562 117.822C117.013 117.537 117.428 117.164 117.809 116.696L119.297 117.832C118.202 119.246 116.672 119.952 114.703 119.952C113.887 119.952 113.145 119.814 112.484 119.536C111.82 119.259 111.259 118.878 110.798 118.388C110.34 117.9 109.984 117.324 109.736 116.661C109.488 115.997 109.365 115.279 109.365 114.508C109.365 113.737 109.501 113.019 109.769 112.356C110.039 111.692 110.41 111.117 110.886 110.629C111.359 110.141 111.925 109.758 112.582 109.482C113.238 109.205 113.952 109.067 114.726 109.067C115.645 109.067 116.421 109.227 117.055 109.548C117.689 109.868 118.21 110.288 118.621 110.804C119.029 111.322 119.325 111.905 119.507 112.553C119.69 113.202 119.78 113.862 119.78 114.533V115.232H111.467H111.462ZM117.676 113.66C117.661 113.222 117.591 112.821 117.468 112.458C117.343 112.095 117.158 111.778 116.91 111.507C116.662 111.237 116.351 111.027 115.981 110.874C115.61 110.721 115.174 110.644 114.678 110.644C114.182 110.644 113.756 110.734 113.353 110.917C112.952 111.099 112.612 111.335 112.336 111.627C112.058 111.92 111.845 112.243 111.69 112.601C111.537 112.959 111.459 113.312 111.459 113.662H117.674L117.676 113.66Z" fill="black"/>
<path d="M127.763 111.933C127.53 111.642 127.242 111.397 126.899 111.199C126.556 111.002 126.138 110.904 125.642 110.904C125.176 110.904 124.77 111.002 124.427 111.199C124.084 111.397 123.913 111.685 123.913 112.063C123.913 112.368 124.011 112.616 124.209 112.806C124.407 112.996 124.64 113.149 124.908 113.264C125.178 113.382 125.466 113.47 125.772 113.527C126.078 113.585 126.341 113.637 126.558 113.68C126.982 113.782 127.38 113.905 127.751 114.053C128.124 114.198 128.442 114.388 128.713 114.621C128.983 114.854 129.194 115.139 129.346 115.474C129.499 115.81 129.577 116.218 129.577 116.698C129.577 117.281 129.454 117.779 129.206 118.195C128.958 118.61 128.637 118.948 128.244 119.211C127.851 119.474 127.403 119.664 126.899 119.779C126.396 119.897 125.89 119.954 125.379 119.954C124.517 119.954 123.763 119.824 123.114 119.561C122.466 119.299 121.884 118.818 121.376 118.12L122.864 116.896C123.184 117.216 123.543 117.502 123.936 117.749C124.329 117.997 124.81 118.122 125.379 118.122C125.627 118.122 125.877 118.097 126.133 118.045C126.388 117.995 126.614 117.912 126.811 117.804C127.009 117.694 127.17 117.557 127.292 117.389C127.415 117.221 127.478 117.029 127.478 116.811C127.478 116.52 127.388 116.28 127.205 116.09C127.022 115.9 126.804 115.752 126.548 115.642C126.293 115.532 126.022 115.444 125.739 115.379C125.454 115.314 125.203 115.259 124.985 115.217C124.562 115.114 124.161 114.999 123.783 114.866C123.402 114.736 123.069 114.561 122.776 114.341C122.486 114.123 122.25 113.845 122.077 113.51C121.902 113.174 121.814 112.759 121.814 112.263C121.814 111.725 121.927 111.254 122.152 110.854C122.378 110.454 122.678 110.121 123.049 109.86C123.42 109.598 123.843 109.4 124.319 109.27C124.793 109.14 125.271 109.072 125.752 109.072C126.453 109.072 127.122 109.202 127.766 109.465C128.407 109.728 128.918 110.166 129.296 110.776L127.766 111.935L127.763 111.933Z" fill="black"/>
<path d="M138.81 104.214H144.192C144.864 104.214 145.487 104.294 146.063 104.454C146.64 104.614 147.136 104.852 147.551 105.165C147.967 105.478 148.295 105.878 148.536 106.366C148.776 106.854 148.896 107.428 148.896 108.083C148.896 108.972 148.648 109.698 148.152 110.258C147.657 110.819 147.015 111.232 146.226 111.492V111.537C146.692 111.567 147.131 111.687 147.539 111.898C147.947 112.11 148.3 112.386 148.598 112.729C148.896 113.072 149.134 113.47 149.31 113.92C149.485 114.373 149.573 114.861 149.573 115.384C149.573 116.085 149.43 116.701 149.147 117.231C148.861 117.764 148.473 118.212 147.977 118.575C147.481 118.941 146.905 119.216 146.249 119.406C145.593 119.596 144.884 119.689 144.127 119.689H138.81V104.211V104.214ZM140.911 110.641H143.777C144.17 110.641 144.543 110.601 144.891 110.521C145.242 110.441 145.547 110.306 145.81 110.118C146.074 109.928 146.281 109.688 146.434 109.397C146.587 109.107 146.665 108.749 146.665 108.326C146.665 107.715 146.467 107.182 146.073 106.729C145.68 106.279 145.059 106.051 144.215 106.051H140.911V110.641ZM140.911 117.857H143.997C144.318 117.857 144.671 117.824 145.059 117.759C145.445 117.694 145.805 117.562 146.141 117.366C146.477 117.169 146.76 116.903 146.995 116.568C147.228 116.233 147.346 115.79 147.346 115.234C147.346 114.315 147.045 113.627 146.449 113.169C145.851 112.711 145.042 112.481 144.02 112.481H140.914V117.86L140.911 117.857Z" fill="black"/>
<path d="M161.411 119.692H159.442V118.095H159.399C159.151 118.648 158.72 119.096 158.109 119.439C157.495 119.782 156.789 119.952 155.988 119.952C155.477 119.952 154.996 119.874 154.542 119.722C154.091 119.569 153.693 119.331 153.35 119.011C153.007 118.69 152.734 118.277 152.531 117.777C152.326 117.274 152.225 116.681 152.225 115.995V109.327H154.194V115.449C154.194 115.93 154.259 116.343 154.389 116.683C154.52 117.026 154.695 117.304 154.915 117.514C155.133 117.724 155.386 117.88 155.669 117.972C155.952 118.067 156.251 118.115 156.556 118.115C156.964 118.115 157.345 118.05 157.693 117.917C158.044 117.787 158.35 117.579 158.613 117.294C158.876 117.009 159.079 116.648 159.226 116.213C159.372 115.775 159.444 115.259 159.444 114.661V109.327H161.413V119.689L161.411 119.692Z" fill="black"/>
<path d="M170.03 111.933C169.797 111.642 169.509 111.397 169.165 111.199C168.822 111.002 168.404 110.904 167.908 110.904C167.442 110.904 167.036 111.002 166.693 111.199C166.35 111.397 166.18 111.685 166.18 112.063C166.18 112.368 166.277 112.616 166.475 112.806C166.673 112.996 166.906 113.149 167.174 113.264C167.445 113.382 167.733 113.47 168.038 113.527C168.344 113.585 168.607 113.637 168.825 113.68C169.248 113.782 169.646 113.905 170.017 114.053C170.388 114.198 170.711 114.388 170.979 114.621C171.249 114.854 171.46 115.139 171.613 115.474C171.765 115.81 171.843 116.218 171.843 116.698C171.843 117.281 171.72 117.779 171.472 118.195C171.224 118.61 170.904 118.948 170.51 119.211C170.117 119.474 169.669 119.664 169.165 119.779C168.662 119.897 168.156 119.954 167.645 119.954C166.783 119.954 166.029 119.824 165.381 119.561C164.732 119.299 164.151 118.818 163.642 118.12L165.13 116.896C165.451 117.216 165.809 117.502 166.202 117.749C166.595 117.997 167.076 118.122 167.645 118.122C167.893 118.122 168.143 118.097 168.399 118.045C168.654 117.995 168.88 117.912 169.078 117.804C169.276 117.694 169.436 117.557 169.559 117.389C169.681 117.221 169.744 117.029 169.744 116.811C169.744 116.52 169.654 116.28 169.471 116.09C169.288 115.9 169.07 115.752 168.815 115.642C168.559 115.532 168.289 115.444 168.006 115.379C167.72 115.314 167.47 115.259 167.252 115.217C166.828 115.114 166.428 114.999 166.049 114.866C165.669 114.736 165.336 114.561 165.042 114.341C164.749 114.123 164.516 113.845 164.341 113.51C164.166 113.174 164.078 112.759 164.078 112.263C164.078 111.725 164.191 111.254 164.416 110.854C164.642 110.454 164.942 110.121 165.313 109.86C165.684 109.598 166.107 109.4 166.583 109.27C167.056 109.14 167.535 109.072 168.016 109.072C168.715 109.072 169.386 109.202 170.03 109.465C170.671 109.728 171.182 110.166 171.56 110.776L170.03 111.935V111.933Z" fill="black"/>
<path d="M174.055 105.613C174.055 105.22 174.198 104.88 174.481 104.597C174.766 104.312 175.104 104.171 175.498 104.171C175.891 104.171 176.229 104.314 176.515 104.597C176.8 104.882 176.94 105.22 176.94 105.613C176.94 106.006 176.798 106.346 176.515 106.629C176.229 106.915 175.891 107.055 175.498 107.055C175.104 107.055 174.764 106.912 174.481 106.629C174.198 106.346 174.055 106.006 174.055 105.613ZM174.516 109.33H176.485V119.692H174.516V109.33Z" fill="black"/>
<path d="M179.743 109.33H181.712V110.927H181.755C182.003 110.373 182.433 109.925 183.045 109.583C183.658 109.24 184.365 109.069 185.166 109.069C185.662 109.069 186.141 109.147 186.599 109.3C187.057 109.452 187.458 109.69 187.801 110.011C188.144 110.331 188.417 110.744 188.62 111.244C188.823 111.748 188.926 112.341 188.926 113.026V119.694H186.957V113.572C186.957 113.092 186.892 112.679 186.759 112.338C186.629 111.995 186.454 111.72 186.233 111.507C186.015 111.297 185.762 111.142 185.479 111.049C185.194 110.954 184.898 110.907 184.593 110.907C184.184 110.907 183.804 110.972 183.455 111.104C183.105 111.234 182.799 111.442 182.536 111.728C182.273 112.01 182.07 112.373 181.922 112.809C181.777 113.247 181.705 113.762 181.705 114.361V119.694H179.736V109.332L179.743 109.33Z" fill="black"/>
<path d="M193.505 115.232C193.505 115.685 193.602 116.095 193.8 116.465C193.998 116.836 194.256 117.154 194.577 117.417C194.897 117.679 195.271 117.882 195.694 118.03C196.117 118.175 196.553 118.247 197.006 118.247C197.62 118.247 198.151 118.105 198.605 117.822C199.055 117.537 199.471 117.164 199.852 116.696L201.34 117.832C200.245 119.246 198.715 119.952 196.746 119.952C195.929 119.952 195.188 119.814 194.527 119.536C193.863 119.259 193.302 118.878 192.841 118.388C192.383 117.9 192.027 117.324 191.779 116.661C191.531 115.997 191.408 115.279 191.408 114.508C191.408 113.737 191.543 113.019 191.811 112.356C192.082 111.692 192.453 111.117 192.929 110.629C193.402 110.141 193.968 109.758 194.624 109.482C195.281 109.205 195.995 109.067 196.769 109.067C197.688 109.067 198.464 109.227 199.098 109.548C199.732 109.868 200.253 110.288 200.661 110.804C201.069 111.322 201.365 111.905 201.548 112.553C201.731 113.202 201.821 113.862 201.821 114.533V115.232H193.507H193.505ZM199.717 113.66C199.702 113.222 199.632 112.821 199.509 112.458C199.386 112.095 199.198 111.778 198.95 111.507C198.702 111.237 198.392 111.027 198.021 110.874C197.65 110.721 197.214 110.644 196.718 110.644C196.222 110.644 195.797 110.734 195.396 110.917C194.995 111.099 194.654 111.335 194.379 111.627C194.101 111.92 193.888 112.243 193.733 112.601C193.58 112.959 193.502 113.312 193.502 113.662H199.717V113.66Z" fill="black"/>
<path d="M209.804 111.933C209.571 111.642 209.283 111.397 208.939 111.199C208.596 111.002 208.178 110.904 207.682 110.904C207.216 110.904 206.81 111.002 206.467 111.199C206.124 111.397 205.954 111.685 205.954 112.063C205.954 112.368 206.051 112.616 206.249 112.806C206.447 112.996 206.68 113.149 206.948 113.264C207.219 113.382 207.507 113.47 207.812 113.527C208.118 113.585 208.381 113.637 208.599 113.68C209.022 113.782 209.42 113.905 209.791 114.053C210.162 114.198 210.485 114.388 210.753 114.621C211.023 114.854 211.234 115.139 211.387 115.474C211.539 115.81 211.617 116.218 211.617 116.698C211.617 117.281 211.494 117.779 211.246 118.195C210.998 118.61 210.678 118.948 210.285 119.211C209.891 119.474 209.443 119.664 208.939 119.779C208.436 119.897 207.93 119.954 207.419 119.954C206.557 119.954 205.803 119.824 205.155 119.561C204.506 119.299 203.925 118.818 203.416 118.12L204.904 116.896C205.225 117.216 205.583 117.502 205.976 117.749C206.369 117.997 206.85 118.122 207.419 118.122C207.667 118.122 207.917 118.097 208.173 118.045C208.428 117.995 208.654 117.912 208.852 117.804C209.05 117.694 209.21 117.557 209.333 117.389C209.455 117.221 209.518 117.029 209.518 116.811C209.518 116.52 209.428 116.28 209.245 116.09C209.062 115.9 208.844 115.752 208.589 115.642C208.333 115.532 208.063 115.444 207.78 115.379C207.494 115.314 207.244 115.259 207.026 115.217C206.602 115.114 206.202 114.999 205.823 114.866C205.443 114.736 205.11 114.561 204.816 114.341C204.523 114.123 204.29 113.845 204.115 113.51C203.94 113.174 203.852 112.759 203.852 112.263C203.852 111.725 203.965 111.254 204.19 110.854C204.416 110.454 204.716 110.121 205.087 109.86C205.458 109.598 205.881 109.4 206.357 109.27C206.83 109.14 207.309 109.072 207.79 109.072C208.489 109.072 209.16 109.202 209.804 109.465C210.445 109.728 210.956 110.166 211.334 110.776L209.804 111.935V111.933Z" fill="black"/>
<path d="M219.648 111.933C219.415 111.642 219.127 111.397 218.783 111.199C218.44 111.002 218.022 110.904 217.526 110.904C217.06 110.904 216.654 111.002 216.311 111.199C215.968 111.397 215.798 111.685 215.798 112.063C215.798 112.368 215.895 112.616 216.093 112.806C216.291 112.996 216.524 113.149 216.792 113.264C217.063 113.382 217.351 113.47 217.656 113.527C217.962 113.585 218.225 113.637 218.443 113.68C218.866 113.782 219.264 113.905 219.635 114.053C220.006 114.198 220.329 114.388 220.597 114.621C220.867 114.854 221.078 115.139 221.231 115.474C221.383 115.81 221.461 116.218 221.461 116.698C221.461 117.281 221.338 117.779 221.09 118.195C220.842 118.61 220.522 118.948 220.128 119.211C219.735 119.474 219.287 119.664 218.783 119.779C218.28 119.897 217.774 119.954 217.263 119.954C216.401 119.954 215.647 119.824 214.999 119.561C214.35 119.299 213.769 118.818 213.26 118.12L214.748 116.896C215.069 117.216 215.427 117.502 215.82 117.749C216.213 117.997 216.694 118.122 217.263 118.122C217.511 118.122 217.761 118.097 218.017 118.045C218.272 117.995 218.498 117.912 218.696 117.804C218.894 117.694 219.054 117.557 219.177 117.389C219.299 117.221 219.362 117.029 219.362 116.811C219.362 116.52 219.272 116.28 219.089 116.09C218.906 115.9 218.688 115.752 218.433 115.642C218.177 115.532 217.907 115.444 217.624 115.379C217.338 115.314 217.088 115.259 216.87 115.217C216.446 115.114 216.046 114.999 215.667 114.866C215.287 114.736 214.953 114.561 214.66 114.341C214.367 114.123 214.134 113.845 213.959 113.51C213.784 113.174 213.696 112.759 213.696 112.263C213.696 111.725 213.809 111.254 214.034 110.854C214.26 110.454 214.56 110.121 214.931 109.86C215.302 109.598 215.725 109.4 216.201 109.27C216.674 109.14 217.153 109.072 217.634 109.072C218.332 109.072 219.004 109.202 219.648 109.465C220.289 109.728 220.8 110.166 221.178 110.776L219.648 111.935V111.933Z" fill="black"/>
<path d="M230.543 104.214H233.672L238.594 115.932H238.682L243.561 104.214H246.69V119.692H244.588V106.97H244.545L239.315 119.692H237.915L232.688 106.97H232.643V119.692H230.543V104.214Z" fill="black"/>
<path d="M250.189 110.599C250.742 110.088 251.384 109.705 252.115 109.45C252.844 109.195 253.573 109.067 254.302 109.067C255.031 109.067 255.712 109.162 256.26 109.352C256.807 109.543 257.255 109.798 257.606 110.118C257.956 110.439 258.214 110.806 258.382 111.222C258.55 111.637 258.635 112.07 258.635 112.523V117.814C258.635 118.18 258.643 118.515 258.658 118.821C258.673 119.126 258.695 119.419 258.723 119.694H256.972C256.927 119.169 256.907 118.645 256.907 118.12H256.864C256.426 118.791 255.91 119.264 255.311 119.541C254.712 119.817 254.021 119.957 253.232 119.957C252.751 119.957 252.29 119.892 251.854 119.759C251.416 119.629 251.033 119.431 250.705 119.169C250.377 118.906 250.116 118.583 249.928 118.195C249.738 117.809 249.643 117.361 249.643 116.851C249.643 116.18 249.793 115.619 250.091 115.166C250.389 114.716 250.797 114.346 251.316 114.063C251.834 113.78 252.438 113.575 253.132 113.452C253.826 113.329 254.565 113.267 255.354 113.267H256.796V112.829C256.796 112.566 256.746 112.303 256.644 112.043C256.541 111.78 256.388 111.545 256.183 111.332C255.98 111.122 255.724 110.954 255.416 110.829C255.111 110.704 254.745 110.644 254.322 110.644C253.944 110.644 253.61 110.681 253.327 110.754C253.042 110.826 252.784 110.917 252.551 111.027C252.318 111.137 252.105 111.264 251.917 111.41C251.727 111.555 251.544 111.695 251.371 111.825L250.189 110.601V110.599ZM255.747 114.708C255.281 114.708 254.803 114.733 254.314 114.786C253.826 114.839 253.38 114.936 252.979 115.081C252.578 115.227 252.25 115.432 251.995 115.692C251.739 115.955 251.612 116.29 251.612 116.698C251.612 117.296 251.812 117.727 252.213 117.987C252.613 118.25 253.157 118.38 253.843 118.38C254.382 118.38 254.843 118.29 255.221 118.107C255.599 117.925 255.907 117.689 256.14 117.396C256.373 117.106 256.541 116.781 256.644 116.423C256.746 116.065 256.796 115.712 256.796 115.362V114.706H255.747V114.708Z" fill="black"/>
<path d="M267.166 111.034H264.343V115.735C264.343 116.027 264.351 116.313 264.366 116.598C264.381 116.881 264.436 117.136 264.531 117.364C264.627 117.589 264.772 117.772 264.97 117.91C265.168 118.047 265.453 118.117 265.834 118.117C266.067 118.117 266.307 118.095 266.555 118.052C266.803 118.007 267.029 117.93 267.234 117.812V119.604C267.001 119.737 266.698 119.827 266.327 119.877C265.957 119.927 265.666 119.954 265.463 119.954C264.704 119.954 264.118 119.849 263.702 119.637C263.286 119.426 262.981 119.153 262.783 118.816C262.585 118.48 262.47 118.105 262.432 117.689C262.395 117.274 262.377 116.856 262.377 116.433V111.034H260.103V109.33H262.377V106.421H264.346V109.33H267.169V111.034H267.166Z" fill="black"/>
<path d="M277.231 112.085C276.865 111.707 276.484 111.42 276.081 111.222C275.68 111.024 275.202 110.927 274.648 110.927C274.095 110.927 273.639 111.024 273.238 111.222C272.837 111.42 272.502 111.687 272.231 112.03C271.961 112.373 271.758 112.766 271.62 113.212C271.48 113.657 271.412 114.118 271.412 114.601C271.412 115.084 271.492 115.537 271.653 115.967C271.813 116.398 272.038 116.773 272.331 117.094C272.622 117.414 272.973 117.667 273.381 117.847C273.789 118.03 274.248 118.12 274.759 118.12C275.312 118.12 275.786 118.022 276.181 117.824C276.575 117.627 276.94 117.339 277.276 116.961L278.676 118.36C278.165 118.928 277.571 119.336 276.893 119.584C276.214 119.832 275.495 119.957 274.738 119.957C273.937 119.957 273.203 119.824 272.539 119.564C271.876 119.301 271.302 118.933 270.821 118.46C270.34 117.987 269.967 117.419 269.706 116.756C269.443 116.092 269.313 115.359 269.313 114.558C269.313 113.757 269.443 113.022 269.706 112.351C269.969 111.68 270.338 111.104 270.811 110.624C271.284 110.143 271.853 109.768 272.517 109.497C273.18 109.227 273.919 109.092 274.736 109.092C275.495 109.092 276.219 109.227 276.913 109.497C277.607 109.768 278.208 110.178 278.719 110.731L277.231 112.088V112.085Z" fill="black"/>
<path d="M280.49 103.165H282.458V110.927H282.501C282.749 110.373 283.18 109.925 283.791 109.583C284.405 109.24 285.111 109.069 285.912 109.069C286.408 109.069 286.887 109.147 287.345 109.3C287.806 109.452 288.207 109.69 288.55 110.011C288.893 110.331 289.166 110.744 289.372 111.244C289.575 111.748 289.677 112.341 289.677 113.026V119.694H287.708V113.572C287.708 113.092 287.643 112.679 287.511 112.338C287.38 111.995 287.205 111.72 286.985 111.507C286.767 111.297 286.514 111.142 286.231 111.049C285.945 110.954 285.652 110.907 285.344 110.907C284.936 110.907 284.555 110.972 284.207 111.104C283.856 111.234 283.55 111.442 283.287 111.728C283.024 112.013 282.819 112.373 282.674 112.809C282.528 113.247 282.456 113.762 282.456 114.361V119.694H280.487V103.168L280.49 103.165Z" fill="black"/>
<path d="M292.458 105.613C292.458 105.22 292.6 104.88 292.883 104.597C293.169 104.312 293.507 104.171 293.9 104.171C294.294 104.171 294.634 104.314 294.917 104.597C295.203 104.882 295.343 105.22 295.343 105.613C295.343 106.006 295.2 106.346 294.917 106.629C294.634 106.912 294.294 107.055 293.9 107.055C293.507 107.055 293.166 106.912 292.883 106.629C292.6 106.346 292.458 106.006 292.458 105.613ZM292.916 109.33H294.885V119.692H292.916V109.33Z" fill="black"/>
<path d="M298.146 109.33H300.115V110.927H300.157C300.405 110.373 300.836 109.925 301.447 109.583C302.061 109.24 302.767 109.069 303.569 109.069C304.065 109.069 304.543 109.147 305.002 109.3C305.463 109.452 305.863 109.69 306.207 110.011C306.55 110.331 306.823 110.744 307.028 111.244C307.231 111.748 307.334 112.341 307.334 113.026V119.694H305.365V113.572C305.365 113.092 305.3 112.679 305.167 112.338C305.037 111.995 304.861 111.72 304.641 111.507C304.423 111.297 304.17 111.142 303.887 111.049C303.602 110.954 303.308 110.907 303 110.907C302.592 110.907 302.211 110.972 301.863 111.104C301.512 111.234 301.207 111.442 300.944 111.728C300.681 112.01 300.476 112.373 300.33 112.809C300.185 113.247 300.112 113.762 300.112 114.361V119.694H298.144V109.332L298.146 109.33Z" fill="black"/>
<path d="M320.812 119.604C320.812 120.392 320.677 121.108 320.406 121.756C320.136 122.405 319.753 122.965 319.259 123.438C318.763 123.911 318.165 124.279 317.466 124.542C316.764 124.805 315.993 124.935 315.146 124.935C314.154 124.935 313.248 124.797 312.423 124.52C311.599 124.242 310.815 123.761 310.071 123.078L311.407 121.416C311.918 121.969 312.471 122.39 313.07 122.673C313.668 122.955 314.345 123.098 315.104 123.098C315.863 123.098 316.439 122.993 316.92 122.78C317.401 122.567 317.784 122.295 318.069 121.959C318.355 121.624 318.555 121.241 318.67 120.813C318.786 120.382 318.846 119.949 318.846 119.511V117.982H318.781C318.402 118.608 317.886 119.071 317.238 119.371C316.589 119.669 315.908 119.819 315.191 119.819C314.432 119.819 313.728 119.684 313.08 119.414C312.431 119.143 311.872 118.773 311.407 118.3C310.941 117.827 310.575 117.266 310.312 116.618C310.049 115.97 309.919 115.267 309.919 114.508C309.919 113.75 310.041 113.039 310.289 112.376C310.537 111.712 310.891 111.134 311.351 110.639C311.81 110.143 312.366 109.758 313.015 109.48C313.663 109.202 314.39 109.064 315.191 109.064C315.893 109.064 316.574 109.217 317.238 109.522C317.902 109.828 318.423 110.258 318.801 110.811H318.846V109.325H320.815V119.599L320.812 119.604ZM315.429 110.904C314.903 110.904 314.43 110.994 314.007 111.177C313.583 111.36 313.228 111.607 312.934 111.92C312.641 112.233 312.416 112.614 312.256 113.057C312.095 113.502 312.015 113.985 312.015 114.511C312.015 115.559 312.321 116.403 312.934 117.036C313.548 117.669 314.38 117.987 315.429 117.987C316.479 117.987 317.31 117.669 317.924 117.036C318.535 116.403 318.843 115.559 318.843 114.511C318.843 113.985 318.763 113.502 318.603 113.057C318.443 112.614 318.217 112.233 317.924 111.92C317.631 111.607 317.275 111.36 316.852 111.177C316.429 110.994 315.955 110.904 315.429 110.904Z" fill="black"/>
<path d="M3.17611 129.265H0V128.477H7.21889V129.265H4.04278V137.765H3.17611V129.265Z" fill="black"/>
<path d="M9.28035 128.477H10.147V132.569H15.3445V128.477H16.2112V137.765H15.3445V133.357H10.147V137.765H9.28035V128.477Z" fill="black"/>
<path d="M22.2353 128.477H23.127L27.0395 137.762H26.0676L25.0557 135.297H20.1337L19.0842 137.762H18.1775L22.2328 128.477H22.2353ZM22.6436 129.423L20.4769 134.511H24.7426L22.6411 129.423H22.6436Z" fill="black"/>
<path d="M29.8775 128.477H29.0108V137.762H29.8775V128.477Z" fill="black"/>
<path d="M37.963 128.477H37.0964V137.762H37.963V128.477Z" fill="black"/>
<path d="M41.1391 128.477H42.2538L47.9122 136.611H47.9397V128.477H48.8039V137.765H47.6892L42.0309 129.633H42.0058V137.765H41.1391V128.477Z" fill="black"/>
<path d="M54.0415 129.265H50.8653V128.477H58.0867V129.265H54.9081V137.765H54.0415V129.265Z" fill="black"/>
<path d="M60.1457 128.477H65.8291V129.265H61.0124V132.569H65.5286V133.357H61.0124V136.976H66.0395V137.765H60.1457V128.477Z" fill="black"/>
<path d="M68.5594 128.477H71.0016C71.1243 128.477 71.2896 128.482 71.5 128.489C71.7104 128.497 71.9384 128.524 72.1839 128.569C72.4293 128.612 72.6773 128.682 72.9328 128.779C73.1858 128.877 73.4137 129.015 73.6166 129.2C73.817 129.383 73.9848 129.615 74.1151 129.896C74.2453 130.176 74.3129 130.516 74.3129 130.919C74.3129 131.365 74.2353 131.733 74.0825 132.021C73.9297 132.309 73.7368 132.544 73.5039 132.721C73.2709 132.902 73.0155 133.034 72.7349 133.122C72.4544 133.21 72.1889 133.27 71.9334 133.305L74.6386 137.765H73.6542L71.0417 133.357H69.4261V137.765H68.5594V128.479V128.477ZM69.4261 132.569H71.2646C71.7205 132.569 72.0887 132.511 72.3742 132.399C72.6573 132.286 72.8802 132.146 73.038 131.978C73.1958 131.813 73.3035 131.633 73.3586 131.44C73.4162 131.247 73.4438 131.072 73.4438 130.914C73.4438 130.757 73.4162 130.582 73.3586 130.389C73.301 130.196 73.1958 130.018 73.038 129.851C72.8802 129.686 72.6598 129.545 72.3742 129.43C72.0887 129.318 71.7205 129.26 71.2646 129.26H69.4261V132.566V132.569Z" fill="black"/>
<path d="M76.9756 128.477H78.0902L83.7486 136.611H83.7737V128.477H84.6403V137.765H83.5257L77.8673 129.633H77.8397V137.765H76.9756V128.477Z" fill="black"/>
<path d="M90.6519 128.477H91.5436L95.4561 137.762H94.4843L93.4723 135.297H88.5503L87.5008 137.762H86.5966L90.6519 128.477ZM91.0602 129.423L88.8935 134.511H93.1592L91.0577 129.423H91.0602Z" fill="black"/>
<path d="M98.6072 129.265H95.4311V128.477H102.65V129.265H99.4739V137.765H98.6072V129.265Z" fill="black"/>
<path d="M105.578 128.477H104.711V137.762H105.578V128.477Z" fill="black"/>
<path d="M108.151 133.119C108.151 132.411 108.268 131.76 108.506 131.165C108.742 130.569 109.07 130.056 109.491 129.623C109.911 129.19 110.415 128.852 111.006 128.607C111.597 128.362 112.246 128.239 112.955 128.239C113.664 128.239 114.312 128.362 114.904 128.607C115.495 128.852 116.001 129.19 116.419 129.623C116.84 130.056 117.168 130.569 117.403 131.165C117.639 131.76 117.759 132.411 117.759 133.119C117.759 133.828 117.641 134.481 117.403 135.082C117.168 135.68 116.84 136.195 116.419 136.628C115.998 137.061 115.492 137.397 114.904 137.64C114.312 137.88 113.664 138 112.955 138C112.246 138 111.597 137.88 111.006 137.64C110.415 137.399 109.909 137.061 109.491 136.628C109.07 136.195 108.742 135.68 108.506 135.082C108.271 134.483 108.151 133.828 108.151 133.119ZM109.017 133.119C109.017 133.698 109.11 134.233 109.293 134.734C109.476 135.232 109.739 135.665 110.079 136.033C110.42 136.401 110.833 136.688 111.319 136.899C111.805 137.109 112.349 137.214 112.955 137.214C113.561 137.214 114.102 137.109 114.588 136.899C115.074 136.688 115.487 136.401 115.828 136.033C116.168 135.665 116.431 135.232 116.614 134.734C116.797 134.236 116.89 133.698 116.89 133.119C116.89 132.541 116.797 132.006 116.614 131.505C116.431 131.007 116.168 130.574 115.828 130.206C115.487 129.838 115.074 129.55 114.588 129.34C114.102 129.13 113.558 129.025 112.955 129.025C112.351 129.025 111.805 129.13 111.319 129.34C110.833 129.55 110.42 129.838 110.079 130.206C109.739 130.574 109.476 131.007 109.293 131.505C109.107 132.003 109.017 132.541 109.017 133.119Z" fill="black"/>
<path d="M120.331 128.477H121.449L127.105 136.611H127.132V128.477H127.999V137.765H126.882L121.226 129.633H121.198V137.765H120.331V128.477Z" fill="black"/>
<path d="M134.023 128.477H134.915L138.827 137.762H137.855L136.846 135.297H131.924L130.874 137.762H129.968L134.023 128.477ZM134.431 129.423L132.264 134.511H136.53L134.429 129.423H134.431Z" fill="black"/>
<path d="M140.796 128.477H141.663V136.976H145.996V137.765H140.796V128.477Z" fill="black"/>
<path d="M154.081 129.265H150.905V128.477H158.124V129.265H154.948V137.765H154.081V129.265Z" fill="black"/>
<path d="M160.186 128.477H162.628C162.751 128.477 162.916 128.482 163.126 128.489C163.337 128.497 163.565 128.524 163.81 128.569C164.056 128.612 164.304 128.682 164.559 128.779C164.812 128.877 165.04 129.015 165.243 129.2C165.443 129.383 165.611 129.615 165.741 129.896C165.872 130.176 165.939 130.516 165.939 130.919C165.939 131.365 165.862 131.733 165.709 132.021C165.556 132.309 165.363 132.544 165.13 132.721C164.9 132.902 164.642 133.034 164.361 133.122C164.081 133.21 163.815 133.27 163.56 133.305L166.265 137.765H165.28L162.668 133.357H161.052V137.765H160.186V128.479V128.477ZM161.052 132.569H162.891C163.347 132.569 163.715 132.511 164 132.399C164.284 132.286 164.506 132.146 164.664 131.978C164.822 131.813 164.93 131.633 164.985 131.44C165.042 131.247 165.07 131.072 165.07 130.914C165.07 130.757 165.042 130.582 164.985 130.389C164.927 130.196 164.822 130.018 164.664 129.851C164.506 129.686 164.286 129.545 164 129.43C163.715 129.318 163.347 129.26 162.891 129.26H161.052V132.566V132.569Z" fill="black"/>
<path d="M171.447 128.477H172.339L176.252 137.762H175.28L174.27 135.297H169.348L168.299 137.762H167.392L171.447 128.477ZM171.853 129.423L169.686 134.511H173.952L171.851 129.423H171.853Z" fill="black"/>
<path d="M178.103 128.477H180.978C181.782 128.477 182.466 128.574 183.025 128.772C183.586 128.97 184.052 129.22 184.422 129.525C184.793 129.831 185.086 130.171 185.301 130.541C185.517 130.914 185.672 131.27 185.775 131.61C185.875 131.951 185.94 132.258 185.965 132.534C185.99 132.809 186.005 133.004 186.005 133.117C186.005 133.23 185.993 133.425 185.965 133.7C185.94 133.975 185.875 134.283 185.775 134.624C185.675 134.964 185.517 135.322 185.301 135.692C185.086 136.065 184.793 136.403 184.422 136.709C184.049 137.014 183.583 137.267 183.025 137.462C182.463 137.66 181.782 137.757 180.978 137.757H178.103V128.472V128.477ZM178.969 136.976H180.755C181.366 136.976 181.94 136.901 182.474 136.746C183.007 136.593 183.47 136.358 183.864 136.045C184.257 135.73 184.568 135.329 184.795 134.844C185.023 134.358 185.136 133.783 185.136 133.119C185.136 132.456 185.023 131.881 184.795 131.395C184.568 130.909 184.257 130.509 183.864 130.194C183.47 129.878 183.007 129.645 182.474 129.493C181.94 129.34 181.366 129.263 180.755 129.263H178.969V136.974V136.976Z" fill="black"/>
<path d="M188.578 128.477H194.261V129.265H189.444V132.569H193.961V133.357H189.444V136.976H194.472V137.765H188.578V128.477Z" fill="black"/>
<path d="M200.904 128.477H203.78C204.584 128.477 205.267 128.574 205.826 128.772C206.387 128.97 206.853 129.22 207.224 129.525C207.594 129.831 207.887 130.171 208.103 130.541C208.318 130.914 208.474 131.27 208.576 131.61C208.676 131.951 208.742 132.258 208.767 132.534C208.792 132.809 208.807 133.004 208.807 133.117C208.807 133.23 208.794 133.425 208.767 133.7C208.742 133.975 208.676 134.283 208.576 134.624C208.476 134.964 208.318 135.322 208.103 135.692C207.887 136.065 207.594 136.403 207.224 136.709C206.85 137.014 206.385 137.267 205.826 137.462C205.265 137.66 204.584 137.757 203.78 137.757H200.904V128.472V128.477ZM201.771 136.976H203.557C204.168 136.976 204.741 136.901 205.275 136.746C205.808 136.593 206.272 136.358 206.665 136.045C207.058 135.73 207.369 135.329 207.597 134.844C207.825 134.358 207.938 133.783 207.938 133.119C207.938 132.456 207.825 131.881 207.597 131.395C207.369 130.909 207.058 130.509 206.665 130.194C206.272 129.878 205.808 129.645 205.275 129.493C204.741 129.34 204.168 129.263 203.557 129.263H201.771V136.974V136.976Z" fill="black"/>
<path d="M211.379 128.477H217.063V129.265H212.246V132.569H216.762V133.357H212.246V136.976H217.273V137.765H211.379V128.477Z" fill="black"/>
<path d="M219.793 128.477H220.659V136.976H224.99V137.765H219.793V128.477Z" fill="black"/>
<path d="M226.987 128.477H232.67V129.265H227.853V132.569H232.37V133.357H227.853V136.976H232.88V137.765H226.987V128.477Z" fill="black"/>
<path d="M243.068 137.162C242.524 137.467 241.963 137.685 241.382 137.81C240.801 137.937 240.207 138 239.603 138C238.895 138 238.246 137.88 237.655 137.64C237.064 137.399 236.558 137.061 236.139 136.628C235.718 136.195 235.39 135.68 235.155 135.082C234.919 134.483 234.802 133.828 234.802 133.119C234.802 132.411 234.919 131.76 235.155 131.165C235.39 130.569 235.718 130.056 236.139 129.623C236.56 129.19 237.064 128.852 237.655 128.607C238.246 128.362 238.895 128.239 239.603 128.239C240.986 128.239 242.103 128.667 242.95 129.525L242.319 130.181C242.178 130.016 242.006 129.861 241.8 129.716C241.595 129.57 241.372 129.448 241.131 129.348C240.891 129.248 240.638 129.167 240.377 129.112C240.114 129.055 239.856 129.027 239.603 129.027C239 129.027 238.454 129.132 237.97 129.343C237.484 129.553 237.071 129.841 236.73 130.209C236.39 130.577 236.127 131.01 235.944 131.508C235.761 132.006 235.668 132.544 235.668 133.122C235.668 133.7 235.761 134.236 235.944 134.736C236.127 135.234 236.39 135.667 236.73 136.035C237.071 136.403 237.484 136.691 237.97 136.901C238.456 137.111 239 137.217 239.603 137.217C240.102 137.217 240.57 137.177 241.009 137.099C241.447 137.019 241.845 136.876 242.203 136.666V133.545H239.972V132.759H243.07V137.167L243.068 137.162Z" fill="black"/>
<path d="M249.092 128.477H249.983L253.896 137.762H252.924L251.915 135.297H246.993L245.943 137.762H245.036L249.092 128.477ZM249.5 129.423L247.333 134.511H251.599L249.497 129.423H249.5Z" fill="black"/>
<path d="M257.034 129.265H253.856V128.477H261.077V129.265H257.899V137.765H257.034V129.265Z" fill="black"/>
<path d="M264.003 128.477H263.136V137.762H264.003V128.477Z" fill="black"/>
<path d="M266.563 133.119C266.563 132.411 266.681 131.76 266.918 131.165C267.154 130.569 267.482 130.056 267.903 129.623C268.324 129.19 268.827 128.852 269.418 128.607C270.009 128.362 270.658 128.239 271.367 128.239C272.076 128.239 272.725 128.362 273.316 128.607C273.907 128.852 274.413 129.19 274.831 129.623C275.252 130.056 275.58 130.569 275.816 131.165C276.051 131.76 276.169 132.411 276.169 133.119C276.169 133.828 276.051 134.481 275.816 135.082C275.58 135.68 275.252 136.195 274.831 136.628C274.41 137.061 273.907 137.397 273.316 137.64C272.725 137.88 272.076 138 271.367 138C270.658 138 270.009 137.88 269.418 137.64C268.827 137.399 268.321 137.061 267.903 136.628C267.482 136.195 267.154 135.68 266.918 135.082C266.683 134.483 266.563 133.828 266.563 133.119ZM267.429 133.119C267.429 133.698 267.522 134.233 267.705 134.734C267.888 135.232 268.151 135.665 268.492 136.033C268.832 136.401 269.245 136.688 269.731 136.899C270.217 137.109 270.761 137.214 271.367 137.214C271.973 137.214 272.514 137.109 273 136.899C273.486 136.688 273.899 136.401 274.24 136.033C274.581 135.665 274.844 135.232 275.029 134.734C275.212 134.236 275.305 133.698 275.305 133.119C275.305 132.541 275.212 132.006 275.029 131.505C274.846 131.007 274.583 130.574 274.24 130.206C273.899 129.838 273.486 129.55 273 129.34C272.514 129.13 271.971 129.025 271.367 129.025C270.763 129.025 270.217 129.13 269.731 129.34C269.245 129.55 268.832 129.838 268.492 130.206C268.151 130.574 267.888 131.007 267.705 131.505C267.522 132.003 267.429 132.541 267.429 133.119Z" fill="black"/>
<path d="M278.744 128.477H279.861L285.519 136.611H285.544V128.477H286.411V137.765H285.296L279.638 129.633H279.61V137.765H278.744V128.477Z" fill="black"/>
<path d="M292.883 136.846L296.375 133.159C296.533 133.002 296.691 132.834 296.849 132.654C297.006 132.474 297.149 132.286 297.274 132.091C297.402 131.893 297.505 131.685 297.582 131.468C297.66 131.25 297.7 131.012 297.7 130.759C297.7 130.216 297.525 129.793 297.174 129.488C296.824 129.182 296.383 129.03 295.849 129.03C295.368 129.03 294.96 129.17 294.629 129.45C294.296 129.731 294.083 130.098 293.986 130.551L293.066 130.459C293.214 129.743 293.542 129.207 294.051 128.852C294.559 128.497 295.17 128.321 295.889 128.321C296.247 128.321 296.591 128.377 296.914 128.484C297.237 128.594 297.522 128.749 297.768 128.95C298.013 129.15 298.209 129.398 298.351 129.691C298.497 129.983 298.567 130.319 298.567 130.694C298.567 131.07 298.512 131.385 298.402 131.69C298.291 131.996 298.149 132.288 297.968 132.564C297.788 132.839 297.582 133.099 297.352 133.345C297.119 133.59 296.886 133.835 296.651 134.078L293.75 137.056H298.632V137.765H292.883V136.846Z" fill="black"/>
<path d="M300.142 133.119C300.142 132.787 300.157 132.436 300.187 132.063C300.217 131.693 300.275 131.33 300.358 130.974C300.44 130.619 300.556 130.284 300.698 129.963C300.844 129.645 301.029 129.363 301.257 129.117C301.485 128.872 301.758 128.677 302.079 128.534C302.399 128.389 302.777 128.316 303.213 128.316C303.649 128.316 304.03 128.389 304.348 128.534C304.666 128.679 304.942 128.872 305.17 129.117C305.397 129.363 305.583 129.645 305.728 129.963C305.873 130.284 305.986 130.619 306.069 130.974C306.151 131.327 306.209 131.69 306.239 132.063C306.269 132.436 306.284 132.787 306.284 133.119C306.284 133.452 306.269 133.815 306.239 134.181C306.209 134.549 306.151 134.909 306.069 135.262C305.986 135.615 305.871 135.953 305.728 136.273C305.583 136.591 305.397 136.874 305.17 137.119C304.942 137.364 304.669 137.56 304.348 137.702C304.027 137.847 303.649 137.917 303.213 137.917C302.777 137.917 302.397 137.845 302.079 137.702C301.758 137.557 301.485 137.364 301.257 137.119C301.029 136.874 300.844 136.591 300.698 136.273C300.553 135.955 300.44 135.617 300.358 135.262C300.275 134.909 300.217 134.546 300.187 134.181C300.157 133.813 300.142 133.46 300.142 133.119ZM301.007 133.119C301.007 133.365 301.014 133.633 301.032 133.925C301.049 134.218 301.084 134.516 301.137 134.816C301.189 135.117 301.265 135.412 301.367 135.702C301.467 135.99 301.598 136.246 301.76 136.471C301.923 136.694 302.121 136.874 302.357 137.009C302.592 137.144 302.878 137.212 303.211 137.212C303.544 137.212 303.817 137.144 304.057 137.009C304.298 136.874 304.498 136.694 304.661 136.471C304.824 136.248 304.954 135.993 305.054 135.702C305.155 135.415 305.232 135.119 305.285 134.816C305.337 134.514 305.372 134.218 305.39 133.925C305.407 133.633 305.415 133.365 305.415 133.119C305.415 132.874 305.405 132.616 305.39 132.319C305.372 132.021 305.337 131.723 305.285 131.42C305.232 131.12 305.155 130.824 305.054 130.534C304.954 130.244 304.821 129.991 304.661 129.766C304.498 129.543 304.298 129.363 304.057 129.227C303.817 129.092 303.534 129.025 303.211 129.025C302.888 129.025 302.605 129.092 302.364 129.227C302.124 129.363 301.923 129.543 301.76 129.766C301.598 129.988 301.467 130.244 301.367 130.534C301.267 130.822 301.189 131.117 301.137 131.42C301.084 131.723 301.049 132.021 301.032 132.319C301.014 132.616 301.007 132.882 301.007 133.119Z" fill="black"/>
<path d="M307.795 136.846L311.286 133.159C311.444 133.002 311.602 132.834 311.76 132.654C311.918 132.474 312.06 132.286 312.186 132.091C312.313 131.893 312.416 131.685 312.494 131.468C312.571 131.25 312.611 131.012 312.611 130.759C312.611 130.216 312.436 129.793 312.085 129.488C311.735 129.182 311.294 129.03 310.76 129.03C310.279 129.03 309.871 129.17 309.54 129.45C309.207 129.731 308.994 130.098 308.897 130.551L307.977 130.459C308.125 129.743 308.453 129.207 308.962 128.852C309.47 128.497 310.082 128.321 310.8 128.321C311.159 128.321 311.502 128.377 311.825 128.484C312.148 128.594 312.434 128.749 312.679 128.95C312.924 129.15 313.12 129.398 313.263 129.691C313.408 129.983 313.478 130.319 313.478 130.694C313.478 131.07 313.423 131.385 313.313 131.69C313.202 131.996 313.06 132.288 312.879 132.564C312.699 132.839 312.494 133.099 312.263 133.345C312.03 133.59 311.797 133.835 311.562 134.078L308.661 137.056H313.543V137.765H307.795V136.846Z" fill="black"/>
<path d="M320.619 129.185H316.787L316.747 132.136C316.95 132.031 317.168 131.961 317.406 131.926C317.644 131.891 317.876 131.873 318.104 131.873C318.553 131.873 318.954 131.953 319.309 132.116C319.665 132.278 319.968 132.499 320.219 132.779C320.469 133.059 320.662 133.385 320.797 133.755C320.932 134.128 321.003 134.524 321.003 134.942C321.003 135.44 320.912 135.878 320.732 136.253C320.552 136.628 320.319 136.939 320.031 137.184C319.743 137.429 319.422 137.612 319.071 137.735C318.721 137.857 318.375 137.917 318.034 137.917C317.35 137.917 316.779 137.777 316.321 137.497C315.863 137.217 315.504 136.834 315.251 136.343L316.066 135.938C316.146 136.113 316.251 136.276 316.389 136.431C316.524 136.583 316.679 136.719 316.855 136.836C317.03 136.954 317.218 137.046 317.418 137.111C317.618 137.177 317.824 137.209 318.034 137.209C318.245 137.209 318.473 137.164 318.716 137.071C318.961 136.979 319.189 136.841 319.397 136.658C319.607 136.476 319.783 136.243 319.923 135.963C320.063 135.682 320.133 135.359 320.133 134.992C320.133 134.659 320.073 134.346 319.955 134.053C319.838 133.76 319.672 133.505 319.462 133.285C319.252 133.067 319.004 132.894 318.721 132.767C318.435 132.639 318.127 132.576 317.796 132.576C317.466 132.576 317.14 132.636 316.824 132.754C316.509 132.872 316.221 133.022 315.958 133.207L316.035 128.472H320.619V129.18V129.185Z" fill="black"/>
<path d="M120.847 55.8387C123.004 57.6308 124.995 59.618 126.789 61.7755C129.331 60.8545 132.029 60.2563 134.832 60.036C136.41 55.4333 137.269 50.4976 137.269 45.3668C132.134 45.3668 127.195 46.2253 122.588 47.8021C122.368 50.6028 121.772 53.2983 120.847 55.8387Z" fill="#DE1018"/>
<path d="M145.598 82.9196C145.33 82.7745 145.059 82.6318 144.789 82.4916C144.518 82.3515 144.245 82.2163 143.972 82.0812C141.84 83.9008 139.516 85.3824 137.074 86.5263C137.201 87.9128 137.272 89.3144 137.272 90.7336H156.078C152.902 87.5574 149.365 84.9545 145.6 82.9196" fill="#DE1018"/>
<path d="M56.9445 61.7755C58.738 59.6205 60.7268 57.6308 62.886 55.8387C61.9642 53.2983 61.3655 50.6028 61.1451 47.8021C56.5388 46.2253 51.5993 45.3668 46.4644 45.3668C46.4644 48.2526 46.7349 51.0783 47.2534 53.8164C47.4262 54.73 47.6266 55.6335 47.8546 56.5245C48.1576 57.7159 48.5058 58.8872 48.9016 60.036C51.7045 60.2563 54.4022 60.852 56.9445 61.7755Z" fill="#DE1018"/>
<path d="M91.8667 14.5741C96.5282 14.5741 100.952 15.6153 104.917 17.4749C110.941 14.6993 117.451 13.3102 123.963 13.3102C115.74 5.09081 104.386 0 91.8667 0C79.3476 0 67.9933 5.09081 59.7725 13.3077C66.285 13.3077 72.795 14.6968 78.8191 17.4724C82.7843 15.6128 87.2053 14.5716 91.8667 14.5716" fill="#75AADB"/>
<path d="M145.76 36.8796C149.057 40.1734 151.446 44.0353 152.934 48.15C159.159 50.4426 164.744 54.0617 169.351 58.662C169.353 47.0412 164.927 35.4204 156.075 26.5728C147.221 17.7277 135.591 13.3052 123.961 13.3052C128.565 17.9079 132.187 23.4893 134.481 29.7089C138.602 31.1956 142.464 33.5833 145.76 36.8771" fill="#75AADB"/>
<path d="M168.086 90.7336H182.671C182.671 78.2218 177.577 66.8788 169.353 58.6645C169.353 65.1719 167.963 71.6768 165.183 77.6962C167.044 81.6582 168.086 86.0757 168.086 90.7361" fill="#75AADB"/>
<path d="M18.5507 77.6962C15.7728 71.6768 14.3827 65.1719 14.3802 58.6645C6.15434 66.8788 1.06204 78.2218 1.06204 90.7336H15.6476C15.6476 86.0757 16.6896 81.6557 18.5507 77.6937" fill="#75AADB"/>
<path d="M37.9705 36.8796C41.2669 33.5858 45.1318 31.1981 49.2497 29.7114C51.5442 23.4918 55.1661 17.9104 59.77 13.3077C48.1401 13.3077 36.5102 17.7277 27.6582 26.5753C18.8037 35.4229 14.3802 47.0437 14.3827 58.6645C18.989 54.0642 24.5748 50.4451 30.7992 48.1525C32.2871 44.0353 34.6767 40.1759 37.973 36.8821" fill="#75AADB"/>
<path d="M87.6561 45.5645C89.0438 45.4369 90.4465 45.3668 91.8667 45.3668C93.287 45.3668 94.6897 45.4344 96.0773 45.5645C97.222 43.1217 98.7049 40.8016 100.526 38.6716C99.8571 37.3051 99.1157 35.966 98.3016 34.6596C97.6503 33.6134 96.9515 32.5897 96.2076 31.5911C94.9051 29.8416 93.4573 28.1646 91.8692 26.5753C91.6413 26.8031 91.4184 27.0309 91.1979 27.2611C90.9775 27.4914 90.7596 27.7241 90.5442 27.9569C87.5309 31.2306 85.0862 34.8448 83.2126 38.6691C85.0336 40.7991 86.5164 43.1217 87.6611 45.562" fill="#DE1018"/>
<path d="M39.7615 82.0812C36.2072 83.8207 32.8357 86.0482 29.7472 88.7713C29.3915 89.0842 29.0409 89.407 28.6902 89.7349C28.342 90.0628 27.9964 90.3932 27.6557 90.7336H46.4619C46.4619 89.3144 46.5295 87.9128 46.6598 86.5263C44.2151 85.3824 41.8931 83.9008 39.7615 82.0812Z" fill="#DE1018"/>
<path d="M91.8667 26.5753C93.4548 28.1621 94.9001 29.8391 96.2051 31.5911C96.949 32.5922 97.6478 33.6159 98.2991 34.6596C99.1132 35.966 99.8546 37.3051 100.526 38.6716C101.049 38.0584 101.6 37.4603 102.182 36.8821C106.578 32.4896 111.98 29.7064 117.656 28.5276C120.835 33.3706 122.686 39.1572 122.686 45.3693C122.686 46.1877 122.653 47.0011 122.591 47.8046C127.197 46.2278 132.137 45.3693 137.272 45.3693C137.272 39.8705 136.287 34.597 134.484 29.7139C132.189 23.4943 128.567 17.9129 123.963 13.3102C117.451 13.3102 110.941 14.6993 104.917 17.4749C100.188 19.6549 95.7592 22.6859 91.8667 26.5753Z" fill="#00247D"/>
<path d="M137.269 45.3668C137.269 50.4976 136.41 55.4333 134.832 60.036C135.636 59.9734 136.447 59.9409 137.269 59.9409C143.486 59.9409 149.277 61.7905 154.121 64.9666C152.942 70.6356 150.156 76.0368 145.76 80.4293C145.179 81.01 144.583 81.5606 143.969 82.0837C144.242 82.2163 144.516 82.354 144.786 82.4942C145.057 82.6343 145.327 82.777 145.595 82.9221C149.36 84.957 152.894 87.5624 156.073 90.7361C159.965 86.8466 162.999 82.4216 165.18 77.6962C167.958 71.6768 169.348 65.1719 169.351 58.6645C164.744 54.0642 159.159 50.4476 152.934 48.1525C148.05 46.3529 142.772 45.3668 137.267 45.3668" fill="#00247D"/>
<path d="M46.4619 45.3668C51.5968 45.3668 56.5363 46.2253 61.1426 47.8021C61.08 46.9986 61.0474 46.1877 61.0474 45.3668C61.0474 39.1547 62.8985 33.3681 66.0771 28.5251C71.7505 29.7039 77.1559 32.4871 81.5519 36.8796C82.1305 37.4603 82.6841 38.0559 83.2076 38.6691C85.0812 34.8448 87.5234 31.2306 90.5392 27.9569C90.7546 27.7241 90.9725 27.4914 91.1929 27.2611C91.4134 27.0309 91.6388 26.8031 91.8642 26.5753C87.9717 22.6859 83.5432 19.6549 78.8166 17.4749C72.7925 14.6993 66.2825 13.3102 59.77 13.3077C55.1661 17.9104 51.5442 23.4918 49.2497 29.7114C47.4488 34.5945 46.4619 39.868 46.4619 45.3668Z" fill="#00247D"/>
<path d="M27.6557 90.7336C27.9964 90.3932 28.342 90.0628 28.6902 89.7349C29.0384 89.407 29.389 89.0842 29.7447 88.7713C32.8332 86.0507 36.2046 83.8207 39.759 82.0812C39.1453 81.5581 38.5467 81.0075 37.968 80.4268C33.5721 76.0343 30.7867 70.6356 29.607 64.9641C34.4538 61.788 40.2449 59.9384 46.4594 59.9384C47.2784 59.9384 48.0925 59.9709 48.8966 60.0335C48.5008 58.8822 48.1526 57.7109 47.8495 56.5195C47.6216 55.626 47.4212 54.725 47.2509 53.8114C46.7324 51.0733 46.4594 48.2501 46.4594 45.3618C40.9563 45.3618 35.6786 46.3454 30.7917 48.1475C24.5673 50.4401 18.9815 54.0592 14.3752 58.6594C14.3752 65.1669 15.7678 71.6718 18.5457 77.6912C20.7274 82.4166 23.7607 86.8416 27.6532 90.7311" fill="#00247D"/>
<path d="M91.8667 52.4398C70.701 52.4398 53.543 69.5844 53.543 90.7336H63.8503C63.8503 75.2734 76.3945 62.7391 91.8667 62.7391C107.339 62.7391 119.883 75.2734 119.883 90.7336H130.19C130.19 69.5844 113.032 52.4398 91.8667 52.4398Z" fill="#75AADB"/>
<path d="M91.8667 74.2648C82.7642 74.2648 75.385 81.6382 75.385 90.7336H108.351C108.351 81.6382 100.972 74.2648 91.8692 74.2648" fill="#DE1018"/>
</g>
</g>
</g>
<defs>
<clipPath id="clip0_3_212">
<rect width="321" height="138" fill="white"/>
</clipPath>
</defs>
</svg>
