<?xml version="1.0" encoding="UTF-8"?>
<svg id="Layer_2" data-name="Layer 2" xmlns="http://www.w3.org/2000/svg" xmlns:xlink="http://www.w3.org/1999/xlink" viewBox="0 0 210 210">
  <defs>
    <style>
      .cls-1 {
        fill: #a90411;
      }

      .cls-1, .cls-2 {
        fill-rule: evenodd;
      }

      .cls-1, .cls-2, .cls-3, .cls-4, .cls-5, .cls-6 {
        stroke-width: 0px;
      }

      .cls-2, .cls-4 {
        fill: #01095a;
      }

      .cls-7 {
        clip-path: url(#clippath-2);
      }

      .cls-3 {
        fill: none;
      }

      .cls-8 {
        clip-path: url(#clippath-1);
      }

      .cls-9 {
        clip-path: url(#clippath);
      }

      .cls-5 {
        fill: url(#radial-gradient);
      }

      .cls-10 {
        clip-path: url(#clippath-3);
      }

      .cls-6 {
        fill: #fff;
      }
    </style>
    <clipPath id="clippath">
      <rect class="cls-3" width="210" height="210"/>
    </clipPath>
    <clipPath id="clippath-1">
      <rect class="cls-3" width="210" height="210"/>
    </clipPath>
    <clipPath id="clippath-2">
      <polygon class="cls-3" points="103.91 73.57 100.91 46.32 101.73 73.72 96.84 46.75 99.57 74.02 92.81 47.46 97.44 74.48 88.84 48.45 95.34 75.08 84.95 49.71 93.29 75.82 81.15 51.24 91.3 76.71 77.47 53.04 89.37 77.74 73.93 55.08 87.52 78.89 70.54 57.37 85.76 80.17 67.31 59.89 84.09 81.58 64.27 62.63 82.52 83.09 61.43 65.57 81.06 84.71 58.79 68.71 79.72 86.43 56.39 72.02 78.5 88.24 54.22 75.49 77.4 90.13 52.3 79.1 76.45 92.09 50.63 82.84 75.63 94.11 49.23 86.68 74.96 96.18 48.11 90.61 74.43 98.3 47.26 94.62 74.05 100.45 46.69 98.67 73.82 102.62 46.4 102.75 73.75 104.8 46.4 106.84 73.82 106.98 46.69 110.92 74.05 109.14 47.26 114.98 74.43 111.29 48.11 118.98 74.96 113.41 49.23 122.91 75.63 115.48 50.63 126.76 76.45 117.5 52.3 130.49 77.4 119.46 54.22 134.11 78.5 121.35 56.39 137.58 79.72 123.16 58.79 140.89 81.06 124.88 61.43 144.02 82.52 126.5 64.27 146.97 84.09 128.02 67.31 149.7 85.76 129.42 70.54 152.22 87.52 130.7 73.93 154.51 89.37 131.86 77.47 156.56 91.3 132.88 81.15 158.35 93.29 133.77 84.95 159.88 95.34 134.51 88.84 161.15 97.44 135.11 92.81 162.14 99.57 135.57 96.84 162.85 101.73 135.87 100.91 163.28 103.91 136.02 105 163.42 106.09 136.02 109.09 163.28 108.27 135.87 113.16 162.85 110.43 135.57 117.19 162.14 112.56 135.11 121.16 161.15 114.66 134.51 125.05 159.88 116.71 133.77 128.85 158.35 118.7 132.88 132.53 156.56 120.63 131.86 136.07 154.51 122.48 130.7 139.46 152.22 124.24 129.42 142.69 149.7 125.91 128.02 145.73 146.97 127.48 126.5 148.57 144.02 128.94 124.88 151.21 140.89 130.29 123.16 153.61 137.58 131.5 121.35 155.78 134.11 132.6 119.46 157.7 130.49 133.55 117.5 159.37 126.76 134.37 115.48 160.76 122.91 135.04 113.41 161.89 118.98 135.57 111.29 162.74 114.98 135.95 109.14 163.31 110.92 136.18 106.98 163.6 106.84 136.25 104.8 163.6 102.75 136.18 102.62 163.31 98.67 135.95 100.45 162.74 94.62 135.57 98.3 161.89 90.61 135.04 96.18 160.76 86.68 134.37 94.11 159.37 82.84 133.55 92.09 157.7 79.1 132.6 90.13 155.78 75.49 131.5 88.24 153.61 72.02 130.29 86.43 151.21 68.71 128.94 84.71 148.57 65.57 127.48 83.09 145.73 62.63 125.91 81.58 142.69 59.89 124.24 80.17 139.46 57.37 122.48 78.89 136.07 55.08 120.63 77.74 132.53 53.04 118.7 76.71 128.85 51.24 116.71 75.83 125.05 49.71 114.66 75.08 121.16 48.45 112.56 74.48 117.19 47.46 110.43 74.02 113.16 46.75 108.27 73.72 109.09 46.32 106.09 73.57 105 46.18 103.91 73.57"/>
    </clipPath>
    <radialGradient id="radial-gradient" cx="-741.61" cy="-418.3" fx="-741.61" fy="-418.3" r="1" gradientTransform="translate(44516.76 -24945.45) scale(59.89 -59.89)" gradientUnits="userSpaceOnUse">
      <stop offset="0" stop-color="#ff5834"/>
      <stop offset=".07" stop-color="#ff5834"/>
      <stop offset=".68" stop-color="#d61622"/>
      <stop offset="1" stop-color="#d61622"/>
    </radialGradient>
    <clipPath id="clippath-3">
      <rect class="cls-3" width="210" height="210"/>
    </clipPath>
  </defs>
  <g id="Layer_2-2" data-name="Layer 2">
    <g id="Boxeo_Logo" data-name="Boxeo Logo">
      <g class="cls-9">
        <g class="cls-8">
          <path class="cls-4" d="M162.34,50.11c1.68-1.66,2.86-4.01,3.22-5.81.65-3.21-2.28-5.77-4.41-7.64-1.17-1.02-2.51-1.5-3.59-1.88-.41-.15-.8-.28-1.09-.42-1.59-.75-3.19-1.14-4.76-1.14-1.96,0-3.76.63-5.23,1.77-.52.41-1,.87-1.43,1.4-4.53-2.66-9.31-4.86-14.27-6.56.73-1.05,1.45-2.11,2.15-3.19,1.43-2.22.41-5.25-.63-6.74-.66-.96-1.43-1.67-2.12-2.31-.46-.42-.88-.82-1.12-1.15-.76-1.08-1.61-1.99-2.54-2.74-2.05-1.64-4.52-2.46-7.37-2.46h0c-1.55,0-3.21.23-5.22.73-.74.18-1.4.42-2,.7-.6.28-1.13.6-1.6.96-.47.36-.89.75-1.25,1.16-1.83,2.07-2.44,4.74-2.9,6.76-.07.32-.14.63-.22.95-.05.21-.13.47-.22.75-.2.66-.44,1.44-.53,2.3-.08,0-.15,0-.22,0-21.17,0-41.06,8.24-56.03,23.21-14.97,14.97-23.21,34.86-23.21,56.03s8.24,41.06,23.21,56.03c14.97,14.97,34.86,23.21,56.03,23.21s41.06-8.24,56.03-23.21c14.97-14.97,23.21-34.87,23.21-56.03s-7.76-39.88-21.9-54.68M142.92,43.63c-.04.7-.07,1.35-.15,1.92-.06.44-.04.87.05,1.27-1.93,2.63-3.94,4.05-5.79,4.05-1.03,0-2.02-.43-2.9-1.02,1.28-2.45,1.31-4.72,1.01-6.38-.28-1.56-1.02-3.48-2.7-5.51,3.66,1.5,7.17,3.3,10.5,5.36,0,.1-.01.21-.02.32M105,177.03c-39.9,0-72.24-32.34-72.24-72.24,0-33.96,23.43-62.43,55.01-70.16-.66,1.53-1.19,3.23-1.7,5.05-1.2,4.32-1.79,8.07-1.8,11.48-.02,7.34-1.59,14.34-3.28,20.81-2,7.63-3.05,15.46-3.74,21.42-.41,3.49-.37,6.98-.34,10.36.06,6.68.11,12.99-3.12,18.79-1.52,2.71-1.93,6.47-1.26,11.48.8,5.98.12,11.76-2.09,17.69-.62,1.66-1.84,5.82.16,8.6,1.77,2.46,4.97,4.38,7.97,4.78.19.03.39.04.59.04,2.83,0,7-3.3,7.24-6.55.25-3.39.11-6.75-.02-10.01-.06-1.53-.13-3.11-.15-4.64-.02-1.78.02-3.23.29-4.54l.33-1.53c.92-4.36,1.87-8.86,3.19-13.09.08-.27.18-.54.29-.81.05-.11.09-.22.14-.33.37-.87.82-1.69,1.17-2.19,2.86-.12,5.05-.85,6.71-1.92,1.67-1.07,2.82-2.48,3.62-3.97l.19.39c.59,1.25,1.84,2,3.16,2,.3,0,.61-.04.91-.12.73-.2,1.41-.4,2.07-.59,1.36-.4,2.54-.75,3.65-.91.09-.01.26-.03.47-.03.41.82.86,1.57,1.27,2.27,1.37,2.3,2.06,3.6,1.7,5.58-.64,3.5.32,7.05,1.16,10.18.29,1.09.57,2.12.78,3.11.22,1.06.62,1.95.97,2.74.19.42.48,1.06.5,1.29.13,4.54.11,9.07.09,13.87,0,1.8-.02,3.63-.02,5.5,0,1.67,1.19,3.11,2.83,3.44,1.11.22,2.28.47,3.51.74,3.16.7,6.75,1.48,10.4,1.8.25.02.51.03.76.03,1.85,0,3.56-.55,5.1-1.11.22-.08.44-.16.65-.24.72-.27,1.39-.52,2.01-.69.73-.2,1.35-.63,1.81-1.21.27-.35.48-.74.61-1.18.34-1.16.06-2.41-.75-3.31-.43-.48-.85-.98-1.29-1.51-1.09-1.29-2.21-2.63-3.59-3.83-.55-.48-1.11-.87-1.61-1.22-.32-.22-.77-.53-1-.75.02-.08.05-.19.11-.33.47-1.24.31-2.61-.48-4.09-.37-.68-1.73-2.95-3.96-3.47q-1.09-.25-1.19-2.82c-.01-.33-.03-.66-.05-.99-.14-2.38-.24-4.82-.33-7.18-.28-6.99-.57-14.22-1.9-21.27-1.81-9.63-4.84-16.85-9.52-22.72-4.46-5.59-7.43-10-5.08-15.86.54-1.35.2-2.61.07-3.08-1.1-4,.72-6.3,3.8-9.71.07-.08.14-.15.21-.23.79.43,1.57.86,2.34,1.29,3.91,2.16,7.6,4.19,11.61,5.74.21.08.43.15.66.22.45.12.93.21,1.43.25.25.02.5.03.76.03,3.44,0,6.64-1.75,7.54-2.28,1.87-1.11,3.23-2.71,4.42-4.11.7-.82,1.36-1.59,2.03-2.17,1.14-.99,2.07-2.07,2.97-3.1.82-.95,1.5-1.71,2.18-2.32,13.16,13.08,21.3,31.2,21.3,51.22,0,39.9-32.34,72.24-72.24,72.24"/>
          <path class="cls-1" d="M177.24,104.8c0-39.9-32.34-72.24-72.24-72.24S32.76,64.9,32.76,104.8s32.34,72.24,72.24,72.24,72.24-32.34,72.24-72.24"/>
        </g>
        <g class="cls-7">
          <rect class="cls-5" x="46.4" y="46.18" width="117.2" height="117.24"/>
        </g>
        <g class="cls-10">
          <path class="cls-6" d="M122.71,35.08c2.58-3.6,5.06-6.88,7.28-10.33.39-.61-.04-2.1-.56-2.85-.88-1.27-2.32-2.16-3.22-3.43-2.99-4.25-7.02-4.18-11.43-3.09-4.24,1.05-4.61,4.63-5.41,7.95-.26,1.1-.8,2.24-.68,3.31.53,4.77-1.64,5.18-5.84,4.75-9.15-.95-10.97.46-13.41,9.24-.95,3.42-1.66,7.03-1.67,10.55-.02,7.45-1.52,14.53-3.4,21.69-1.79,6.83-2.83,13.91-3.65,20.94-1.18,10.14,1.57,20.69-3.89,30.45-1.4,2.5-1.25,6.26-.84,9.31.9,6.72.07,13.07-2.28,19.37-.61,1.65-1.1,4.19-.28,5.33,1.2,1.67,3.56,3.08,5.59,3.35,1.19.16,3.79-2.03,3.88-3.3.35-4.75-.11-9.56-.18-14.35-.02-1.77,0-3.59.37-5.32,1.06-5.01,2.08-10.05,3.6-14.93.69-2.21,2.55-5.79,3.85-5.77,7.36.08,9.35-4.18,9.83-10.27.04-.53.39-1.04.78-2.02,1.49,3.14,2.8,5.92,4.16,8.77,2.27-.61,4.17-1.3,6.13-1.59,1.17-.17,3.32-.03,3.52.51,1.34,3.73,4.78,6.43,3.87,11.4-.68,3.75,1.09,7.97,1.92,11.95.33,1.59,1.5,3.08,1.54,4.64.18,6.33.08,12.68.08,19.48,4.07.8,8.77,2.08,13.54,2.49,2.36.2,4.85-1.21,7.29-1.9-1.51-1.69-2.87-3.55-4.57-5.03-1.93-1.68-4.88-2.48-3.48-6.17.26-.67-1.08-2.71-1.96-2.92-4.09-.95-3.76-3.94-3.94-7.01-.54-9.36-.45-18.85-2.17-28-1.4-7.43-3.78-14.87-8.82-21.19-4.39-5.51-8.75-11.46-5.59-19.34.1-.24.01-.58-.06-.85-2.07-7.5,3.47-11.31,6.55-15.29,5.76,3.03,10.7,6.12,16.04,8.17,2,.77,5.26-.29,7.34-1.53,2.33-1.39,3.83-4.09,5.95-5.92,3.11-2.69,4.9-6.86,9.78-7.74,1.62-.29,3.47-3.08,3.86-5,.24-1.19-1.9-3.09-3.29-4.31-1.02-.9-2.59-1.16-3.88-1.78-2.99-1.41-5.97-1-7.61,1.66-1.12,1.83-.81,4.54-1.14,6.86.37.08.73.17,1.09.25-5.4,9.38-12.09,10.39-17.87,4.08,4.63-4.86,2.38-10.82-6.74-15.29"/>
          <path class="cls-6" d="M122.71,35.08c9.12,4.48,11.37,10.43,6.74,15.29,5.78,6.31,12.47,5.3,17.87-4.08-.37-.08-.73-.17-1.09-.25.33-2.32.01-5.03,1.14-6.86,1.63-2.66,4.62-3.07,7.61-1.66,1.29.61,2.85.88,3.88,1.78,1.39,1.22,3.53,3.12,3.29,4.31-.39,1.92-2.24,4.71-3.86,5-4.88.87-6.66,5.04-9.78,7.74-2.12,1.83-3.62,4.54-5.95,5.92-2.08,1.24-5.34,2.3-7.34,1.53-5.33-2.06-10.27-5.14-16.04-8.17-3.08,3.98-8.62,7.79-6.55,15.29.07.27.16.61.06.85-3.16,7.89,1.2,13.83,5.59,19.34,5.03,6.31,7.42,13.76,8.82,21.19,1.72,9.15,1.63,18.64,2.17,28,.18,3.07-.16,6.06,3.94,7.01.88.2,2.21,2.24,1.96,2.92-1.4,3.69,1.55,4.49,3.48,6.17,1.7,1.48,3.06,3.34,4.57,5.03-2.43.68-4.93,2.1-7.29,1.9-4.77-.41-9.47-1.69-13.54-2.49,0-6.81.11-13.15-.08-19.48-.04-1.56-1.21-3.05-1.54-4.64-.83-3.98-2.61-8.2-1.92-11.95.91-4.97-2.54-7.67-3.87-11.4-.19-.54-2.35-.68-3.52-.51-1.96.29-3.86.97-6.13,1.59-1.35-2.85-2.67-5.63-4.16-8.77-.39.98-.74,1.49-.78,2.02-.48,6.09-2.47,10.35-9.83,10.27-1.3-.01-3.16,3.57-3.85,5.77-1.52,4.88-2.53,9.92-3.6,14.93-.37,1.72-.4,3.54-.37,5.32.07,4.79.53,9.59.18,14.35-.09,1.27-2.69,3.46-3.88,3.3-2.03-.27-4.39-1.69-5.59-3.35-.82-1.14-.33-3.68.28-5.33,2.34-6.3,3.17-12.65,2.28-19.37-.41-3.05-.56-6.81.84-9.31,5.46-9.76,2.72-20.3,3.89-30.45.81-7.03,1.86-14.1,3.65-20.94,1.88-7.16,3.38-14.25,3.4-21.69,0-3.52.72-7.13,1.67-10.55,2.45-8.79,4.26-10.19,13.41-9.24,4.2.44,6.37.02,5.84-4.75-.12-1.06.42-2.21.68-3.31.8-3.32,1.17-6.9,5.41-7.95,4.41-1.09,8.44-1.16,11.43,3.09.89,1.27,2.33,2.16,3.22,3.43.52.76.95,2.25.56,2.85-2.22,3.45-4.7,6.73-7.28,10.33"/>
          <path class="cls-2" d="M207.96,202.14s-42.3-34.85-102.96-34.85S2.04,202.14,2.04,202.14v-83.21h205.91v83.21Z"/>
          <path class="cls-6" d="M33.62,128.05c.62,0,.93,0,1.55,0,2.19,0,3.74.03,4.65.13.91.09,1.64.27,2.19.54.94.44,1.67,1.09,2.18,2.1.51,1.01.77,2.32.78,4.03,0,2.21-.42,4.35-1.28,6.2s-2.07,3.2-3.6,3.92c0,.75,0,1.13,0,1.89,1.69-.11,3.03.76,4.04,2.52,1,1.77,1.51,4.2,1.52,7.16,0,1.87-.19,3.55-.59,5.06-.4,1.51-.99,2.76-1.74,3.81-.6.84-1.34,1.54-2.25,2.12-.91.58-2.32,1.23-4.24,1.97-.97.37-1.46.56-2.43.95-8.54,3.37-12.83,5.27-21.45,9.39v-8.21c1.97-.8,2.96-1.19,4.93-1.96-.01-12.08-.02-24.16-.03-36.25-1.96.11-2.94.17-4.9.29v-5.55c8.27-.06,12.4-.08,20.66-.12M12.99,136.05c1.47-.12,2.21-.18,3.68-.29,0,2.16,0,3.36,0,5.89-1.47-2.34-2.21-3.49-3.68-5.6M13.27,181.79c9.65-4.79,14.45-6.97,24-10.77,1.68-.67,2.94-1.24,3.78-1.73.84-.49,1.58-1.06,2.21-1.71,1.17-1.18,2.08-2.66,2.75-4.62.66-1.96.99-4.14.98-6.58,0-2.63-.38-4.98-1.1-6.93-.72-1.95-1.75-3.37-3.07-4.23,1.12-1.38,1.98-3.01,2.57-4.83.6-1.82.89-3.69.88-5.51,0-1.33-.18-2.49-.52-3.49-.34-1-.85-1.86-1.53-2.57,1.07.94,1.6,1.51,2.67,2.78.59.69,1.01,1.47,1.28,2.33.26.86.4,1.91.4,3.2,0,1.66-.21,3.35-.66,5.03-.45,1.68-1.14,3.43-2.09,5.24.71,1.09,1.07,1.63,1.78,2.68.62.96,1.1,2.13,1.42,3.49.33,1.36.49,2.84.5,4.4,0,2.44-.39,4.7-1.19,6.78-.81,2.08-1.87,3.59-3.2,4.82-.88.8-1.99,1.51-3.33,2.21-1.34.7-3.49,1.64-6.43,2.91-1.08.46-1.62.7-2.69,1.18-6.1,2.7-9.16,4.17-15.3,7.32-1.65-.22-2.47-.5-4.11-1.37M31.83,132.72c-2.76.13-4.15.19-6.91.33.01,3.99.02,6.69.03,12.27,2.77-.46,4.15-.68,6.92-1.1,1.78-.27,3.02-.93,3.72-1.95.7-1.01,1.04-2.56,1.04-4.47,0-2.04-.38-3.32-1.13-4.09s-1.97-1.08-3.66-1M32.65,151.18c-3.07.67-4.61,1.01-7.68,1.74.01,5.83.02,8.89.03,14.08,3.08-1.13,4.62-1.67,7.69-2.71,1.75-.59,2.98-1.43,3.69-2.55s1.06-2.69,1.05-4.85c0-2.3-.38-3.93-1.13-4.85-.74-.92-1.96-1.22-3.65-.85M26.22,142.5c0-3.24-.01-4.78-.02-7.45,2.37-.16,3.56-.24,5.93-.39,1.09-.07,1.91.13,2.46.61.55.48.82,1.24.83,2.36,0,.29-.01.55-.04.77-.03.22-.07.43-.13.6-2.56.26-3.84.4-6.39.68,0,.96,0,1.45,0,2.45-1.06.14-1.58.21-2.64.36M26.27,164c0-3.26-.01-5.02-.02-8.53,2.68-.69,4.01-1.03,6.68-1.67,1.05-.25,1.86-.09,2.43.48s.86,1.46.86,2.68c0,.24-.01.46-.03.68-.02.22-.07.49-.13.81-2.86.81-4.28,1.23-7.15,2.11,0,1.04,0,1.56,0,2.57-1.06.35-1.59.53-2.64.88"/>
          <path class="cls-6" d="M50.83,144.77c-.03-8.04,1.16-12.67,3.58-14.78,2.42-2.11,6.35-2.51,11.79-2.51s9.36.52,11.8,2.4c2.44,1.88,3.66,5.58,3.67,11.73,0,6.13-1.19,10.68-3.61,13.52-2.41,2.84-6.33,4.57-11.75,5.93-5.43,1.36-9.36,1.6-11.79-.6-2.43-2.2-3.66-7.68-3.69-15.69M78.33,128.76c2.72,1.57,4.64,3.61,5.73,5.83,1.1,2.22,1.65,5.22,1.65,8.95,0,3.01-.37,5.77-1.11,8.16-.74,2.39-1.83,4.36-3.27,5.97-1.37,1.53-3.17,2.73-5.4,3.77-2.23,1.04-4.55,1.77-6.95,2.35-2.25.55-4.43.93-6.54.96-2.11.03-4.21-.28-6.3-1.47,1.5.27,3.08.27,4.72.09,1.64-.18,3.48-.55,5.52-1.08,5.67-1.45,9.84-3.21,12.51-6.29,2.67-3.08,4-7.98,4-14.51,0-3.47-.36-6.16-1.07-8.09-.71-1.93-1.87-3.48-3.49-4.64M59.01,143.69c.02,5.31.6,9.12,1.75,11.07,1.15,1.94,2.99,2.44,5.53,1.88,2.55-.56,4.39-1.85,5.53-4.04,1.13-2.19,1.7-5.7,1.68-10.39-.01-4.69-.59-7.67-1.74-9.35-1.15-1.68-3-2.35-5.55-2.33-2.54.02-4.37.72-5.51,2.58-1.14,1.86-1.7,5.27-1.68,10.59M64.57,155.21c-1.49-.13-2.58-1.04-3.27-2.87-.69-1.83-1.05-4.85-1.06-8.79-.01-4.53.46-7.54,1.41-9.26.96-1.72,2.48-2.43,4.57-2.46,1.54-.02,2.73.3,3.58,1.02.85.72,1.51,1.94,1.97,3.85-.93-.51-1.78-.89-2.54-1.13-.76-.24-1.45-.35-2.07-.33-1.49.06-2.55.65-3.18,1.9-.63,1.25-.93,3.44-.92,6.71,0,2.26.13,4.36.38,6.22.25,1.86.62,3.6,1.13,5.15"/>
          <path class="cls-6" d="M86.61,156.29c0-1.65,0-2.57,0-4.52,1.81-.21,2.72-.3,4.53-.47,3.49-4.17,5.23-6.4,8.73-10.33-3.52-3.91-5.29-6.01-8.81-9.34-1.79-.02-2.69-.03-4.47-.04,0-1.64,0-2.37,0-3.56,6.49.02,9.73.04,16.22.08v3.72c-1.03-.02-1.55-.04-2.58-.06,2.07,2.03,3.11,3.25,5.18,5.46,2.06-2.3,3.09-3.44,5.15-5.47-.97.02-1.46.03-2.43.05v-3.71c5.53-.03,8.29-.05,13.83-.07,0,1.2,0,1.93,0,3.56-1.74.01-2.6.02-4.34.04-3.44,3.32-5.17,5.39-8.61,9.28,3.47,3.92,5.21,6.13,8.68,10.27,1.71.15,2.57.23,4.28.42,0,1.93,0,2.85,0,4.49-6.43-.81-9.64-1.07-16.06-1.28v-4.32c1.07.03,1.61.05,2.69.1-2.06-2.3-3.09-3.46-5.15-5.75-2.03,2.34-3.05,3.56-5.07,5.91.96-.05,1.43-.08,2.39-.12,0,1.83,0,2.71,0,4.34-5.66.3-8.49.57-14.14,1.33M86.58,132.92c1.6,0,2.41,0,4.01.02,1.17,1.19,1.76,1.82,2.93,3.1-1.33,0-2,0-3.34,0-1.44-1.29-2.16-1.92-3.6-3.12M101.99,150.57c1.08.85,1.62,1.27,2.7,2.1v5.91c-5.65.06-8.47.23-14.11.83-1.59-.67-2.38-1.04-3.97-1.86,6.14-.84,9.22-1.13,15.38-1.39,0-2.04,0-3.19,0-5.59M101.45,149.17c.78-.87,1.17-1.3,1.94-2.17.76.83,1.14,1.22,1.89,2.07-1.54-.03-2.3.04-3.84.1M103.21,133.15c.33,0,.5.01.83.02v-5.06c1.14.8,1.71,1.23,2.84,2.1v2.94c.23,0,.34,0,.57-.01-.82.82-1.23,1.25-2.05,2.12-.88-.82-1.31-1.27-2.19-2.1M105.9,156.08c6.92.2,10.38.5,17.31,1.43,0-2,0-3.21,0-5.77,1.07,1.26,1.61,1.88,2.68,3.09,0,2.55,0,3.7,0,5.38-6.6-.98-9.9-1.29-16.49-1.55-1.4-.96-2.1-1.49-3.49-2.59M123.19,132.92c0-2.3,0-3.34,0-4.9,1.07.84,1.6,1.33,2.67,2.41,0,1.96,0,3.15,0,5.68-2.74-.05-4.1-.06-6.84-.07-2.47,2.76-3.7,4.25-6.17,7.08-.78-.89-1.17-1.33-1.95-2.19,2.89-3.29,4.34-5.01,7.23-7.97,2.02-.02,3.03-.03,5.05-.03"/>
          <path class="cls-6" d="M126.41,156.71c0-1.66,0-2.6,0-4.58,1.9.25,2.86.38,4.76.67,0-8.26-.01-14.44-.02-21.23-1.9,0-2.85,0-4.75,0,0-1.65,0-2.39,0-3.56,10.12-.03,20.24-.04,30.36-.02.01,2.71.02,5.6.03,11.68-2.72-.25-4.08-.37-6.8-.58,0-3.28,0-4.83-.02-7.31-4.66-.09-6.99-.13-11.64-.17,0,2.85,0,4.68.01,8.45,2.52.17,3.77.27,6.29.48,0,1.87,0,2.85,0,4.79-2.52-.32-3.77-.46-6.29-.73,0,3.87,0,5.9.01,9.4,4.66.85,6.99,1.34,11.66,2.43,0-3.3,0-5.18-.02-8.86,2.72.42,4.09.65,6.81,1.12.01,6.71.02,10.32.03,15.05-9.8-3.11-20.23-5.57-30.41-7.03M126.39,132.92c1.43,0,2.14,0,3.57.01,0,1.23,0,1.89,0,3.26-1.43-1.41-2.14-2.07-3.57-3.28M126.41,157.97c10.9,2.02,21.02,4.49,31.65,7.65-.01-4.8-.02-9.03-.04-16.71,1.08,2.11,1.62,3.19,2.7,5.35.01,7.66.02,11.55.04,14.83-9.66-3.55-20.11-6.41-30.26-8.13-1.64-1.09-2.46-1.7-4.09-2.99M139.55,133.06c3.69.07,5.54.12,9.23.23,0,1.38,0,2.14,0,3.72-2.61-.16-3.92-.23-6.53-.35,0,.74,0,1.12,0,1.89-1.08-.07-1.62-.1-2.71-.16,0-2.29,0-3.39,0-5.32M139.57,146.62c2.51.32,3.76.49,6.28.86,0-2.76,0-4.18-.01-6.85,1.16,1.51,1.74,2.3,2.9,3.94,0,3.05,0,4.64.01,7.6-2.59-.5-3.88-.74-6.46-1.17,0,.79,0,1.19,0,1.96-1.08-.2-1.62-.3-2.71-.49,0-2.25,0-3.45,0-5.85M149.97,141.01c3.22.31,4.83.48,8.04.85-.01-7.19-.02-10.78-.04-13.86,1.08.79,1.62,1.3,2.7,2.51.01,4.73.02,8.92.04,16.63-3.09-.51-4.64-.75-7.74-1.2-1.2-2.05-1.8-3.04-3.01-4.92"/>
          <path class="cls-6" d="M162.14,145.19c-.02-8.25,1.19-12.85,3.61-15.04,2.42-2.19,6.35-2.67,11.79-2.67s9.36.43,11.8,3.26c2.44,2.83,3.65,9.17,3.66,20.16,0,10.96-1.2,18.46-3.62,21.36-2.42,2.91-6.33,2.33-11.76.08-5.44-2.26-9.38-4.9-11.81-8.82-2.43-3.93-3.65-10.1-3.67-18.33M189.68,129.15c2.72,2.2,4.63,5.63,5.73,9.7,1.1,4.06,1.64,9.92,1.64,17.07,0,5.77-.37,10.9-1.11,14.79-.74,3.9-1.83,6.51-3.27,8-1.37,1.41-3.17,1.74-5.4,1.41-2.23-.33-4.55-1.23-6.96-2.35-2.25-1.05-4.44-2.25-6.55-3.79-2.11-1.54-4.21-3.49-6.31-6.26,1.51,1.34,3.08,2.48,4.73,3.48,1.65,1,3.49,1.92,5.53,2.8,5.68,2.44,9.85,3.33,12.52.28,2.67-3.05,4.01-11.27,4-23.18,0-6.33-.36-11.21-1.06-14.54-.71-3.33-1.87-5.78-3.49-7.4M170.33,146.49c.01,6.35.59,11.16,1.74,14.19,1.15,3.04,2.99,4.89,5.54,5.81,2.56.92,4.4.37,5.54-2.23,1.14-2.59,1.7-7.8,1.69-15.09,0-7.28-.59-11.93-1.74-14.45-1.15-2.52-3-3.45-5.55-3.53-2.54-.08-4.38.72-5.52,2.86-1.14,2.15-1.71,6.07-1.7,12.43M175.88,163.51c-1.49-1.09-2.58-2.88-3.28-5.52-.69-2.64-1.04-6.46-1.05-11.28,0-5.54.46-9.08,1.43-11.09.96-2.01,2.48-2.81,4.57-2.71,1.54.07,2.73.58,3.58,1.65.85,1.08,1.51,2.9,1.97,5.81-.93-.93-1.78-1.6-2.54-2.06-.76-.46-1.46-.71-2.08-.76-1.49-.14-2.55.51-3.18,2.01-.63,1.5-.94,4.23-.93,8.44,0,2.9.13,5.67.38,8.19.24,2.52.62,4.99,1.13,7.33"/>
        </g>
      </g>
    </g>
  </g>
</svg>