<svg width="73" height="39" viewBox="0 0 73 39" fill="none" xmlns="http://www.w3.org/2000/svg">
<g clip-path="url(#clip0_1_2)">
<path d="M2.91 33.93C2.59 34.56 6.79 30.67 24.32 25.54C31.26 23.51 35.34 22.84 42.53 22.09L49.73 13.94C36.87 15.5 30.78 17.14 19.41 21.85C14.15 24.03 5.26 29.37 2.91 33.93Z" fill="#C1C6C9"/>
<path d="M3.33 30.34C0.709999 32.64 -0.920001 35.46 0.559999 37.06C3.84 40.59 45.11 37.5 63.12 37.4L72.6 28.52C53.18 31.14 52.38 31.18 39.4 32.39C24.62 33.75 3.5 37.06 1.41 34.86C0.679999 34.09 2.36 31.79 3.33 30.34Z" fill="#0066B3"/>
<path d="M5.39 27.82C12.25 22.43 16.59 19.84 24.57 16.31C31.42 13.3 35.53 11.98 42.87 10.49L51.69 0C41.86 2.4 34.38 4.81 24.81 10.82C16.28 16.17 11.82 20.07 5.39 27.82Z" fill="#EE2A27"/>
</g>
<defs>
<clipPath id="clip0_1_2">
<rect width="72.6" height="38.75" fill="white"/>
</clipPath>
</defs>
</svg>
