<svg width="165" height="40" viewBox="0 0 165 40" fill="none" xmlns="http://www.w3.org/2000/svg">
<path d="M9.88 11.45C10.36 11.45 11.07 11.43 12.01 11.39C12.95 11.35 13.66 11.33 14.14 11.33C16.08 11.33 17.56 11.37 18.58 11.45C20.87 11.64 22.69 12.01 24.04 12.59C25.39 13.16 26.49 14.05 27.33 15.27C28.62 17.12 29.27 19.26 29.27 21.71C29.27 22.7 29.19 23.64 29.02 24.53C28.19 29.09 25.91 32.8 22.2 35.65C19.18 37.98 15.49 39.14 11.13 39.14C8.21 39.14 6.02 39.12 4.57 39.08C4.37 39.04 4.03 39.02 3.56 39.02C2.78 39.02 1.59 39.06 0 39.14C1.19 33.85 2.13 29.12 2.86 24.95C3.08 23.81 3.34 22.44 3.64 20.83C3.7 20.49 3.97 18.52 4.45 14.9C4.52 14.33 4.67 13.14 4.89 11.33C7.13 11.41 8.79 11.45 9.88 11.45ZM9.75 36.75C11.75 36.75 13.42 36.5 14.76 36C16.15 35.48 17.46 34.5 18.7 33.07C20.61 30.87 21.86 27.99 22.44 24.44C22.61 23.39 22.7 22.55 22.7 21.89C22.7 19.58 22.22 17.75 21.26 16.38C19.97 14.55 17.55 13.63 13.99 13.63C14.22 13.63 13.24 13.69 11.03 13.82C10.02 18.6 8.75 25.37 7.21 34.13C7.17 34.36 7.11 34.73 7.04 35.23L6.79 36.7C7.46 36.73 8.45 36.75 9.74 36.75" fill="#0066B3"/>
<path d="M41.97 16.78C41.58 18.54 41.02 21.18 40.31 24.71C40.15 25.64 39.92 27.17 39.62 29.3L39.06 33.14C38.92 34.47 38.67 36.47 38.31 39.14C36.23 39.02 35.19 38.96 35.18 38.96C33.92 38.96 32.69 39.03 31.5 39.14C32.59 35.02 33.65 30.04 34.69 24.2C34.75 23.8 34.87 23.07 35.05 22.02C35.13 21.57 35.26 20.82 35.43 19.76C35.54 19.14 35.71 18.16 35.93 16.83C36.21 14.83 36.42 12.99 36.55 11.33C38.13 11.5 39.23 11.58 39.86 11.58C40.49 11.58 41.58 11.5 43.17 11.33C42.56 13.9 42.15 15.72 41.96 16.78" fill="#0066B3"/>
<path d="M60.12 17.31C59.96 18.15 59.73 19.34 59.43 20.85C59.14 22.31 58.72 24.51 58.18 27.44L57.69 30.43C57.53 31.41 57.4 32.14 57.31 32.63C57.13 34.08 56.81 36.24 56.37 39.13C54.58 39.01 53.49 38.95 53.13 38.95C52.77 38.95 52.23 38.98 51.45 39.03L49.76 39.13C49.89 38.48 50.11 37.55 50.4 36.32C50.53 35.76 50.73 34.78 51.01 33.37L53.7 19.56C53.92 18.32 54.19 16.6 54.51 14.39C53.25 14.39 52.04 14.43 50.89 14.51C50 14.57 48.67 14.71 46.89 14.93C47.28 14.1 47.51 13.06 47.58 11.81C47.58 11.69 47.56 11.52 47.52 11.31C48.35 11.36 49.37 11.4 50.57 11.43C54.21 11.54 56.67 11.59 57.96 11.59H62.14C62.84 11.59 63.89 11.54 65.3 11.45C66.7 11.36 67.76 11.31 68.46 11.31C68.22 12.03 68.07 12.57 68.01 12.94C67.89 13.71 67.83 14.38 67.83 14.94C65.48 14.58 63.11 14.4 60.75 14.4L60.12 17.31Z" fill="#0066B3"/>
<path d="M75.95 11.45C76.52 11.45 77.37 11.43 78.51 11.39C79.65 11.35 80.5 11.33 81.07 11.33C83.15 11.33 84.61 11.42 85.43 11.59C88.43 12.22 89.93 14.05 89.93 17.08C89.93 17.45 89.89 17.87 89.81 18.33C89.37 20.83 88.29 22.83 86.56 24.32C85.09 25.6 83.05 26.46 80.44 26.88C79.36 26.91 77.75 27 75.62 27.14C75.45 28.24 75.16 30.11 74.75 32.75C74.4 35.1 74.11 37.23 73.88 39.13C71.62 39.01 70.51 38.94 70.55 38.94C70.2 38.94 69.64 38.97 68.87 39.02L67.18 39.12C67.29 38.65 67.46 37.95 67.68 37C67.95 35.93 68.31 34.45 68.75 32.56C68.91 31.55 69.26 29.49 69.81 26.37C69.95 25.59 70.14 24.45 70.39 22.96L71.06 18.93C71.29 17.46 71.48 16.32 71.63 15.51C71.89 13.99 72.07 12.6 72.18 11.32C73.01 11.4 74.26 11.44 75.93 11.44M77.2 18.51C77.07 19.15 76.85 20.3 76.56 21.95C76.46 22.6 76.26 23.58 75.98 24.88C77.35 24.79 78.27 24.69 78.73 24.58C81.14 23.97 82.62 22.14 83.17 19.07C83.29 18.39 83.35 17.8 83.35 17.31C83.35 16.07 82.96 15.07 82.16 14.32C81.67 13.86 80.35 13.63 78.18 13.63L77.19 18.5L77.2 18.51Z" fill="#0066B3"/>
<path d="M95.01 33.93C94.69 34.56 98.89 30.67 116.42 25.54C123.36 23.51 127.44 22.84 134.63 22.09L141.83 13.94C128.97 15.5 122.88 17.14 111.51 21.85C106.25 24.03 97.36 29.37 95.01 33.93Z" fill="#C1C6C9"/>
<path d="M95.44 30.34C92.82 32.64 91.19 35.46 92.67 37.06C95.95 40.59 137.22 37.5 155.23 37.4L164.71 28.52C145.29 31.14 144.49 31.18 131.51 32.39C116.73 33.75 95.61 37.06 93.52 34.86C92.79 34.09 94.47 31.79 95.44 30.34Z" fill="#0066B3"/>
<path d="M97.49 27.82C104.35 22.43 108.69 19.84 116.67 16.31C123.52 13.3 127.63 11.98 134.97 10.49L143.8 0C133.97 2.4 126.49 4.81 116.92 10.82C108.39 16.17 103.93 20.07 97.5 27.82" fill="#EE2A27"/>
</svg>
