<?xml version="1.0" encoding="UTF-8"?>
<svg id="Layer_2" data-name="Layer 2" xmlns="http://www.w3.org/2000/svg" xmlns:xlink="http://www.w3.org/1999/xlink" viewBox="0 0 210 210">
  <defs>
    <style>
      .cls-1 {
        fill: #a90411;
      }

      .cls-1, .cls-2 {
        fill-rule: evenodd;
      }

      .cls-1, .cls-2, .cls-3, .cls-4, .cls-5, .cls-6 {
        stroke-width: 0px;
      }

      .cls-2, .cls-4 {
        fill: #01095a;
      }

      .cls-7 {
        clip-path: url(#clippath-2);
      }

      .cls-3 {
        fill: none;
      }

      .cls-8 {
        clip-path: url(#clippath-1);
      }

      .cls-9 {
        clip-path: url(#clippath);
      }

      .cls-5 {
        fill: url(#radial-gradient);
      }

      .cls-10 {
        clip-path: url(#clippath-3);
      }

      .cls-6 {
        fill: #fff;
      }
    </style>
    <clipPath id="clippath">
      <rect class="cls-3" width="210" height="210"/>
    </clipPath>
    <clipPath id="clippath-1">
      <rect class="cls-3" width="210" height="210"/>
    </clipPath>
    <clipPath id="clippath-2">
      <polygon class="cls-3" points="103.91 74.1 100.91 46.85 101.73 74.25 96.84 47.28 99.57 74.55 92.81 47.99 97.44 75.01 88.84 48.98 95.34 75.61 84.95 50.24 93.29 76.36 81.15 51.77 91.3 77.24 77.47 53.57 89.37 78.27 73.93 55.61 87.52 79.42 70.54 57.9 85.76 80.7 67.31 60.42 84.09 82.11 64.27 63.16 82.52 83.62 61.43 66.1 81.06 85.24 58.79 69.24 79.72 86.96 56.39 72.55 78.5 88.77 54.22 76.02 77.4 90.66 52.3 79.63 76.45 92.62 50.63 83.37 75.63 94.64 49.24 87.21 74.96 96.71 48.11 91.14 74.43 98.83 47.26 95.15 74.05 100.98 46.69 99.2 73.82 103.15 46.4 103.28 73.75 105.33 46.4 107.37 73.82 107.51 46.69 111.45 74.05 109.68 47.26 115.51 74.43 111.82 48.11 119.51 74.96 113.94 49.24 123.44 75.63 116.01 50.63 127.29 76.45 118.04 52.3 131.03 77.4 120 54.22 134.64 78.5 121.89 56.39 138.11 79.72 123.69 58.79 141.42 81.06 125.41 61.43 144.55 82.52 127.03 64.27 147.5 84.09 128.55 67.31 150.23 85.76 129.95 70.54 152.75 87.52 131.23 73.93 155.04 89.37 132.39 77.47 157.09 91.3 133.41 81.15 158.88 93.29 134.3 84.95 160.41 95.34 135.04 88.84 161.68 97.44 135.64 92.81 162.67 99.57 136.1 96.84 163.38 101.73 136.4 100.91 163.81 103.91 136.56 105 163.95 106.09 136.56 109.09 163.81 108.27 136.4 113.16 163.38 110.43 136.1 117.19 162.67 112.56 135.64 121.16 161.68 114.66 135.04 125.06 160.41 116.71 134.3 128.85 158.88 118.7 133.41 132.53 157.09 120.63 132.39 136.07 155.04 122.48 131.23 139.46 152.75 124.24 129.95 142.69 150.23 125.91 128.55 145.73 147.5 127.48 127.03 148.57 144.55 128.94 125.41 151.21 141.42 130.29 123.69 153.61 138.11 131.5 121.89 155.78 134.64 132.6 120 157.7 131.03 133.55 118.04 159.37 127.29 134.37 116.01 160.77 123.44 135.04 113.94 161.89 119.51 135.57 111.82 162.74 115.51 135.95 109.68 163.31 111.45 136.18 107.51 163.6 107.37 136.25 105.33 163.6 103.28 136.18 103.15 163.31 99.2 135.95 100.98 162.74 95.15 135.57 98.83 161.89 91.14 135.04 96.71 160.77 87.21 134.37 94.64 159.37 83.37 133.55 92.62 157.7 79.63 132.6 90.66 155.78 76.02 131.5 88.77 153.61 72.55 130.29 86.96 151.21 69.24 128.94 85.24 148.57 66.1 127.48 83.62 145.73 63.16 125.91 82.11 142.69 60.42 124.24 80.71 139.46 57.9 122.48 79.42 136.07 55.61 120.63 78.27 132.53 53.57 118.7 77.24 128.85 51.77 116.71 76.36 125.06 50.24 114.66 75.61 121.16 48.98 112.56 75.01 117.19 47.99 110.43 74.55 113.16 47.28 108.27 74.25 109.09 46.85 106.09 74.1 105 46.71 103.91 74.1"/>
    </clipPath>
    <radialGradient id="radial-gradient" cx="-741.61" cy="-668.06" fx="-741.61" fy="-668.06" r="1" gradientTransform="translate(44516.76 -39902.09) scale(59.89 -59.89)" gradientUnits="userSpaceOnUse">
      <stop offset="0" stop-color="#ff5834"/>
      <stop offset=".07" stop-color="#ff5834"/>
      <stop offset=".68" stop-color="#d61622"/>
      <stop offset="1" stop-color="#d61622"/>
    </radialGradient>
    <clipPath id="clippath-3">
      <rect class="cls-3" width="210" height="210"/>
    </clipPath>
  </defs>
  <g id="Layer_2-2" data-name="Layer 2">
    <g id="Kick_Boxing_Logo" data-name="Kick Boxing Logo">
      <g class="cls-9">
        <g class="cls-8">
          <path class="cls-4" d="M161.03,49.3c-6.89-6.89-14.83-12.36-23.46-16.25.73-3.13.48-6.27.25-9.01-.05-.58-.1-1.17-.13-1.75-.02-.31-.06-.61-.12-.91-.12-.59-.3-1.15-.55-1.68-.25-.53-.55-1.02-.91-1.48-.53-.69-1.18-1.29-1.9-1.82-.48-.35-1-.65-1.53-.92-1.02-.51-2.13-.86-3.24-1.06-.65-.11-1.29-.18-1.93-.18-.1,0-.21,0-.31,0-.43.01-.85.05-1.26.1-.55.06-1.09.15-1.59.28-.04.01-.08.01-.11.03-1.67.43-3.06,1.18-4.16,2.22-.19.18-.38.38-.55.58-.28.32-.53.65-.76,1.01-.14.24-.28.48-.4.73-.24.5-.44,1.04-.6,1.62s-.26,1.18-.31,1.81c-.13,1.48-.25,2.95-.38,4.38-3.96-.6-7.99-.91-12.07-.91-21.17,0-41.06,8.24-56.03,23.21-14.97,14.97-23.21,34.86-23.21,56.03s8.24,41.06,23.21,56.03c14.97,14.97,34.86,23.21,56.03,23.21s41.06-8.24,56.03-23.21c14.97-14.97,23.21-34.87,23.21-56.03s-8.24-41.06-23.21-56.03M144.13,44.59c-.52.34-1.04.69-1.54,1.05-3.54,2.54-.32,8.57-.28,8.63.41.76.3,1.35.15,1.73-.03.06-.06.12-.09.18-1.53-1.38-2.98-2.69-4.38-4.03-.04-.08-.13-.25-.27-.64-.34-.96-.65-1.93-.98-2.96-.69-2.18-1.4-4.42-2.49-6.6-.36-.72-.69-1.67-.25-2.15.15-.16.27-.32.41-.48,3.39,1.51,6.64,3.27,9.73,5.27M105,177.57c-39.9,0-72.24-32.34-72.24-72.24S65.1,33.09,105,33.09c1.68,0,3.34.06,4.99.17-.04.04-.09.07-.12.12-.33.34-.65.68-.98,1.02-2.97,3.11-5.31,5.57-8.97,6.04-1.01.13-1.97.63-2.84,1.49-.55.55-.85.55-1.01.55-.21,0-.58-.05-1.17-.29-.58-.24-1.16-.42-1.75-.54-.11-.02-.23-.03-.34-.05-.47-.08-.95-.13-1.42-.13-.06,0-.11,0-.17,0-2.57.05-5.01,1.22-7.25,3.49-.45.46-1.06,1.08-1.68,1.84-1.87,2.27-3.89,5.79-2.4,10.14,1.04,3.02,4.36,5.38,6.98,5.91.43.09.88.13,1.34.13,2.24,0,4.42-1.03,6.44-2.15,1.68-.92,3.35-1.87,5.01-2.83,1.66-.95,3.31-1.91,4.92-2.86.85-.49,1.71-.99,2.57-1.5.08.69.25,1.39.54,2.09.66,1.58.82,2.8.48,3.63-.41,1-1.78,2-4.06,2.94-.91.38-2.24,1.02-3.24,2.19-.68.8-1.14,1.62-1.63,2.5,0,0,0,.01-.01.02-.24.07-.5.15-.75.23-1.87.56-4.19,1.27-6.37,2.37-2.52,1.27-4.95,2.7-7.3,4.09-2.2,1.29-4.27,2.51-6.42,3.62-5.82,3.01-12.17,5.85-19.16,6.32-9.73.64-10.98,7.15-10.93,13.44,0,1.03.48,2.01,1.27,2.67.63.52,1.42.8,2.23.8.21,0,.43-.02.64-.06.91-.17,1.84-.32,2.74-.46,2.1-.34,4.27-.68,6.41-1.31.47-.14.94-.27,1.41-.41,5.12-1.48,10.41-3.01,15.02-6.79.17-.05.46-.1.66-.14.42-.08.89-.18,1.4-.33,6.6-2.01,13.2-4.01,19.7-5.99l2.79-.85.08.16c1.86,3.75,3.78,7.61,5.7,11.51.03.21.06.48.14.8.29,1.23.51,2.51.74,3.87.57,3.3,1.16,6.72,2.8,9.85,2.19,4.18,1.94,8.07.83,13.01-.02.08-.04.15-.06.23-.11.39-.28.97-.31,1.68-.04.93-.12,1.88-.2,2.89-.22,2.53-.44,5.15,0,7.85.21,1.29.45,2.58.68,3.83,1.01,5.49,1.96,10.68.8,15.87-.41,1.84-.72,4.23.64,6.34,1.34,2.07,3.63,2.81,5.47,3.23l.78.17c3.07.69,6.25,1.41,9.5,1.78.42.05.84.07,1.25.07,3.5,0,6.22-1.83,7.47-5.02.26-.67.31-1.39.15-2.08-.05-.23-.13-.45-.23-.67-.3-.65-.79-1.19-1.4-1.54-.2-.12-.42-.22-.65-.3-.8-.27-1.57-.47-2.31-.67-1.16-.3-2.25-.59-2.82-1-3.49-2.57-4.92-6.38-4.04-10.74.76-3.77.92-7.55,1.08-11.2.22-5.28.43-10.26,2.4-14.84.28-.66.4-1.4.36-2.21-.14-2.67-.28-5.33-.42-7.99-.37-6.86-.75-13.96-1.01-20.93-.05-1.32.43-2.98.89-4.58l.08-.27c.53-1.83,1.15-3.63,1.81-5.53.35-1,.69-1.99,1.02-3,.48-1.45.96-2.91,1.45-4.43.27.31.54.61.81.92,1.54,1.69,3.41,2.71,5.35,2.94.28.03.55.05.83.05.55,0,1.09-.06,1.62-.19.53-.12,1.04-.31,1.53-.55.25-.12.49-.26.72-.41.47-.3.92-.66,1.34-1.07.21-.21.41-.42.61-.66.63-.75,1.13-1.55,1.57-2.25,1.21-1.91,1.48-2.09,2.2-2.1,2.03-.02,3.09-1.59,3.44-2.11l.05-.08c.48-.68.96-1.35,1.44-2.03,1.05-1.45,2.12-2.94,3.11-4.51,10.83,12.63,17.38,29.05,17.38,46.99,0,39.9-32.34,72.24-72.24,72.24"/>
          <path class="cls-1" d="M177.24,105.33c0-39.9-32.34-72.24-72.24-72.24S32.76,65.43,32.76,105.33s32.34,72.24,72.24,72.24,72.24-32.34,72.24-72.24"/>
        </g>
        <g class="cls-7">
          <rect class="cls-5" x="46.4" y="46.71" width="117.2" height="117.24"/>
        </g>
        <g class="cls-10">
          <path class="cls-6" d="M104.38,80.02c2.31,4.65,4.79,9.62,7.24,14.61.18.38.17.85.27,1.27,1.01,4.33,1.23,9.08,3.23,12.89,2.75,5.24,2.33,10.16,1.14,15.4-.1.43-.27.85-.29,1.28-.14,3.35-.78,6.79-.25,10.03,1.14,6.99,3.05,13.86,1.43,21.03-.76,3.37.05,4.61,3.47,5.38,3.28.74,6.58,1.51,9.91,1.9,2.02.23,4.1-.28,5.06-2.74-2.15-.73-4.46-.97-6.08-2.17-4.75-3.5-6.51-8.73-5.4-14.25,1.79-8.85.02-18.17,3.69-26.72.08-.19.1-.43.08-.65-.5-9.66-1.08-19.31-1.44-28.97-.07-1.97.55-4.02,1.11-5.95.84-2.92,1.92-5.77,2.88-8.65,1.07-3.24,2.12-6.49,3.42-10.47,2.1,2.52,3.36,4.17,4.75,5.7,2.17,2.38,4.85,2.47,6.74.22,1.85-2.21,2.66-5.56,6.42-5.6.22,0,.48-.43.66-.69,1.82-2.6,3.77-5.12,5.35-7.85.53-.92.61-2.92,0-3.53-2.12-2.13-4.4-4.56-7.09-5.49-1.6-.56-4.28,1.22-6.08,2.51-.5.36.09,2.89.75,4.11,1.78,3.28.06,6.98-3.45,7.91-2.3-2.09-4.42-3.95-6.45-5.9-.5-.48-.82-1.23-1.06-1.91-1.1-3.06-1.86-6.29-3.3-9.18-1.15-2.3-1.17-4.49.31-6.09,4.14-4.48,3.11-9.75,2.77-14.91-.18-2.7-3.62-4.86-6.9-4.77-3.87.11-6.07,1.91-6.35,5.17s-.56,6.52-.79,9.18c-2.86,1.3-5.98,1.86-7.77,3.71-3.5,3.62-6.63,7.41-12.01,8.1-.3.04-.6.29-.83.51-1.76,1.74-3.69,1.94-5.97,1-2.79-1.15-5.15.01-7.1,2-2.28,2.32-4.42,5.04-3.27,8.39.54,1.58,2.69,3.27,4.37,3.61,1.63.33,3.75-.74,5.4-1.65,5.47-3.01,10.83-6.25,16.26-9.34.46-.26,1.17-.09,1.6-.11,0,2.21-.59,4.41.1,6.07,2.53,6.03-.36,9.04-5.46,11.16-.7.29-1.44.68-1.92,1.23-.68.8-1.13,1.79-1.95,3.17-2.18.75-5.21,1.44-7.9,2.8-4.67,2.36-9.05,5.3-13.7,7.7-6.46,3.34-13.08,6.21-20.53,6.7-5.82.39-7.72,2.83-7.66,9.92,3.03-.56,6-.87,8.81-1.69,5.38-1.58,10.88-2.93,15.36-6.68.77-.64,2.06-.66,3.1-.98,8.52-2.59,17.03-5.18,25.32-7.7"/>
          <path class="cls-6" d="M104.38,80.02c-8.29,2.52-16.81,5.11-25.32,7.7-1.04.32-2.33.34-3.1.98-4.48,3.75-9.98,5.1-15.36,6.68-2.82.83-5.78,1.13-8.81,1.69-.06-7.08,1.84-9.53,7.66-9.92,7.45-.49,14.07-3.36,20.53-6.7,4.65-2.4,9.03-5.34,13.7-7.7,2.69-1.36,5.72-2.05,7.9-2.8.83-1.37,1.27-2.37,1.95-3.17.47-.56,1.22-.94,1.92-1.23,5.1-2.12,7.99-5.13,5.46-11.16-.69-1.66-.1-3.86-.1-6.07-.43.02-1.14-.15-1.6.11-5.43,3.09-10.78,6.33-16.26,9.34-1.65.91-3.77,1.98-5.4,1.65-1.68-.34-3.83-2.03-4.37-3.61-1.15-3.35.99-6.07,3.27-8.39,1.95-1.99,4.31-3.15,7.1-2,2.29.94,4.21.74,5.97-1,.23-.23.53-.48.83-.51,5.38-.69,8.52-4.48,12.01-8.1,1.79-1.85,4.91-2.41,7.77-3.71.23-2.66.51-5.92.79-9.18s2.48-5.05,6.35-5.17c3.29-.1,6.72,2.06,6.9,4.77.34,5.16,1.37,10.43-2.77,14.91-1.48,1.6-1.46,3.79-.31,6.09,1.44,2.89,2.2,6.12,3.3,9.18.24.68.56,1.43,1.06,1.91,2.03,1.96,4.16,3.82,6.45,5.9,3.51-.93,5.23-4.63,3.45-7.91-.66-1.22-1.25-3.75-.75-4.11,1.8-1.29,4.48-3.06,6.08-2.51,2.69.93,4.97,3.36,7.09,5.49.61.61.52,2.61,0,3.53-1.58,2.74-3.53,5.26-5.35,7.85-.19.26-.44.69-.66.69-3.75.04-4.57,3.39-6.42,5.6-1.88,2.25-4.57,2.16-6.74-.22-1.39-1.53-2.66-3.17-4.75-5.7-1.3,3.98-2.35,7.23-3.42,10.47-.96,2.89-2.03,5.74-2.88,8.65-.56,1.94-1.18,3.98-1.11,5.95.36,9.66.94,19.31,1.44,28.97.01.22,0,.45-.08.65-3.67,8.56-1.9,17.87-3.69,26.72-1.12,5.52.64,10.75,5.4,14.25,1.62,1.19,3.94,1.44,6.08,2.17-.97,2.46-3.04,2.98-5.06,2.74-3.33-.39-6.63-1.16-9.91-1.9-3.42-.77-4.23-2.01-3.47-5.38,1.61-7.17-.29-14.04-1.43-21.03-.53-3.24.11-6.68.25-10.03.02-.43.19-.85.29-1.28,1.18-5.24,1.6-10.17-1.14-15.4-2-3.81-2.22-8.56-3.23-12.89-.1-.42-.08-.89-.27-1.27-2.45-4.99-4.93-9.96-7.24-14.61"/>
          <path class="cls-2" d="M207.96,202.14s-42.3-34.85-102.96-34.85S2.04,202.14,2.04,202.14v-83.21h205.91v83.21Z"/>
          <path class="cls-6" d="M12.95,179.86v-8.12c.98-.4,1.48-.6,2.46-.99,0-12.38-.01-24.75-.02-37.13-.98.06-1.46.09-2.44.15v-5.57c3.11-.02,4.66-.03,7.77-.05,0,1.48,0,2.57.01,5.17-.72.04-1.08.06-1.79.1,0,5.49.01,9.53.02,17.45,2.23-8.4,3.34-12.42,5.56-17.75-.45.02-.68.04-1.13.06,0-2.54,0-3.61-.01-5.05,2.69-.02,4.04-.02,6.74-.04,0,1.36.01,2.36.02,4.75-.76.04-1.14.05-1.89.09-1.98,4.78-2.97,8.28-4.96,15.69.48-.09.72-.14,1.2-.23.65-.13,1.2.41,1.65,1.61.45,1.2.81,3.07,1.08,5.59.36,3.25.54,4.86.89,7.83.09.74.22,1.31.4,1.72.18.4.37.56.57.49.6-.21.9-.31,1.49-.52,0,3.07.01,4.51.02,6.9-1.54.63-2.31.96-3.85,1.61-.45.19-.81.09-1.08-.34-.28-.43-.51-1.26-.71-2.61-.51-3.58-.77-5.74-1.28-10.21-.19-1.66-.43-2.82-.72-3.44-.29-.61-.75-.84-1.39-.67-1.04.28-1.56.42-2.6.7,0,5.13,0,7.74.01,12.31.97-.38,1.46-.56,2.43-.93,0,3.34,0,4.91.01,7.51-3.38,1.51-5.07,2.3-8.47,3.92M12.95,136.11c.74-.06,1.11-.09,1.85-.15,0,2.2,0,3.42,0,6-.74-2.47-1.11-3.67-1.85-5.85M12.95,181.96c3.65-1.82,5.46-2.69,9.09-4.37,0-3-.01-5.02-.02-9.4.55,1.38.82,2.03,1.36,3.23.01,4.54.01,6.5.02,8.74-3.43,1.67-5.15,2.54-8.59,4.34-.75-.69-1.12-1.22-1.86-2.54M19.56,145.05c0-4.14,0-6.13-.01-9.46.72-.06,1.09-.08,1.81-.14,0-3.77-.01-5.37-.02-7.31.55.9.82,1.47,1.36,2.78,0,1.53,0,2.44.01,4.43-1.26,3.33-1.89,5.35-3.15,9.7M19.59,166.36c0-2.54,0-3.88,0-6.58.95-.28,1.43-.42,2.38-.7.29-.09.52.1.69.55.17.45.32,1.26.45,2.4.14,1.22.21,1.82.34,2.98-1.54.54-2.31.81-3.86,1.36M24.99,145.68c1.4-4.85,2.1-7.11,3.49-10.73.92-.06,1.38-.09,2.3-.15-.01-3.46-.02-4.93-.03-6.7.55.92.82,1.52,1.36,2.91.01,2.76.02,4.62.03,8.68-1.3.14-1.95.21-3.24.36-.93,2.94-1.39,4.56-2.32,7.94-.22-.63-.46-1.13-.72-1.51-.26-.38-.55-.64-.87-.8M31.23,173.56c-.01-2.76-.02-4.63-.03-8.68.55,1.55.82,2.28,1.36,3.59.01,3.83.02,5.48.03,7.41-1.46.65-2.19.98-3.65,1.65-.47.22-.89.32-1.26.28-.37-.04-.69-.22-.97-.62-.49-.68-.73-1.1-1.22-2.06.16.26.31.42.46.5.15.08.32.07.51-.01.11-.05.17-.08.29-.13,1.79-.79,2.68-1.18,4.46-1.94M27.47,152.14c.82,2.82,1.24,4.23,2.06,6.87.19.62.33,1.21.43,1.76.1.55.18,1.19.25,1.91-.46.16-.69.25-1.15.41-.09.03-.16-.04-.22-.22-.06-.17-.12-.53-.19-1.07-.47-3.68-.7-5.7-1.17-9.67"/>
          <path class="cls-6" d="M38.86,162.34c.99-.31,1.48-.47,2.46-.77.01,2.78.02,4.08.03,6.25-3.4,1.24-5.1,1.89-8.51,3.26,0-2.34-.01-3.75-.02-6.76.98-.33,1.48-.5,2.46-.83-.03-10.3-.06-20.59-.1-30.89-.98.04-1.47.06-2.45.11,0-2.33-.01-3.31-.02-4.64,3.4-.02,5.09-.02,8.49-.04.01,1.25.02,2.16.03,4.32-.98.04-1.48.06-2.46.1.04,9.96.07,19.92.1,29.87M34.61,139.25c-.75-1.93-1.12-2.87-1.87-4.58.74-.05,1.12-.07,1.86-.12,0,1.73,0,2.69.02,4.7M34.82,174.91c-.79-.57-1.18-1-1.97-2.08,3.65-1.52,5.47-2.25,9.1-3.61-.01-2.51-.02-4.19-.03-7.84.55,1.15.83,1.69,1.38,2.69.02,3.79.02,5.43.04,7.33-3.4,1.33-5.11,2.03-8.52,3.51M39.46,159.85c-.03-10.12-.05-17.28-.09-25.57.98-.06,1.47-.08,2.45-.13-.01-3.13-.02-4.46-.03-6.1.55.78.83,1.28,1.38,2.42.01,2.5.02,4.22.03,7.95-.98.09-1.47.13-2.45.23.03,7.62.04,12.81.07,20.81-.55.16-.82.24-1.37.4"/>
          <path class="cls-6" d="M58.88,149.42c-.25,5.51-.96,9.22-2.11,11.53-1.16,2.31-2.91,3.62-5.25,4.39-2.71.88-4.69.51-5.94-2.25-1.25-2.76-1.89-8.75-1.92-17.2-.03-7.68.53-12.72,1.67-15.35,1.14-2.62,2.73-3.07,4.76-3.07,1.03,0,1.97.17,2.83.62.86.45,1.59,1.16,2.17,2.34,0-1.15,0-1.65-.02-2.43,1.31,0,1.96,0,3.27,0,.02,2.41.03,4.75.05,9.82-1.26.09-1.89.14-3.14.23-.28-2.42-.76-4.07-1.43-5.17-.67-1.09-1.49-1.56-2.44-1.53-1.27.03-2.2.83-2.78,2.91-.58,2.08-.86,5.78-.84,11.43.02,5.71.33,9.84.92,12.07.59,2.23,1.53,2.98,2.81,2.62,1.05-.3,1.84-1.21,2.37-2.84.53-1.63.82-4.05.85-7.38,1.67-.31,2.5-.46,4.17-.76M59.49,149.32c.57,1.1.85,1.65,1.42,2.69-.18,5.71-.98,9.61-2.41,12.13-1.43,2.52-3.29,3.58-5.59,4.36-1.18.4-2.29.6-3.33.41-1.04-.2-2.09-.82-3.17-2.47.77.52,1.59.74,2.45.76.86.02,1.81-.17,2.85-.51,2.45-.82,4.32-2.19,5.62-4.82,1.3-2.62,2.02-6.69,2.15-12.55M50.62,158.61c-.76-.36-1.32-1.47-1.66-3.48-.35-2-.53-5.25-.54-9.52-.02-4.94.21-8.2.68-10.06.47-1.86,1.23-2.65,2.29-2.69.83-.03,1.53.42,2.11,1.43.58,1.02.98,2.54,1.22,4.73-.52-.93-1.01-1.59-1.47-2.02-.46-.43-.9-.62-1.33-.6-.78.05-1.33.68-1.64,2-.31,1.32-.46,3.77-.45,7.52,0,2.52.08,4.87.21,6.92.13,2.05.32,3.99.58,5.76M55.26,139.96c1.51-.14,2.27-.21,3.78-.34-.02-5.99-.03-8.87-.05-11.62.54.79.82,1.3,1.36,2.44.02,3.98.03,7.19.05,13.4-1.41.17-2.12.26-3.53.44-.64-1.75-.96-2.62-1.6-4.33"/>
          <path class="cls-6" d="M61.25,161.47c0-1.86-.01-2.95-.02-5.28.97-.22,1.46-.33,2.43-.54-.03-9.25-.05-16.53-.08-23.9-.97.02-1.46.03-2.44.04,0-1.85-.01-2.64-.02-3.78,3.11,0,4.66,0,7.76,0,0,1.13.01,1.9.02,3.66-.71,0-1.07.01-1.79.02.01,3.69.02,6.28.03,11.34,2.21-5.3,3.32-7.81,5.53-11.41-.45,0-.68,0-1.13.01,0-1.74,0-2.49-.01-3.63,2.69,0,4.04,0,6.74.01,0,1.15,0,1.89.01,3.57-.76,0-1.13,0-1.89,0-1.98,3.28-2.97,5.48-4.95,10.16.48-.04.72-.06,1.2-.1.65-.05,1.2.32,1.64,1.11.44.79.8,2.02,1.07,3.65.35,2.11.53,3.16.88,5.13.09.49.22.87.4,1.15.18.28.37.4.57.37.59-.1.89-.14,1.48-.23,0,2.04,0,3,.01,4.69-1.53.27-2.29.42-3.82.72-.44.09-.8-.02-1.07-.33-.27-.32-.51-.9-.7-1.82-.51-2.42-.76-3.83-1.27-6.73-.19-1.08-.43-1.84-.72-2.24-.29-.41-.74-.57-1.38-.49-1.03.13-1.55.2-2.58.34,0,3.28.01,4.95.02,7.91.96-.2,1.44-.29,2.4-.48,0,2.18.01,3.2.02,4.97-3.34.76-5.01,1.18-8.36,2.08M61.15,133.33c.74-.02,1.1-.03,1.84-.06,0,1.44,0,2.24.01,3.9-.74-1.62-1.11-2.41-1.85-3.84M61.26,162.87c3.59-1,5.38-1.46,8.97-2.29,0-2.09-.01-3.42-.02-6.27.54.93.81,1.37,1.35,2.2,0,3.02.01,4.35.02,6.1-3.39.78-5.08,1.21-8.47,2.16-.74-.58-1.11-.97-1.85-1.89M67.75,139.32c0-2.67-.01-3.96-.02-6.17.72-.02,1.08-.02,1.8-.04,0-2.51-.01-3.61-.02-5.1.55.69.82,1.11,1.36,2.05,0,1.08,0,1.69.01,3.03-1.26,2.19-1.89,3.48-3.14,6.23M67.79,152.99c0-1.64,0-2.5-.01-4.23.94-.14,1.42-.21,2.36-.35.29-.04.52.09.69.38.17.3.32.82.45,1.56.14.79.2,1.18.34,1.94-1.53.26-2.29.4-3.82.69M73.15,139.94c1.39-3.07,2.09-4.51,3.49-6.94.92-.01,1.38-.01,2.3-.02,0-2.38,0-3.44-.01-4.95.54.79.81,1.26,1.35,2.3,0,2.04,0,3.31.01,6.01-1.29.03-1.94.05-3.24.09-.93,1.9-1.39,2.93-2.32,5.07-.22-.42-.46-.75-.72-1.01-.26-.26-.55-.44-.86-.55M79.32,158.74c0-2.03,0-3.3-.01-5.99.54,1.07.81,1.58,1.35,2.55,0,2.63,0,3.81.01,5.49-1.44.25-2.17.38-3.61.66-.46.09-.88.1-1.24,0-.36-.1-.69-.29-.96-.62-.48-.58-.72-.9-1.2-1.62.16.2.31.33.46.4.15.07.32.09.51.05.11-.02.17-.04.28-.06,1.77-.36,2.65-.53,4.42-.85M75.62,144.22c.82,1.86,1.23,2.79,2.04,4.56.18.41.33.81.42,1.18.1.37.18.79.24,1.26-.46.08-.69.11-1.15.19-.09.01-.16-.04-.22-.16-.06-.12-.12-.35-.19-.71-.46-2.43-.69-3.74-1.16-6.32"/>
          <path class="cls-6" d="M98.96,128.11c.31,0,.47,0,.78,0,1.1,0,1.88.06,2.33.17.45.11.82.29,1.1.57.47.44.83,1.07,1.09,1.92.25.85.38,1.88.38,3.11,0,1.58-.22,2.97-.66,4.1-.44,1.13-1.04,1.85-1.81,2.14v1.16c.85.11,1.52.79,2.02,2.01s.75,2.83.75,4.75c0,1.22-.1,2.3-.31,3.25-.2.95-.5,1.71-.88,2.3-.3.47-.68.8-1.13,1.01-.45.21-1.16.33-2.12.38-.49.03-.73.04-1.22.07-4.27.26-6.4.46-10.66.99,0-1.65,0-2.58,0-4.52.98-.1,1.47-.15,2.45-.24,0-7.67,0-13.06-.01-19.62-.98-.01-1.47-.02-2.45-.02,0-1.63,0-2.37,0-3.57,4.15.02,6.22.03,10.36.05M88.62,132.96c.74,0,1.1,0,1.84.01,0,1.25,0,1.91,0,3.29-.74-1.37-1.1-2.04-1.84-3.3M88.78,157.26c4.77-.59,7.16-.8,11.94-1.05.84-.04,1.47-.14,1.89-.29.42-.15.79-.4,1.11-.74.59-.61,1.05-1.52,1.39-2.75.34-1.23.51-2.65.51-4.26,0-1.74-.18-3.3-.54-4.63-.36-1.33-.87-2.33-1.53-3,.57-.75,1-1.71,1.3-2.86.3-1.15.45-2.42.45-3.73,0-.96-.08-1.85-.25-2.67-.17-.82-.42-1.59-.76-2.3.53.94.8,1.45,1.33,2.48.29.57.51,1.18.63,1.83.13.65.19,1.42.19,2.33,0,1.17-.11,2.31-.34,3.39-.23,1.08-.58,2.16-1.06,3.21.36.77.53,1.16.89,1.93.31.7.55,1.54.71,2.49.16.96.24,1.98.24,3.06,0,1.69-.21,3.23-.61,4.62-.41,1.39-.95,2.36-1.62,3.07-.44.45-1,.76-1.67.94-.67.19-1.75.3-3.22.36-.54.02-.81.04-1.35.07-3.04.16-4.56.28-7.6.6-.81-.75-1.22-1.18-2.03-2.11M98.06,131.75c-1.38-.03-2.08-.04-3.46-.06,0,2.59,0,4.12,0,7.24,1.38-.01,2.08-.02,3.46-.02.89,0,1.51-.28,1.86-.84.35-.56.53-1.47.53-2.7,0-1.31-.19-2.2-.56-2.76-.38-.56-.99-.83-1.83-.85M98.44,143.02c-1.54.03-2.3.05-3.84.11,0,3.2,0,4.85,0,7.84,1.53-.12,2.3-.17,3.84-.26.87-.05,1.49-.35,1.85-.92.36-.57.53-1.49.53-2.79,0-1.39-.19-2.41-.56-3.05-.37-.64-.98-.95-1.82-.93M95.24,137.44c0-1.85,0-2.76,0-4.42,1.19.02,1.78.03,2.97.05.55,0,.96.18,1.23.53.27.35.41.86.41,1.57,0,.19,0,.35-.02.49-.01.14-.04.26-.06.37-1.28-.02-1.92-.03-3.2-.04v1.44c-.53,0-.79,0-1.32,0M95.24,149.47c0-1.86,0-2.83,0-4.78,1.34-.06,2-.08,3.34-.12.52-.01.93.18,1.21.59.28.41.43.98.43,1.71,0,.14,0,.27-.02.4-.01.13-.04.28-.07.47-1.43.05-2.14.09-3.57.16v1.48c-.53.03-.79.05-1.32.08"/>
          <path class="cls-6" d="M107.56,141.02c0-5.43.61-8.96,1.83-10.89,1.22-1.93,3.19-2.63,5.92-2.63,2.72,0,4.7.61,5.92,2.47,1.22,1.85,1.84,5.47,1.84,11.38,0,5.9-.6,10.09-1.82,12.25-1.22,2.16-3.19,2.84-5.93,2.6-2.74-.24-4.72-1.3-5.93-3.58-1.22-2.28-1.82-6.2-1.82-11.61M121.39,128.85c1.37,1.58,2.32,3.55,2.88,5.76.55,2.21.83,5.26.83,9.01,0,3.03-.18,5.75-.56,7.99-.37,2.24-.92,3.94-1.65,5.2-.69,1.19-1.6,1.94-2.73,2.43-1.13.49-2.3.64-3.51.54-1.14-.09-2.24-.43-3.29-1.11-1.06-.68-2.12-1.74-3.16-3.34.75.65,1.54,1.13,2.37,1.46.83.33,1.75.53,2.78.62,2.86.25,4.96-.42,6.31-2.77,1.35-2.35,2.02-6.92,2.02-13.29,0-3.38-.18-6.03-.54-7.93-.36-1.89-.94-3.4-1.75-4.57M111.67,141.04c0,3.95.29,6.84.86,8.58.57,1.73,1.5,2.6,2.78,2.7,1.28.1,2.21-.61,2.79-2.31.57-1.7.86-4.69.86-8.81,0-4.12-.29-6.84-.87-8.39-.58-1.55-1.51-2.19-2.78-2.18-1.27.02-2.2.7-2.77,2.25-.58,1.55-.86,4.2-.86,8.15M114.45,150.75c-.75-.42-1.3-1.37-1.64-2.91-.35-1.53-.52-3.83-.52-6.8,0-3.42.24-5.75.72-7.15.48-1.4,1.25-2.04,2.3-2.06.77-.01,1.37.29,1.8.95.43.66.75,1.77.99,3.47-.47-.49-.89-.84-1.28-1.08s-.73-.35-1.04-.35c-.75,0-1.28.48-1.6,1.47-.32.99-.47,2.71-.47,5.25,0,1.75.06,3.4.18,4.89.12,1.49.31,2.94.56,4.31"/>
          <path class="cls-6" d="M125.55,156.59c0-1.65,0-2.59,0-4.55.91.11,1.37.17,2.28.3,1.76-3.79,2.63-6.1,4.38-10.49-1.78-4.66-2.66-6.89-4.43-10.25-.9,0-1.35,0-2.25,0,0-1.65,0-2.38,0-3.56,3.25-.01,4.88-.02,8.14-.02,0,1.14,0,1.89,0,3.58-.52,0-.78,0-1.3,0,1.04,2.07,1.57,3.32,2.61,6,1.03-2.59,1.55-3.86,2.58-5.97-.49,0-.73,0-1.22-.01,0-1.72,0-2.47,0-3.61,2.77,0,4.16,0,6.94,0,0,1.13,0,1.91,0,3.69-.87-.01-1.31-.02-2.18-.03-1.72,3.54-2.58,5.95-4.31,10.49,1.75,4.84,2.62,7.61,4.38,12.39.86.17,1.29.25,2.15.43,0,2.23,0,3.27,0,5.07-3.23-.78-4.84-1.13-8.07-1.78,0-1.72,0-2.71,0-4.8.54.09.81.14,1.35.23-1.04-2.74-1.56-4.22-2.6-7.1-1.02,2.65-1.53,3.94-2.54,6.26.48.07.72.11,1.2.19,0,2.06,0,3.03,0,4.73-2.85-.53-4.27-.76-7.12-1.18M125.54,132.95c.81,0,1.21,0,2.01,0,.59,1.22.88,1.87,1.47,3.25-.67-.01-1.01-.02-1.68-.04-.72-1.37-1.09-2.02-1.81-3.22M133.29,153.14c.54,1.11.82,1.65,1.36,2.7,0,2.9,0,4.19.01,5.92-2.84-.58-4.27-.84-7.11-1.29-.8-.93-1.2-1.47-2-2.62,3.1.46,4.65.73,7.75,1.33,0-2.04,0-3.31,0-6.03M133.02,151.48c.39-.9.59-1.37.98-2.32.38,1.05.57,1.58.95,2.61-.77-.12-1.16-.18-1.93-.29M133.88,133.01c.17,0,.25,0,.41,0,0-2.42,0-3.49,0-4.99.57.67.86,1.06,1.43,1.93,0,1.09,0,1.72,0,3.08.11,0,.17,0,.29,0-.41.88-.61,1.34-1.02,2.29-.44-.97-.66-1.44-1.1-2.32M135.27,159.56c3.48.71,5.21,1.11,8.69,1.98,0-2.13,0-3.5-.01-6.44.54,1.42.81,2.11,1.35,3.43,0,2.87,0,4.12.01,5.74-3.31-.89-4.97-1.29-8.28-2.01-.71-.94-1.06-1.49-1.76-2.7M143.91,133.19c0-2.57,0-3.69-.01-5.18.54.81.81,1.32,1.35,2.49,0,2.1,0,3.45.01,6.35-1.37-.07-2.06-.11-3.43-.17-1.23,3.15-1.85,4.91-3.08,8.25-.39-1.09-.59-1.63-.98-2.69,1.45-3.85,2.17-5.86,3.62-9.1,1.01.02,1.52.03,2.53.06"/>
          <path class="cls-6" d="M151.57,156.81c.99.24,1.48.36,2.46.6,0,2.43,0,3.58.01,5.5-3.4-1-5.1-1.47-8.5-2.33,0-1.82,0-2.88,0-5.15.98.21,1.47.32,2.46.54-.02-9.37-.03-16.76-.04-24.2-.98-.02-1.47-.03-2.45-.04,0-1.81,0-2.59-.01-3.72,3.4,0,5.09,0,8.49,0,0,1.15,0,1.97.01,3.89-.99-.02-1.48-.04-2.46-.06.02,7.63.03,15.31.05,24.96M147.36,136.96c-.75-1.61-1.12-2.36-1.87-3.73.74.02,1.12.03,1.86.05,0,1.37,0,2.11,0,3.68M147.5,164.87c-.78-1-1.17-1.6-1.95-2.92,3.64.95,5.46,1.47,9.1,2.59,0-2.27-.01-3.76-.02-6.98.55,1.3.82,1.94,1.37,3.17,0,3.44.01,4.94.02,6.74-3.41-1.12-5.11-1.65-8.52-2.6M152.17,155.01c-.02-8.54-.02-14.49-.04-21.58.98.03,1.47.05,2.45.09,0-2.79,0-3.98-.02-5.51.55.73.82,1.19,1.37,2.26,0,2.31.01,3.87.02,7.25-.98-.07-1.47-.11-2.45-.17.01,6.61.02,11.05.03,17.97-.55-.13-.82-.19-1.37-.31"/>
          <path class="cls-6" d="M156.26,163.58c0-1.96,0-3.12-.01-5.6.98.26,1.47.39,2.46.65-.02-10.27-.03-18.55-.05-26.6-.98-.03-1.47-.04-2.45-.07,0-1.95,0-2.78-.01-3.94,3.09,0,4.64,0,7.73.02,3.02,9.55,4.11,19.98,5.65,29.81-.02-10.54-.03-17.82-.05-25.45-.98-.04-1.48-.06-2.46-.09,0-2.13,0-3.03-.01-4.26,3.03.01,4.54.02,7.57.03,0,1.3,0,2.26.01,4.53-.86-.04-1.29-.05-2.16-.09.03,12.22.04,24.45.07,36.67-2-.76-3-1.14-5.01-1.86-2.17-10.76-3.72-21.61-5.88-32.37.02,8.34.03,15.28.05,24.49.98.28,1.47.42,2.45.7,0,2.66,0,3.91.01,6-3.16-1.09-4.74-1.6-7.91-2.57M156.2,133.58c.74.03,1.12.04,1.86.07,0,1.53,0,2.38,0,4.16-.75-1.83-1.12-2.69-1.87-4.23M156.27,165.05c3.41,1.08,5.12,1.66,8.53,2.88,0-2.44-.01-4.07-.02-7.6.54,1.68.81,2.5,1.35,4.05,0,3.45.01,4.94.02,6.72-3.16-1.22-4.74-1.79-7.9-2.88-.8-1.08-1.19-1.74-1.99-3.18M162.31,157.49c-.01-5.83-.02-9.34-.03-15.34.54,3.01.82,4.63,1.36,7.84,0,3.22,0,4.86.01,7.86-.54-.15-.81-.22-1.35-.36M164.59,128.03c.74.95,1.11,1.6,1.85,3.15,0,1.04,0,1.62,0,2.87.98.05,1.47.08,2.45.13.01,4.98.02,8.42.03,14.93-1.74-10.96-2.6-16.94-4.34-21.07M167.97,169.09c2.07.78,3.11,1.18,5.18,2.01-.03-12.23-.04-24.46-.07-36.69.87.05,1.31.08,2.18.13,0-3.33,0-4.75-.02-6.47.54.91.81,1.51,1.35,2.94,0,2.81.01,4.72.02,8.86-.86-.1-1.29-.14-2.16-.24.02,11.62.03,23.25.07,34.87-1.87-.8-2.8-1.19-4.68-1.95-.75-1.17-1.12-1.88-1.87-3.46"/>
          <path class="cls-6" d="M189.41,153.66c-.82-.2-1.23-.3-2.05-.5,0-2.95,0-4.43,0-7.26,3.09.53,4.64.81,7.73,1.38,0,3.04,0,4.63,0,7.8-.85-.22-1.28-.33-2.13-.54,0,10.35,0,16.2,0,23.36-1.42-.67-2.12-.99-3.54-1.64,0-2.05,0-3.24,0-5.78-.61,2.44-1.37,3.85-2.27,4.55-.9.7-1.93.7-3.08.18-2.23-.99-3.96-3.13-5.17-7.56-1.21-4.43-1.83-11.36-1.84-20.08-.01-8.91.58-14.23,1.79-16.89,1.21-2.66,3.02-3.18,5.42-3.18,1.02,0,1.93.16,2.7.61.77.45,1.55,1.25,2.31,2.82,0-1.33,0-1.9,0-2.79,1.36,0,2.05.01,3.41.02,0,2.35,0,4.45,0,9.31-1.36-.13-2.04-.19-3.41-.32-.63-2.05-1.31-3.4-2.02-4.27s-1.46-1.26-2.23-1.29c-1.28-.05-2.24.86-2.87,3.3-.63,2.44-.94,6.61-.94,13,0,7.09.34,12.48,1,15.77.66,3.3,1.71,5.07,3.15,5.63,1.12.44,2.06-.52,2.82-3.33.76-2.82,1.16-7.01,1.21-12.31M179.89,172.76c.71,1.13,1.43,1.99,2.14,2.66.71.67,1.45,1.17,2.22,1.53.8.37,1.56.49,2.28.29.72-.2,1.48-.74,2.28-1.84,0,1.62,0,2.35,0,3.61.12.3.18.44.3.72-.66.57-1.35.75-2.06.72-.72-.03-1.45-.26-2.2-.63-.49-.24-1-.59-1.53-1.09-.53-.5-1-1.09-1.42-1.84-.81-1.46-1.21-2.31-2.01-4.14M184.12,165.9c-.75-.77-1.31-2.46-1.66-5.24-.35-2.78-.53-6.94-.54-12.24,0-5.92.23-9.72.72-11.88.49-2.16,1.26-3.03,2.34-2.97.82.05,1.58.5,2.28,1.46.7.96,1.32,2.44,1.88,4.63,1.68.19,2.51.29,4.19.49,0-6.31,0-9.11,0-11.97.54.97.8,1.6,1.34,3.1,0,3.91,0,6.81,0,12.96-1.87-.29-2.81-.44-4.68-.72-.71-1.9-1.41-3.2-2.1-4.04-.69-.83-1.42-1.26-2.17-1.34-.91-.09-1.54.62-1.9,2.25-.36,1.62-.53,4.72-.53,9.58,0,2.9.07,5.69.21,8.29.14,2.6.35,5.17.63,7.64M187.36,156.12c.53.14.8.21,1.33.36-.03.74-.07,1.44-.12,2.09-.05.66-.12,1.3-.21,1.92-.4-1.74-.6-2.62-.99-4.36M189.43,178.22c1.66.79,2.49,1.19,4.15,2.01,0-6.34,0-12,0-22.4.85.24,1.27.36,2.12.6,0-4.45,0-6.75,0-11.02.54,2.53.82,3.85,1.36,6.54v11.72c-.85-.3-1.28-.45-2.13-.75,0,10.15,0,15.24,0,19.42-1.5-.8-2.26-1.19-3.76-1.97-.69-1.4-1.04-2.25-1.73-4.15"/>
        </g>
      </g>
    </g>
  </g>
</svg>