<?xml version="1.0" encoding="UTF-8"?>
<svg id="Layer_2" data-name="Layer 2" xmlns="http://www.w3.org/2000/svg" xmlns:xlink="http://www.w3.org/1999/xlink" viewBox="0 0 400.2 280.31">
  <defs>
    <style>
      .cls-1 {
        fill: #a90411;
      }

      .cls-1, .cls-2, .cls-3, .cls-4, .cls-5, .cls-6 {
        stroke-width: 0px;
      }

      .cls-7 {
        clip-path: url(#clippath-2);
      }

      .cls-2 {
        fill: none;
      }

      .cls-3 {
        fill: #01095a;
      }

      .cls-8 {
        clip-path: url(#clippath-1);
      }

      .cls-4 {
        fill: #f1f2f5;
      }

      .cls-9 {
        clip-path: url(#clippath);
      }

      .cls-5 {
        fill: url(#radial-gradient);
      }

      .cls-10 {
        clip-path: url(#clippath-3);
      }

      .cls-6 {
        fill: #fff;
      }
    </style>
    <clipPath id="clippath">
      <rect class="cls-2" y="0" width="400.2" height="280.31"/>
    </clipPath>
    <clipPath id="clippath-1">
      <rect class="cls-2" y="0" width="400.2" height="280.31"/>
    </clipPath>
    <clipPath id="clippath-2">
      <polygon class="cls-2" points="198.12 80.65 192.35 28.24 193.93 80.94 184.52 29.06 189.78 81.52 176.77 30.43 185.67 82.39 169.13 32.33 181.64 83.55 161.64 34.76 177.7 84.98 154.35 37.71 173.86 86.69 147.27 41.16 170.16 88.66 140.46 45.09 166.6 90.88 133.93 49.49 163.21 93.35 127.73 54.34 159.99 96.04 121.88 59.6 156.98 98.96 116.41 65.26 154.17 102.08 111.35 71.29 151.59 105.38 106.73 77.66 149.24 108.86 102.55 84.33 147.14 112.49 98.86 91.28 145.3 116.26 95.66 98.47 143.73 120.15 92.97 105.86 142.43 124.14 90.8 113.43 141.42 128.21 89.16 121.13 140.69 132.34 88.06 128.92 140.25 136.51 87.52 136.77 140.11 140.7 87.52 144.64 140.25 144.89 88.06 152.49 140.69 149.07 89.16 160.28 141.42 153.2 90.8 167.98 142.43 157.27 92.97 175.54 143.73 161.25 95.66 182.94 145.3 165.14 98.86 190.12 147.14 168.91 102.55 197.07 149.24 172.55 106.73 203.75 151.59 176.02 111.35 210.11 154.17 179.33 116.41 216.14 156.98 182.45 121.88 221.8 159.99 185.36 127.73 227.07 163.21 188.05 133.93 231.91 166.6 190.52 140.46 236.31 170.16 192.74 147.27 240.25 173.86 194.71 154.35 243.7 177.7 196.42 161.64 246.64 181.64 197.85 169.13 249.07 185.67 199.01 176.77 250.98 189.78 199.88 184.52 252.35 193.93 200.47 192.35 253.17 198.12 200.76 200.21 253.44 202.31 200.76 208.08 253.17 206.5 200.47 215.91 252.35 210.65 199.88 223.66 250.98 214.76 199.01 231.3 249.07 218.79 197.85 238.78 246.64 222.73 196.42 246.08 243.7 226.56 194.71 253.15 240.25 230.27 192.75 259.97 236.31 233.83 190.52 266.5 231.91 237.22 188.06 272.7 227.07 240.43 185.36 278.55 221.8 243.45 182.45 284.02 216.14 246.26 179.33 289.08 210.11 248.84 176.02 293.7 203.75 251.19 172.55 297.87 197.07 253.29 168.91 301.57 190.12 255.12 165.14 304.77 182.94 256.7 161.26 307.46 175.54 257.99 157.27 309.63 167.98 259.01 153.2 311.27 160.28 259.73 149.07 312.36 152.49 260.17 144.89 312.91 144.64 260.32 140.7 312.91 136.77 260.17 136.51 312.36 128.92 259.73 132.34 311.27 121.13 259.01 128.21 309.63 113.43 257.99 124.14 307.46 105.86 256.7 120.15 304.77 98.47 255.12 116.26 301.57 91.28 253.29 112.49 297.87 84.33 251.19 108.86 293.7 77.66 248.84 105.38 289.08 71.29 246.26 102.08 284.02 65.26 243.45 98.96 278.55 59.6 240.43 96.04 272.7 54.34 237.22 93.35 266.5 49.49 233.83 90.88 259.97 45.09 230.27 88.66 253.15 41.16 226.56 86.69 246.08 37.71 222.73 84.99 238.78 34.76 218.79 83.55 231.3 32.33 214.76 82.39 223.66 30.43 210.65 81.52 215.91 29.06 206.5 80.94 208.08 28.24 202.31 80.65 200.21 27.96 198.12 80.65"/>
    </clipPath>
    <radialGradient id="radial-gradient" cx="-65.19" cy="-446.16" fx="-65.19" fy="-446.16" r=".96" gradientTransform="translate(8033.1 -53467.11) scale(120.15 -120.15)" gradientUnits="userSpaceOnUse">
      <stop offset="0" stop-color="#ff5834"/>
      <stop offset=".07" stop-color="#ff5834"/>
      <stop offset=".68" stop-color="#d61622"/>
      <stop offset="1" stop-color="#d61622"/>
    </radialGradient>
    <clipPath id="clippath-3">
      <rect class="cls-2" y="0" width="400.2" height="280.31"/>
    </clipPath>
  </defs>
  <g id="Layer_2-2" data-name="Layer 2">
    <g id="Thai_SBT" data-name="Thai SBT">
      <g class="cls-9">
        <g class="cls-8">
          <path class="cls-1" d="M200.21,276.48c-46.51,0-89.11-23.26-114.43-62.35-21.8,8.97-35.31,16.84-35.45,16.92-.1.06-.32.18-.32.18,0,0-4.6,2.44-7.74,4.08-3.21,1.67-6.82,2.55-10.43,2.55-4.61,0-9.05-1.38-12.85-4-4.48-3.09-7.11-6.13-9.91-10.04-3.17-4.42-4.64-9.82-4.14-15.24-.07-.71-.1-1.38-.1-2.06v-15.84c0-5.39,1.88-10.52,5.32-14.58l-.02-35.56c-1.46-3.96-2.15-5.75-3.52-8.97-1.47-3.46-2.04-7.27-1.66-11.04-.06-.53-.13-1.24-.13-2.02v-9.6c0-12.46,10.14-22.61,22.61-22.61h9.45c.15-1.11.39-2.2.71-3.27-.61-2.12-.91-4.31-.89-6.54-.02-.29-.03-.57-.03-.86v-3.4c0-12.46,10.14-22.61,22.61-22.61h39.14C124.35,20.51,161.37,3.83,200.21,3.83s75.86,16.67,101.79,45.78h38.91c12.46,0,22.61,10.14,22.61,22.61v3.4c0,.29-.01.57-.03.86.02,2.23-.28,4.43-.89,6.55.32,1.07.56,2.16.71,3.27h9.45c12.46,0,22.61,10.14,22.61,22.61v9.6c0,.78-.06,1.46-.13,2.02.38,3.77-.2,7.58-1.66,11.04-1.36,3.22-2.06,5.01-3.52,8.97l-.02,35.56c3.44,4.07,5.32,9.2,5.32,14.58v15.84c0,.67-.03,1.35-.1,2.06.5,5.42-.96,10.82-4.14,15.24-2.8,3.9-5.44,6.94-9.91,10.04-3.79,2.62-8.23,4-12.84,4-3.62,0-7.23-.88-10.43-2.55-3.14-1.64-7.74-4.08-7.74-4.08-.12-.06-.22-.12-.32-.18-.14-.08-13.8-8-35.26-16.85-25.33,39.05-67.91,62.29-114.39,62.29"/>
          <path class="cls-3" d="M200.21,6.71c40.05,0,76.01,17.76,100.49,45.78h40.21c10.88,0,19.73,8.85,19.73,19.73v3.4c0,.25-.01.5-.04.76.04,2.28-.31,4.53-1.03,6.66.68,1.98,1.04,4.03,1.06,6.13h12.11c10.88,0,19.73,8.85,19.73,19.73v9.6c0,.74-.07,1.41-.15,1.99.39,3.4-.09,6.82-1.41,9.95-1.41,3.32-2.11,5.14-3.63,9.28-.03.09-.07.19-.11.28l-.02,37.18c3.41,3.63,5.32,8.41,5.32,13.49v15.84c0,.66-.04,1.34-.12,2.05.51,4.83-.74,9.62-3.58,13.57-2.69,3.75-5.06,6.48-9.21,9.35-3.31,2.29-7.19,3.49-11.21,3.49-3.16,0-6.31-.77-9.11-2.23-3.13-1.63-7.72-4.07-7.72-4.07-.07-.04-.14-.08-.21-.12-.32-.19-14.89-8.64-37.85-17.94-23.59,37.78-65.53,62.99-113.26,62.99s-89.71-25.23-113.3-63.05c-23.06,9.33-37.72,17.82-38.04,18.01-.07.04-.14.08-.21.12,0,0-4.59,2.44-7.72,4.07-2.8,1.46-5.95,2.23-9.11,2.23-4.02,0-7.9-1.21-11.21-3.49-4.15-2.87-6.52-5.6-9.21-9.34-2.84-3.95-4.1-8.74-3.58-13.57-.08-.71-.12-1.39-.12-2.05v-15.84c0-5.08,1.91-9.86,5.32-13.49l-.02-37.18c-.04-.09-.07-.19-.11-.28-1.53-4.14-2.22-5.96-3.63-9.28-1.32-3.13-1.81-6.55-1.41-9.95-.08-.58-.15-1.25-.15-1.99v-9.6c0-10.88,8.85-19.73,19.73-19.73h12.11c.02-2.1.38-4.15,1.06-6.13-.71-2.12-1.06-4.37-1.03-6.65-.02-.25-.04-.51-.04-.77v-3.4c0-10.88,8.85-19.73,19.73-19.73h40.44C124.21,24.47,160.17,6.71,200.21,6.71M281.51,238.78c3.16-2.6,6.19-5.36,9.08-8.25-2.89,2.89-5.92,5.64-9.08,8.25M266.49,249.46c3.51-2.14,6.92-4.44,10.2-6.89-3.28,2.45-6.68,4.75-10.2,6.89M213.28,267.31c4.3-.44,8.53-1.09,12.69-1.94-4.16.85-8.39,1.5-12.69,1.94M200.21.96c-39.23,0-76.64,16.65-103.07,45.78h-37.86c-14.05,0-25.48,11.43-25.48,25.48v3.4c0,.3.01.62.03.96-.01,2.18.25,4.34.78,6.44-.04.13-.07.27-.1.4h-7.07c-14.05,0-25.48,11.43-25.48,25.48v9.6c0,.78.05,1.48.11,2.04-.36,4.15.29,8.33,1.9,12.13,1.29,3.04,1.97,4.78,3.29,8.37l.02,34.03c-3.45,4.44-5.32,9.9-5.32,15.6v15.84c0,.68.03,1.36.09,2.06-.49,6.02,1.16,12,4.69,16.91,2.98,4.15,5.79,7.39,10.61,10.72,4.28,2.95,9.28,4.51,14.48,4.51,4.08,0,8.14-.99,11.76-2.87,3.12-1.62,7.72-4.07,7.77-4.09.14-.07.28-.15.42-.24.13-.08,12.66-7.35,32.91-15.83,12.06,17.9,28.21,32.9,46.97,43.57,20.82,11.84,44.52,18.1,68.56,18.1s47.71-6.25,68.52-18.08c18.75-10.65,34.9-25.64,46.96-43.52,20.15,8.45,32.59,15.69,32.72,15.77.14.08.29.16.43.24.04.02,4.64,2.46,7.76,4.09,3.62,1.88,7.68,2.88,11.76,2.88,5.2,0,10.2-1.56,14.48-4.51,4.82-3.33,7.64-6.57,10.62-10.73,3.52-4.91,5.18-10.89,4.69-16.91.06-.7.09-1.38.09-2.06v-15.84c0-5.7-1.88-11.16-5.32-15.6l.02-34.03c1.32-3.58,2-5.33,3.29-8.37,1.61-3.81,2.27-7.99,1.91-12.14.06-.57.11-1.27.11-2.04v-9.6c0-14.05-11.43-25.48-25.48-25.48h-7.07c-.03-.14-.07-.27-.1-.4.53-2.1.79-4.26.78-6.45.02-.33.03-.64.03-.95v-3.4c0-14.05-11.43-25.48-25.48-25.48h-37.63C276.86,17.61,239.45.96,200.21.96"/>
          <path class="cls-6" d="M200.21,269.38c-45.81,0-88.46-24.53-111.6-64.11-25.31,9.99-41.72,19.56-41.88,19.65-.05.03-4.62,2.46-7.74,4.08-5,2.6-11.32,2.21-15.96-.99-3.67-2.53-5.7-4.88-8.18-8.33-2.32-3.23-3.29-7.16-2.76-11.11-.09-.67-.15-1.35-.15-2.04v-15.84c0-4.52,1.93-8.75,5.33-11.7l-.03-39.9c-.13-.27-.26-.54-.37-.82-1.55-4.21-2.27-6.06-3.7-9.47-1.11-2.61-1.46-5.48-1.04-8.32-.11-.76-.18-1.36-.18-1.97v-9.6c0-8.55,6.96-15.5,15.5-15.5h16.39s0-.09,0-.13c-.04-.16-.05-.32-.05-.49v-3.4c0-2.19.46-4.31,1.37-6.33-.95-2.12-1.41-4.48-1.33-6.86-.03-.24-.04-.41-.04-.58v-3.4c0-8.55,6.96-15.5,15.5-15.5h42.28c24.64-29.11,60.55-45.79,98.65-45.79s74.01,16.68,98.65,45.79h42.05c8.55,0,15.5,6.95,15.5,15.5v3.4c0,.17-.01.34-.03.51.06,2.44-.4,4.8-1.35,6.93.91,2.02,1.37,4.14,1.37,6.33v3.4c0,.17-.02.33-.04.5v.12h16.38c8.55,0,15.5,6.95,15.5,15.5v9.6c0,.65-.09,1.29-.18,1.92.43,2.73.09,5.69-1.05,8.36-1.44,3.4-2.15,5.26-3.71,9.47-.1.28-.23.53-.35.79l-.02.04-.02,39.89c3.39,2.95,5.33,7.17,5.33,11.7v15.84c0,.69-.05,1.37-.15,2.04.53,3.94-.44,7.88-2.76,11.11-2.47,3.45-4.51,5.8-8.18,8.33-4.64,3.21-10.96,3.6-15.96.99-3.12-1.62-7.69-4.05-7.69-4.05-.22-.12-16.54-9.65-41.75-19.61-23.15,39.53-65.78,64.04-111.56,64.04M89.23,202.1c.49,0,.97.26,1.22.71,22.5,39.32,64.56,63.75,109.77,63.75s87.22-24.4,109.72-63.68c.34-.61,1.08-.87,1.74-.61,26.04,10.2,43.02,20.1,43.22,20.22,0,0,4.53,2.4,7.62,4.01,4.09,2.13,9.26,1.81,13.06-.82,3.33-2.3,5.2-4.46,7.49-7.65,1.93-2.69,2.72-5.98,2.23-9.26-.02-.14-.02-.28,0-.41.09-.61.15-1.22.15-1.84v-15.84c0-3.89-1.75-7.51-4.8-9.93-.34-.27-.53-.67-.53-1.11l.02-40.88c0-.2.04-.4.13-.58l.18-.38c.08-.17.17-.34.24-.52,1.57-4.25,2.29-6.13,3.76-9.59.92-2.18,1.21-4.6.82-6.98-.02-.14-.02-.29,0-.43.11-.76.19-1.27.19-1.78v-9.6c0-6.99-5.69-12.68-12.68-12.68h-17.17s-.56.04-.58.04c-.41,0-.79-.14-1.07-.42-.28-.29-.42-.68-.4-1.08.03-.46.02-.91,0-1.37,0-.09.03-.42.04-.5v-3.49c.01-1.97-.45-3.88-1.36-5.69-.2-.4-.2-.87,0-1.27.94-1.86,1.4-3.98,1.33-6.13,0-.06.02-.36.02-.41l.02-3.65c0-6.99-5.69-12.68-12.68-12.68h-42.7c-.42,0-.81-.19-1.08-.5-24.11-28.78-59.44-45.28-96.92-45.28s-72.8,16.5-96.92,45.28c-.27.32-.66.5-1.08.5h-42.93c-6.99,0-12.68,5.69-12.68,12.68v3.4s.04.53.04.55c-.07,2.27.39,4.39,1.33,6.25.2.4.2.87,0,1.27-.91,1.8-1.37,3.72-1.37,5.69v3.4s.05.44.05.48c-.02.58-.03,1.04,0,1.49.03.4-.12.8-.4,1.08-.28.29-.67.44-1.07.42-.02,0-.29-.02-.31-.02l-17.43-.02c-6.99,0-12.68,5.69-12.68,12.68v9.6c0,.53.08,1.04.15,1.55.02.14.05.51.03.65-.39,2.38-.11,4.8.82,6.98,1.47,3.46,2.19,5.34,3.76,9.6.07.19.16.36.25.54l.16.34c.09.19.13.39.13.59l.02,40.88c0,.43-.2.84-.53,1.11-3.05,2.42-4.79,6.04-4.79,9.93v15.84c0,.62.06,1.23.15,1.84.02.14.02.28,0,.41-.49,3.29.3,6.57,2.23,9.26,2.29,3.19,4.16,5.36,7.49,7.65,3.8,2.62,8.97,2.95,13.06.82,3.11-1.62,7.66-4.04,7.67-4.04.12-.07,17.18-10.03,43.36-20.26.17-.07.34-.1.51-.1"/>
        </g>
        <g class="cls-7">
          <rect class="cls-5" x="87.52" y="27.96" width="225.4" height="225.48"/>
        </g>
        <g class="cls-10">
          <polygon class="cls-4" points="59.25 92.62 59.25 89.22 63.57 89.22 63.57 75.46 59.25 75.46 59.25 72.06 86.88 72.06 86.88 79.99 80.68 79.99 80.68 75.46 70.09 75.46 70.09 81.04 75.81 81.04 75.81 83.67 70.09 83.67 70.09 89.22 74.72 89.22 74.72 92.62 59.25 92.62"/>
          <polygon class="cls-4" points="96.12 92.62 96.12 89.22 100.45 89.22 100.45 75.46 96.12 75.46 96.12 72.06 123.76 72.06 123.76 79.99 117.56 79.99 117.56 75.46 106.97 75.46 106.97 81.04 112.69 81.04 112.69 83.67 106.97 83.67 106.97 89.22 117.56 89.22 117.56 84.46 123.76 84.46 123.76 92.62 96.12 92.62"/>
          <path class="cls-4" d="M134.03,92.62v-7.66h6.01c.53,1.39,1.42,2.49,2.66,3.32,1.24.83,2.63,1.24,4.17,1.24.92,0,1.66-.2,2.22-.59.56-.39.84-.91.84-1.55s-.26-1.15-.78-1.51c-.52-.36-1.6-.7-3.26-1.03l-6.75-1.38c-1.87-.38-3.25-1.02-4.13-1.92-.88-.9-1.32-2.11-1.32-3.63,0-2,.83-3.58,2.49-4.72,1.66-1.14,3.95-1.71,6.88-1.71,1.56,0,3.1.24,4.62.71,1.52.47,2.88,1.14,4.09,2.01v-2.14h6.17v6.15h-6c-.84-.97-1.92-1.75-3.25-2.35-1.33-.6-2.65-.9-3.98-.9-1.05,0-1.88.16-2.47.49-.6.32-.9.76-.9,1.32,0,.48.2.86.59,1.13.39.28,1.14.53,2.26.77l6.52,1.35c2.55.53,4.41,1.32,5.59,2.37,1.17,1.05,1.76,2.45,1.76,4.19,0,1.97-.88,3.58-2.63,4.8-1.76,1.23-4.08,1.84-6.98,1.84-1.51,0-3.01-.25-4.48-.75-1.47-.5-2.69-1.17-3.68-2v2.14h-6.25Z"/>
          <polygon class="cls-4" points="175.63 92.62 175.63 89.22 180.05 89.22 180.05 75.46 173.73 75.46 173.73 82.94 167.57 82.94 167.57 72.06 199.03 72.06 199.03 82.94 192.87 82.94 192.87 75.46 186.53 75.46 186.53 89.22 191.04 89.22 191.04 92.62 175.63 92.62"/>
          <polygon class="cls-4" points="219.12 89.22 223.58 89.22 223.58 92.62 208.17 92.62 208.17 89.22 212.63 89.22 212.63 75.46 208.17 75.46 208.17 72.06 223.58 72.06 223.58 75.46 219.12 75.46 219.12 89.22"/>
          <polygon class="cls-4" points="244.22 92.62 236.75 75.46 232.71 75.46 232.71 72.06 247.08 72.06 247.08 75.46 243.3 75.46 249.55 89.8 255.43 75.46 251.83 75.46 251.83 72.06 265.24 72.06 265.24 75.46 260.92 75.46 253.79 92.62 244.22 92.62"/>
          <path class="cls-4" d="M268.92,92.62v-3.4h3.83l7.85-17.16h10.41l8.06,17.16h3.83v3.4h-14.64v-3.4h3.75l-1.9-3.89h-9.68l-1.77,3.89h3.83v3.4h-13.54ZM281.63,82.68h7.26l-3.7-7.99-3.56,7.99Z"/>
          <polygon class="cls-4" points="312.06 92.62 312.06 89.22 316.52 89.22 316.52 75.46 312.06 75.46 312.06 72.06 327.44 72.06 327.44 75.46 323.01 75.46 323.01 89.22 331.39 89.22 331.39 81.4 337.55 81.4 337.55 92.62 312.06 92.62"/>
          <path class="cls-3" d="M59.25,76.54h3.24v2.32l-3.24-2.32ZM59.25,93.69h16.56v-4.47l2.46,1.67v5.12h-15.31l-3.71-2.32ZM71.22,76.54h8.4v2.32h-5.94v1.13h-2.46v-3.45ZM71.22,84.75h5.7v-3.71l2.63,1.96v4.01h-5.87v1.14h-2.46v-3.4ZM80.69,81.04h7.32v-8.97l2.44,2.29v9.05h-7.04l-2.73-2.36Z"/>
          <path class="cls-3" d="M96.12,76.54h3.24v2.32l-3.24-2.32ZM96.12,93.69h28.76v-9.23l2.44,2.3v9.24h-27.49l-3.72-2.32ZM108.1,76.54h8.4v2.32h-5.94v1.13h-2.46v-3.45ZM108.1,84.75h5.71v-3.71l2.63,1.96v4.01h-5.88v1.14h-2.46v-3.4ZM117.56,81.04h7.32v-8.97l2.44,2.29v9.05h-7.04l-2.73-2.36Z"/>
          <path class="cls-3" d="M152.42,79.29h6.61v-7.22l2.45,2.29v7.3h-3.95l1.99,1.87c.79.75,1.34,1.44,1.65,2.09.31.64.46,1.41.46,2.3,0,2.42-1.01,4.44-3.02,6.06-2.02,1.62-4.58,2.42-7.67,2.42-1.06,0-2.15-.19-3.25-.56-1.11-.37-2.38-.99-3.84-1.86v2.05h-6l-3.83-2.32h7.35v-1.08c1.32.59,2.57,1.03,3.77,1.32,1.2.29,2.37.44,3.52.44,3.08,0,5.61-.73,7.59-2.19,1.98-1.46,2.97-3.32,2.97-5.59,0-1.81-.58-3.34-1.75-4.59-1.17-1.25-2.86-2.15-5.07-2.71M136.79,83.97h-1.34c-.2-.18-.37-.39-.52-.64-.15-.25-.29-.56-.41-.94.31.4.66.73,1.02.99.37.26.79.46,1.24.6M141.26,85.02l5.96,1.2c.56.12.94.25,1.12.4.19.15.32.38.4.7l-4.47-.91c.09.35.21.67.39.96.18.29.41.58.72.87-.96-.18-1.81-.55-2.53-1.11-.72-.56-1.24-1.26-1.58-2.1M150.98,79.02l-7.49-1.54c-.26-.05-.47-.14-.63-.28-.16-.14-.24-.29-.24-.46,0-.19.14-.35.44-.49.3-.14.66-.21,1.1-.21,1.34,0,2.59.25,3.75.76,1.16.51,2.19,1.25,3.08,2.21"/>
          <path class="cls-3" d="M167.57,83.97h7.29v-7.43h4.11v2.32h-1.67v7.48h-6.65l-3.07-2.36ZM175.75,93.69h16.41v-4.47l2.36,1.76v5.03h-15.56l-3.21-2.32ZM187.66,88.14v-11.61h4.08v2.32h-1.57v9.29h-2.51ZM192.87,83.97h7.24v-11.91l2.48,2.39v11.88h-7.03l-2.69-2.36Z"/>
          <path class="cls-3" d="M211.55,78.85l-3.38-2.32h3.38v2.32ZM211.7,96.01l-3.53-2.32h16.49v-4.47l2.47,1.62v5.18h-15.44ZM220.21,88.14v-11.61h4.45v-4.47l2.47,2.14v4.65h-4.45v9.29h-2.48Z"/>
          <path class="cls-3" d="M232.71,76.54h3.3l.99,2.32h-1.22l-3.07-2.32ZM244.71,93.69h9.81l7.16-17.16h4.69v-4.47l2.44,2.39v4.4h-5.42l-7.16,17.16h-8.02l-3.5-2.32ZM244.99,76.54h3.21v-4.47l2.44,2.11v4.68h-1.87l2.05,4.73-1.38,3.28-4.46-10.32ZM251.83,76.54h1.96l-.58,1.35-1.38-1.35Z"/>
          <path class="cls-3" d="M268.92,93.69h14.64v-4.47l2.46,1.74v5.06h-13.12l-3.98-2.32ZM280.31,88.14l.8-1.78h8.21l.76,1.78h-9.78ZM281.63,82.68h7.26l-3.7-7.99-3.56,7.99ZM283.32,81.62l1.84-4.29,1.44,3.19-.47,1.11h-2.81ZM288.24,93.69h15.76v-4.47l2.44,1.93v4.86h-14.89l-3.31-2.32ZM299.73,88.14l-7.6-16.08,4.91,4.56,5.3,11.52h-2.6Z"/>
          <path class="cls-3" d="M315.44,78.85l-3.38-2.32h3.38v2.32ZM312.06,93.69h26.62v-12.29l2.43,2.09v12.52h-25.42l-3.62-2.32ZM324.1,88.14v-11.61h4.45v-4.47l2.44,2.17v4.62h-4.42v9.29h-2.48Z"/>
          <path class="cls-3" d="M27.41,122.58c1.59-.11,2.38-.17,3.97-.28,0,3.79,0,5.92,0,10.43-1.59-4.32-2.39-6.4-3.98-10.15M27.41,210.47c6.72-3.33,10.08-4.94,16.77-8.02-.01-5.89-.02-9.85-.03-18.38.55,1.37.82,2.03,1.37,3.31.56,4.35.84,6.36,1.41,9.85.01,5.12.02,7.3.03,10.23-6.05,2.94-9.08,4.46-15.16,7.63-1.76-1.21-2.63-2.17-4.39-4.61M40.41,180.1c-.02-14.49-.03-23.23-.05-37.85,1.19,10.23,1.79,15.9,2.99,26.26,0,4.32,0,6.45.02,10.56-1.18.41-1.77.62-2.96,1.03M46.1,108.74c2.16,2.49,3.24,4.59,5.41,9.55.58,3.22.86,5.06,1.44,8.99-.63,4.74-.94,7.39-1.57,12.91-2.12-16.89-3.17-25.48-5.28-31.45M49.31,200.11c2.04-.92,3.07-1.37,5.11-2.27,2.68-17.01,4.02-34.76,6.68-58.56.03,11.64.05,18.4.08,30.2-.24,1.56-.36,2.34-.61,3.87-1.2.38-1.8.58-3,.96.03,10.36.04,15.29.06,22.13-.51,3.08-.77,4.44-1.28,6.56-1.24.57-1.86.86-3.11,1.45-1.57-1.17-2.36-2.07-3.93-4.34M59,195.86c7.18-3.08,10.76-4.54,17.92-7.31-.02-5.04-.04-8.41-.06-15.67,1.17,3.72,1.75,5.45,2.92,8.47.02,5.84.04,8.34.06,11.48-6.84,2.75-10.27,4.21-17.13,7.27-1.48-1.17-2.22-2.05-3.71-4.26M71.53,169.97c-.06-20.21-.1-34.48-.16-50.06,2.12-.11,3.18-.16,5.3-.26-.03-5.86-.04-8.28-.06-10.92,1.18,2.45,1.77,4.62,2.94,9.78.02,3.3.02,5.19.04,9.23-2.1.18-3.15.27-5.25.46.05,14.63.08,24.95.13,40.89-1.18.35-1.77.52-2.94.87"/>
          <path class="cls-3" d="M84.1,119.32c.01,2.93.02,4.57.03,8.05-1.6-3.35-2.4-4.97-4-7.88,1.59-.07,2.38-.11,3.96-.18M115.3,118.23c2.09-.05,3.13-.08,5.22-.13-.02-4.85-.03-6.9-.05-9.36,1.16,1.26,1.74,2.1,2.91,4.03.02,3.81.03,6.4.05,12.04-2.07.1-3.1.15-5.16.26.03,8.45.05,13.69.08,23.34.01,3.35-.02,5.93-.08,7.77-.06,1.84-.16,3.49-.31,4.97-.26,2.78-.65,5.32-1.16,7.62-.51,2.3-1.13,4.32-1.87,6.08-1.41,3.39-3.12,5.55-5.15,7.15-2.02,1.6-4.45,2.74-7.28,3.7-2.33.79-4.28,1.22-5.85,1.1-1.58-.12-3.3-.76-5.18-2.69-.91-.92-1.36-1.44-2.27-2.57.92,1.12,2.37,1.65,4.33,1.7,1.96.05,4.18-.39,6.65-1.22,2.7-.9,5.06-2.11,7.09-3.72,2.03-1.62,3.62-3.57,4.77-6.1,1.21-2.66,2.08-5.78,2.61-9.46.52-3.68.77-9.61.75-17.85,0-.87,0-1.3,0-2.17-.04-10.78-.05-16.46-.09-24.49M94.41,118.9c1.57-.06,2.35-.09,3.92-.14-.02-5.31-.04-7.51-.06-10.01,1.22,1.11,1.82,1.85,3.04,3.55.03,4.14.04,7.15.07,13.79-1.58.11-2.38.16-3.96.27.06,13.99.08,24.05.14,38.89-1.13-.52-1.91-1.63-2.35-3.36-.43-1.73-.66-5.02-.68-9.94-.05-14.35-.07-22.53-.12-33.06M105.48,124.91c-1.13-2.67-1.69-3.95-2.81-6.3,1.11-.04,1.67-.06,2.79-.09.01,2.36.02,3.66.03,6.4"/>
          <path class="cls-3" d="M122.23,173.68c6.92-1.85,10.38-2.69,17.3-4.19-.01-4.03-.02-6.59-.03-12.03,1.17,1.9,1.75,2.81,2.92,4.51.01,5.6.02,8.09.04,11.44-6.2,1.32-9.29,2.06-15.49,3.69-1.89-1.04-2.84-1.73-4.73-3.42M135.65,154.76c.37-2.35.56-3.55.93-5.97,3.89-.56,5.83-.82,9.72-1.31.37,2.22.55,3.32.92,5.44-4.63.67-6.94,1.04-11.57,1.84M139.16,132.74c.86-5.61,1.28-8.32,2.14-12.93.69,3.4,1.04,5.3,1.73,9.2-.22,1.38-.33,2.08-.55,3.51-1.33.09-1.99.13-3.32.22M145.07,168.33c7.45-1.49,11.17-2.14,18.61-3.2,0-3.9,0-6.26-.02-11.25,1.16,2.01,1.74,2.98,2.9,4.81,0,4.97,0,7.23.01,10.57-7.04.92-10.56,1.49-17.59,2.83-1.57-1.24-2.35-2-3.92-3.76M158.62,151.4c-3.63-18.4-5.44-33.37-9.09-42.66,2.34,2.64,3.51,4.66,5.84,9.13,2.53,11.31,3.8,20.11,6.32,33.17-1.23.14-1.85.21-3.08.36"/>
          <path class="cls-3" d="M162.15,117.66c1.64,0,2.46,0,4.11.01.99,2.22,1.49,3.42,2.48,5.89-1.17,0-1.76.01-2.94.02-1.46-2.48-2.19-3.69-3.65-5.92M192.84,151.51c1.17,1.95,1.75,2.9,2.92,4.75v10.73c-7.73.19-11.59.43-19.3,1.17-1.55-1.5-2.33-2.33-3.88-4.17,8.1-.93,12.15-1.27,20.26-1.66,0-3.93,0-6.17,0-10.81M178.35,117.78c.91.01,1.37.02,2.29.03,0-4.21,0-6.11,0-9.07,1.22,1.39,1.83,2.19,3.05,3.92,0,1.92,0,2.97,0,5.19.88.01,1.33.02,2.21.04-1.48,3.21-2.22,4.97-3.7,8.67-1.54-3.7-2.31-5.51-3.85-8.78M186.71,148.96c0-2.36,0-3.58,0-6.01,3.94-10.57,5.91-16.1,9.85-24.82,2.12.05,3.18.11,5.3.05v-9.43c1.18,1.72,1.76,2.64,2.94,4.61v10.41c-2.76.06-4.14.12-6.9.05-3.32,7.92-4.99,12.53-8.31,21.28,0,1.5,0,2.25,0,3.72-1.15.05-1.73.08-2.88.14"/>
          <path class="cls-3" d="M216.62,137.53c3.46.09,5.19.16,8.65.3,0-8.58,0-13.06,0-20.09,1.95-.02,2.93-.03,4.88-.05,0,2.21,0,3.39,0,5.86-.8,0-1.19,0-1.99,0,0,7.91,0,12.66,0,21.29-3.16-.22-4.74-.32-7.89-.5-1.46-2.74-2.19-4.12-3.65-6.81M226.35,163.82c7.8.86,11.7,1.41,19.51,2.73,0-3.93,0-6.36-.01-11.5,1.13,2.19,1.69,3.26,2.82,5.34,0,5.39,0,7.81.01,11.16-7.4-1.33-11.1-1.88-18.5-2.75-1.53-1.79-2.29-2.81-3.82-4.99M240.49,151.25c-.01-13.53-.02-22.36-.03-33.59,1.94,0,2.9,0,4.84,0,0,2.27,0,3.5,0,6.07-.74-.01-1.12-.02-1.86-.03,0,10.26.01,16.96.02,27.91-1.19-.15-1.79-.22-2.98-.36M246.66,139.13c3.44.27,5.16.42,8.6.74-.02-15.44-.03-24.34-.04-31.13,1.18,1.37,1.77,2.22,2.95,4.2.02,9.83.03,19.55.05,34.96-3.34-.44-5.01-.65-8.34-1.03-1.28-3.11-1.93-4.67-3.21-7.73"/>
          <path class="cls-3" d="M263.49,124.23c-1.6-2.81-2.41-4.12-4.01-6.48,1.6.02,2.4.03,4,.05,0,2.38,0,3.69,0,6.43M259.55,169.16c7.36,1.55,11.04,2.43,18.39,4.37-.01-4.21-.02-6.94-.03-12.79,1.17,2.36,1.75,3.52,2.92,5.77.01,6.29.02,9.07.03,12.51-6.84-1.94-10.26-2.82-17.11-4.39-1.68-1.91-2.52-3.04-4.2-5.48M273.79,128.06c0-4.4-.01-6.5-.02-10.1,1.63.03,2.44.05,4.07.08,0-4.81-.02-6.85-.03-9.31,1.16,1.05,1.75,1.7,2.91,3.24.01,3.95.02,6.78.03,13.01-1.62-.08-2.42-.12-4.04-.2,0,1.35,0,2.04,0,3.45-1.18-.07-1.76-.11-2.94-.18M273.83,156.37c0-4.83-.01-7.42-.02-12.53,4.42.58,6.63.9,11.06,1.56,0,3.51,0,5.28.02,8.71-3.25-.62-4.87-.92-8.12-1.49,0,1.75,0,2.62,0,4.32-1.18-.23-1.76-.34-2.94-.57M284.83,123.96c-1.11-2.5-1.66-3.68-2.77-5.81,1.1.03,1.65.04,2.75.07,0,2.13,0,3.29.01,5.74M282.17,174.68c7.34,2.03,11.01,3.13,18.34,5.53-.01-4.56-.02-7.58-.03-14.05,1.18,2.87,1.77,4.28,2.95,6.98.02,6.68.02,9.59.04,13.09-7.06-2.48-10.59-3.63-17.65-5.74-1.46-1.99-2.19-3.18-3.65-5.79M295.22,160.9c-.03-17.1-.05-29.02-.08-42.38,2.1.07,3.15.1,5.25.17-.01-5.27-.02-7.46-.03-9.95,1.18,1.19,1.77,1.99,2.95,3.92.01,4.17.02,7.15.03,13.71-2.12-.15-3.18-.22-5.3-.36.03,12.78.04,21.69.07,35.57-1.15-.28-1.73-.41-2.89-.68"/>
          <path class="cls-3" d="M304.75,181.61c6.95,2.35,10.43,3.6,17.37,6.26-.01-5-.02-8.34-.03-15.53,1.17,3.15,1.76,4.7,2.93,7.67.02,7.46.02,10.7.04,14.48-6.22-2.57-9.33-3.79-15.56-6.09-1.9-2.34-2.85-3.73-4.74-6.77M318.23,166.81c.37-2.83.56-4.3.93-7.3,3.9.95,5.85,1.44,9.74,2.45.37,3.33.55,4.99.92,8.21-4.64-1.39-6.96-2.07-11.6-3.36M321.75,139.19c.86-7.28,1.29-10.86,2.14-16.83.69,4.52,1.04,7.12,1.73,12.61-.22,1.85-.33,2.8-.55,4.7-1.33-.19-2-.29-3.33-.48M327.68,190.03c7.47,2.96,11.2,4.53,18.65,7.83-.01-5.6-.02-9.36-.03-17.48,1.16,3.91,1.74,5.83,2.9,9.46.01,7.97.02,11.41.03,15.45-7.04-3.38-10.56-4.99-17.62-8.03-1.57-2.45-2.36-3.94-3.94-7.22M341.25,173.73c-3.64-30.89-5.47-55.2-9.12-64.99,2.34,2.78,3.51,5.37,5.85,11.95,2.54,16.42,3.82,31.58,6.35,54.03-1.23-.4-1.85-.6-3.08-1"/>
          <path class="cls-3" d="M354.47,131.05c-1.6-4.38-2.4-6.4-4-9.95,1.6.1,2.4.15,3.99.25,0,3.52,0,5.5.01,9.7M354.74,207.96c-1.67-2.8-2.51-4.49-4.18-8.21,7.8,3.53,11.69,5.39,19.47,9.26,0-6.3,0-10.54,0-19.67,1.17,3.77,1.75,5.62,2.92,9.19v18.86c-7.27-3.93-10.91-5.82-18.21-9.43M364.76,181.78c-.01-24.13-.02-41.2-.03-59.77,2.11.14,3.17.21,5.27.36,0-7.35,0-10.37,0-13.63,1.18,1.56,1.76,2.65,2.94,5.32v19.15c-2.11-.26-3.16-.39-5.27-.64,0,17.97,0,30.68.01,50.27-1.17-.43-1.76-.64-2.93-1.07"/>
          <path class="cls-4" d="M27.41,206.35v-15.84c2.13-.85,3.2-1.27,5.33-2.1-.02-27.77-.02-50.49-.04-70.33-2.12.1-3.17.15-5.29.26v-9.6h17.16c2.75,7.95,4.13,22.4,6.9,45.82,2.51-24.61,3.75-38.35,6.24-45.82h17.55c.02,2.01.03,3.64.05,7.62-2.12.07-3.18.1-5.3.18.08,16.53.11,35.37.19,58.46,2.12-.69,3.19-1.03,5.31-1.69.02,5.55.03,8.15.05,12.51-6.61,2.47-9.91,3.78-16.54,6.5-.02-4.72-.02-7.54-.04-13.56,1.43-.49,2.14-.74,3.56-1.22-.07-23.27-.1-41.98-.17-59.43-3.53,22.05-5.3,51.08-8.87,76.51-2,.85-3.01,1.28-5.01,2.15-3.8-22.74-5.7-52.74-9.46-77.21.03,19.64.05,40.45.08,66.4,1.48-.56,2.21-.84,3.69-1.39,0,6.52.01,9.58.02,14.69-6.15,2.74-9.24,4.16-15.41,7.1"/>
          <path class="cls-4" d="M85.4,116.06c-2.11.06-3.17.09-5.28.16-.02-3.89-.03-5.49-.05-7.47h16.9c.02,1.9.03,3.4.05,7.02-1.58.04-2.38.06-3.96.1.06,10.62.08,20.14.14,36.37.02,7.23.56,11.93,1.61,14.29,1.05,2.37,2.86,3.06,5.42,2.35,2.54-.7,4.29-2.3,5.25-4.92.96-2.62,1.43-7.58,1.41-15.24-.05-14.82-.08-23.35-.13-33.16-1.64.03-2.46.05-4.11.08-.02-3.54-.03-5-.05-6.89h16.53c.02,1.87.02,3.26.04,6.6-2.09.03-3.13.05-5.22.08.04,8.55.06,15.51.1,28.32.02,6.65-.09,11.39-.33,14.23-.24,2.83-.66,5.39-1.26,7.67-1.11,4.23-2.6,7.11-4.46,9.09-1.87,1.99-4.46,3.44-7.79,4.52-2.77.9-5.1,1.23-6.97.88-1.87-.36-3.37-1.44-4.48-3.49-1.15-2.13-1.97-5.12-2.45-9.03-.49-3.91-.75-11.38-.78-22.13,0-1.72,0-2.58-.01-4.27-.04-11.62-.06-17.46-.1-25.16"/>
          <path class="cls-4" d="M162.35,154.04c-1.81.22-2.71.34-4.52.58-3.84-18.99-5.77-36-9.63-45.87h-12.35c-3.67,9.6-5.49,28.38-9.14,51.17-1.81.37-2.71.57-4.53.96.02,4.44.02,6.54.04,10.12,6.4-1.65,9.6-2.41,16.01-3.78-.01-3.4-.02-5.36-.03-9.52-1.81.33-2.71.49-4.52.84.82-5.01,1.24-7.73,2.06-13.09,4.58-.6,6.88-.87,11.46-1.37.91,4.89,1.36,7.33,2.27,11.74-1.77.27-2.66.41-4.43.7,0,4.04.01,5.96.02,9.29,6.92-1.35,10.38-1.94,17.3-2.94,0-3.21,0-5.03-.01-8.83M137.16,136.38c1.66-10.76,2.49-16.13,4.15-22.93,1.78,6.8,2.67,12.14,4.44,22.23-3.44.26-5.16.4-8.59.7"/>
          <path class="cls-4" d="M162.15,115.16c0-3.03,0-4.36-.01-6.41h17.16c0,2.22,0,3.58,0,6.59-1.46-.02-2.19-.03-3.64-.05,2.64,5.7,3.95,9.31,6.59,16.38,2.58-7.13,3.88-10.54,6.46-16.17-1.47-.03-2.21-.04-3.68-.07,0-3.01,0-4.38,0-6.68h15.52v6.99c-1.86.05-2.79-.05-4.65-.09-4.23,8.87-6.35,14.74-10.57,26.07,0,4.17,0,6.26,0,10.2,2.47-.16,3.7-.22,6.17-.34,0,3.53,0,5.24,0,8.39-7.58.42-11.36.74-18.93,1.6,0-3.17,0-4.94,0-8.63,2.05-.2,3.07-.29,5.12-.46,0-3.91,0-6,0-10.16-4.29-11.32-6.44-18.11-10.74-27.12-1.92-.02-2.88-.02-4.79-.03"/>
          <path class="cls-4" d="M226.2,161.37c0-3.16,0-4.93,0-8.6,2.1.19,3.15.3,5.25.52,0-15.1-.01-25.88-.02-38.08-3,.03-4.5.04-7.5.08,0,6.61,0,10.98,0,19.53-2.92-.09-4.39-.13-7.31-.18,0-12.15,0-18.6,0-25.9h37.32c.02,6.23.02,13.78.04,27.7-2.93-.23-4.39-.33-7.32-.52,0-9.29-.01-14.05-.02-20.79-3.01,0-4.51.01-7.51.03.01,12.28.02,23.56.03,39.02,2.14.26,3.21.4,5.34.7,0,3.88,0,5.74,0,8.99-7.33-1.19-10.99-1.69-18.31-2.48"/>
          <path class="cls-4" d="M259.55,166.61c0-3.37,0-5.32-.01-9.42,2.12.36,3.17.55,5.29.94-.03-17-.04-30.1-.06-42.97-2.11-.01-3.17-.02-5.28-.03,0-3.14,0-4.48-.01-6.4h17.01c0,1.87.01,3.25.02,6.54-1.61-.02-2.42-.03-4.04-.04.01,5.27.02,8.82.03,16.2,5.46.4,8.18.63,13.64,1.12-.01-7.85-.02-11.62-.04-17.13-1.61-.03-2.42-.04-4.04-.06,0-3.34-.01-4.74-.02-6.61h17.03c0,1.89.01,3.36.02,6.92-2.12-.05-3.18-.07-5.3-.11.04,14.13.06,29.58.1,48.91,2.12.53,3.18.8,5.3,1.35,0,4.89.01,7.19.02,11.07-6.82-2.12-10.23-3.11-17.06-4.93,0-3.62-.01-5.76-.02-10.27,1.62.36,2.43.55,4.04.92-.01-7.8-.02-12.39-.04-20.97-5.46-.73-8.19-1.06-13.64-1.68.01,8.05.02,12.33.03,19.68,1.62.33,2.42.49,4.04.84,0,4.41.01,6.49.02,10.04-6.82-1.72-10.23-2.5-17.05-3.89"/>
          <path class="cls-4" d="M344.99,179.91c-1.81-.64-2.72-.96-4.53-1.58-3.86-31.56-5.8-59.2-9.67-69.59h-12.35c-3.67,9.96-5.51,34.93-9.18,59.8-1.82-.51-2.72-.76-4.54-1.26,0,5.02.02,7.38.03,11.35,6.43,2.09,9.64,3.2,16.07,5.54-.01-4.27-.02-6.82-.03-12.24-1.81-.55-2.72-.83-4.54-1.37.83-5.83,1.24-9.12,2.07-15.74,4.6,1.01,6.89,1.53,11.49,2.62.91,7.42,1.36,11.2,2.28,18.07-1.78-.58-2.66-.87-4.44-1.44.01,5.62.02,8.25.03,12.66,6.94,2.65,10.41,4.04,17.34,6.96,0-4.79-.01-7.67-.02-13.79M319.75,143.48c1.66-13.65,2.5-20.9,4.16-29.27,1.78,8.45,2.67,15.88,4.45,30.72-3.44-.6-5.16-.89-8.61-1.45"/>
          <path class="cls-4" d="M363.47,186.76c2.11.82,3.17,1.23,5.27,2.07,0,6.89,0,10.12,0,15.51-7.27-3.45-10.91-5.11-18.2-8.27,0-4.92-.01-7.88-.02-14.17,2.11.77,3.16,1.16,5.27,1.94-.02-26.18-.04-47.61-.06-66.31-2.11-.09-3.17-.14-5.28-.23,0-4.49-.01-6.33-.02-8.56h18.28c0,2.46,0,4.47,0,9.39-2.12-.1-3.18-.15-5.29-.25.01,19.43.02,41.68.04,68.88"/>
          <path class="cls-6" d="M173.62,198.77s0-.09,0-.16c0-.07,0-.13,0-.16,0-.95.29-1.85.88-2.7.58-.85,1.53-1.73,2.83-2.64.34-.25.82-.56,1.42-.95,1.45-.93,2.18-1.74,2.18-2.43,0-.53-.14-.94-.43-1.24-.29-.3-.68-.45-1.19-.45-.63,0-1.1.2-1.41.6-.31.4-.47,1.01-.47,1.82v.23h-3.55s0-.12,0-.2c0-.08,0-.14,0-.18,0-1.65.5-2.95,1.5-3.88,1-.94,2.38-1.41,4.14-1.41,1.61,0,2.89.4,3.86,1.19.96.79,1.44,1.84,1.44,3.14,0,.86-.19,1.57-.56,2.14-.37.57-1.13,1.2-2.28,1.9-.14.09-.36.22-.66.4-1.1.65-1.94,1.21-2.52,1.7h5.99v3.28h-11.14Z"/>
          <path class="cls-6" d="M187.38,192.07c0-2.31.49-4.07,1.49-5.27.99-1.2,2.45-1.79,4.37-1.79s3.4.6,4.39,1.79c1,1.19,1.5,2.95,1.5,5.27s-.5,4.08-1.5,5.28c-1,1.2-2.46,1.8-4.39,1.8s-3.37-.6-4.37-1.8c-.99-1.2-1.49-2.96-1.49-5.27M195.06,192.07c0-1.45-.14-2.48-.42-3.07-.28-.6-.75-.89-1.41-.89s-1.14.3-1.41.88c-.28.59-.42,1.62-.42,3.08s.14,2.49.42,3.07c.28.58.75.88,1.41.88s1.13-.29,1.41-.88c.28-.59.42-1.61.42-3.06"/>
          <path class="cls-6" d="M201.36,198.77s0-.09,0-.16c0-.07,0-.13,0-.16,0-.95.29-1.85.88-2.7.58-.85,1.53-1.73,2.83-2.64.34-.25.82-.56,1.42-.95,1.45-.93,2.18-1.74,2.18-2.43,0-.53-.14-.94-.43-1.24-.29-.3-.68-.45-1.19-.45-.63,0-1.1.2-1.41.6-.31.4-.46,1.01-.46,1.82v.23h-3.55s0-.12,0-.2c0-.08,0-.14,0-.18,0-1.65.5-2.95,1.5-3.88,1-.94,2.38-1.41,4.14-1.41,1.61,0,2.89.4,3.85,1.19.96.79,1.44,1.84,1.44,3.14,0,.86-.19,1.57-.56,2.14-.37.57-1.13,1.2-2.28,1.9-.14.09-.36.22-.66.4-1.1.65-1.94,1.21-2.52,1.7h5.99v3.28h-11.14Z"/>
          <path class="cls-6" d="M221.33,198.77v-2.78h-6.15v-3.24l6.24-7.35h3.72v7.55h1.58v3.04h-1.58v2.78h-3.81ZM218.2,192.95h3.22v-3.9l-3.22,3.9Z"/>
          <rect class="cls-6" x="153.43" y="188.31" width="9.04" height="9.04" transform="translate(-90.09 168.16) rotate(-45)"/>
          <rect class="cls-6" x="237.89" y="188.31" width="9.04" height="9.04" transform="translate(-65.35 227.88) rotate(-45)"/>
          <path class="cls-4" d="M154.2,219.1c.35,0,.86-.01,1.55-.04.68-.03,1.2-.04,1.55-.04,1.41,0,2.49.03,3.23.09,1.67.14,2.99.41,3.97.83.98.42,1.78,1.07,2.39,1.95.94,1.35,1.41,2.91,1.41,4.68,0,.72-.06,1.4-.18,2.05-.61,3.32-2.26,6.01-4.97,8.09-2.2,1.69-4.88,2.54-8.05,2.54-2.12,0-3.72-.01-4.78-.05-.15-.03-.39-.04-.73-.04-.57,0-1.43.03-2.59.09.86-3.85,1.55-7.29,2.08-10.33.16-.83.35-1.82.56-2.99.05-.24.24-1.68.59-4.32.05-.41.16-1.28.32-2.6,1.63.06,2.84.08,3.63.08M154.1,237.51c1.45,0,2.67-.18,3.65-.54,1.01-.38,1.97-1.09,2.87-2.13,1.39-1.6,2.3-3.7,2.72-6.28.13-.76.19-1.38.19-1.85,0-1.68-.35-3.01-1.05-4.01-.94-1.33-2.7-2-5.29-2,.17,0-.55.05-2.15.14-.73,3.48-1.66,8.4-2.78,14.78-.03.17-.07.44-.13.8l-.18,1.07c.49.02,1.21.04,2.15.04"/>
          <path class="cls-4" d="M177.55,222.98c-.29,1.28-.69,3.2-1.21,5.77-.12.67-.28,1.79-.5,3.34l-.41,2.8c-.11.97-.29,2.43-.55,4.36-1.51-.09-2.27-.13-2.28-.13-.92,0-1.81.05-2.68.13.79-3,1.57-6.62,2.32-10.87.04-.29.13-.82.26-1.59.06-.32.15-.87.28-1.64.08-.45.2-1.16.37-2.13.21-1.46.36-2.79.45-4,1.15.12,1.95.18,2.41.18s1.25-.06,2.41-.18c-.44,1.87-.74,3.19-.88,3.96"/>
          <path class="cls-4" d="M190.76,223.37c-.12.61-.29,1.47-.5,2.58-.21,1.07-.52,2.66-.91,4.8l-.36,2.18c-.12.71-.21,1.24-.28,1.6-.13,1.05-.36,2.63-.69,4.73-1.31-.09-2.09-.13-2.36-.13s-.66.02-1.22.06l-1.23.08c.1-.47.25-1.15.47-2.04.1-.41.24-1.12.44-2.14l1.95-10.05c.16-.9.36-2.15.59-3.76-.92,0-1.8.03-2.63.09-.64.04-1.61.15-2.91.31.28-.61.45-1.36.5-2.27,0-.09-.02-.21-.05-.37.61.04,1.35.07,2.22.09,2.65.08,4.44.12,5.38.12h3.04c.51,0,1.28-.03,2.3-.1,1.02-.07,1.79-.1,2.3-.1-.17.52-.28.92-.32,1.18-.09.56-.13,1.05-.13,1.45-1.71-.26-3.43-.4-5.15-.4l-.46,2.11Z"/>
          <path class="cls-4" d="M202.28,219.1c.41,0,1.04-.01,1.86-.04.83-.03,1.45-.04,1.87-.04,1.52,0,2.58.06,3.18.19,2.18.46,3.27,1.79,3.27,4,0,.27-.03.58-.09.91-.32,1.82-1.11,3.27-2.37,4.36-1.07.93-2.56,1.55-4.45,1.87-.79.02-1.95.08-3.51.19-.13.8-.34,2.16-.63,4.08-.26,1.71-.47,3.26-.63,4.64-1.64-.09-2.45-.14-2.42-.14-.25,0-.66.02-1.22.06l-1.23.08c.08-.34.2-.86.37-1.54.2-.78.46-1.85.78-3.23.12-.73.37-2.23.77-4.51.11-.57.24-1.4.42-2.48l.49-2.93c.17-1.07.31-1.9.41-2.49.19-1.1.32-2.12.4-3.05.61.06,1.52.08,2.73.08M203.21,224.25c-.1.46-.25,1.3-.46,2.51-.08.47-.22,1.18-.42,2.13,1-.07,1.66-.14,2-.22,1.75-.44,2.83-1.78,3.23-4.01.09-.49.13-.92.13-1.28,0-.9-.29-1.63-.86-2.17-.35-.33-1.32-.5-2.9-.5l-.72,3.55Z"/>
          <path class="cls-4" d="M216.15,235.46c-.23.46,2.82-2.37,15.58-6.1,5.05-1.48,8.02-1.96,13.25-2.51l5.24-5.93c-9.36,1.13-13.79,2.33-22.06,5.76-3.83,1.59-10.3,5.47-12.01,8.79"/>
          <path class="cls-4" d="M216.46,232.85c-1.9,1.68-3.09,3.73-2.01,4.89,2.38,2.57,32.42.32,45.52.24l6.9-6.46c-14.13,1.91-14.71,1.94-24.16,2.82-10.76.99-26.12,3.4-27.65,1.8-.53-.56.69-2.24,1.4-3.29"/>
          <path class="cls-4" d="M217.95,231.02c4.99-3.92,8.15-5.81,13.95-8.38,4.99-2.19,7.97-3.15,13.32-4.23l6.42-7.63c-7.15,1.75-12.6,3.5-19.56,7.87-6.21,3.89-9.45,6.73-14.13,12.37"/>
        </g>
      </g>
    </g>
  </g>
</svg>