<svg width="1073" height="463" viewBox="0 0 1073 463" fill="none" xmlns="http://www.w3.org/2000/svg">
<g clip-path="url(#clip0_59_4)">
<path d="M4.87 352.41H23.72C31.03 352.41 38.54 355.76 38.54 364.57C38.54 370.03 35.12 373.66 30.14 375.16V375.3C36.22 375.98 40.59 380.76 40.59 386.98C40.59 397.5 31.44 400.78 22.28 400.78H4.87V352.41ZM13.48 372.08H21.34C27.08 372.08 29.95 369.62 29.95 366C29.95 361.83 27.08 359.78 20.59 359.78H13.49V372.08H13.48ZM13.48 393.39H21.4C25.84 393.39 31.99 392.64 31.99 386.29C31.99 381.23 28.71 379.46 21.74 379.46H13.47V393.4L13.48 393.39Z" fill="black"/>
<path d="M78.92 400.77H71.13V395.51H70.99C69.49 398.79 66.41 401.59 60.95 401.59C52.14 401.59 49 395.37 49 388.68V367.98H57.2V384.58C57.2 388.2 57.47 394.21 63.21 394.21C68.61 394.21 70.72 390.25 70.72 385.88V367.98H78.92V400.77Z" fill="black"/>
<path d="M95.39 387.25C95.94 392.1 99.63 395.04 104.2 395.04C108.3 395.04 110.96 393.13 113.01 390.6L118.88 395.04C115.05 399.75 110.2 401.6 105.01 401.6C95.1 401.6 87.18 394.7 87.18 384.39C87.18 374.08 95.1 367.17 105.01 367.17C114.16 367.17 120.38 373.59 120.38 385V387.25H95.38H95.39ZM112.2 381.1C112.13 376.32 108.99 373.31 103.87 373.31C99.02 373.31 96.01 376.38 95.4 381.1H112.21H112.2Z" fill="black"/>
<path d="M128.66 367.98H136.45V373.24H136.59C138.09 369.96 141.17 367.16 146.63 367.16C155.44 367.16 158.58 373.38 158.58 380.07V400.77H150.38V384.17C150.38 380.55 150.11 374.54 144.37 374.54C138.97 374.54 136.86 378.5 136.86 382.87V400.77H128.66V367.98Z" fill="black"/>
<path d="M184.68 367.16C194.59 367.16 202.51 374.06 202.51 384.38C202.51 394.7 194.59 401.59 184.68 401.59C174.77 401.59 166.85 394.69 166.85 384.38C166.85 374.07 174.77 367.16 184.68 367.16ZM184.68 394.21C190.69 394.21 194.31 389.5 194.31 384.37C194.31 379.24 190.69 374.53 184.68 374.53C178.67 374.53 175.05 379.24 175.05 384.37C175.05 389.5 178.67 394.21 184.68 394.21Z" fill="black"/>
<path d="M228.27 377.07C226.7 374.88 224.65 373.72 221.85 373.72C219.66 373.72 217.07 374.74 217.07 377.2C217.07 383.08 234.76 378.29 234.76 391.07C234.76 398.86 227.31 401.59 220.62 401.59C215.56 401.59 211.19 400.29 207.85 396.53L213.32 391.41C215.44 393.73 217.62 395.44 221.11 395.44C223.5 395.44 226.58 394.28 226.58 391.68C226.58 384.92 208.89 390.25 208.89 377.74C208.89 370.43 215.45 367.15 222.07 367.15C226.44 367.15 231.09 368.52 233.75 372.14L228.28 377.06L228.27 377.07Z" fill="black"/>
<path d="M278.96 352.41H286.41L307.25 400.78H297.41L292.9 389.71H271.93L267.56 400.78H257.93L278.97 352.41H278.96ZM289.89 382.33L282.44 362.66L274.86 382.33H289.89Z" fill="black"/>
<path d="M316.67 351.93C319.68 351.93 322 354.05 322 356.85C322 359.65 319.68 361.77 316.67 361.77C313.66 361.77 311.48 359.45 311.48 356.85C311.48 354.25 313.67 351.93 316.67 351.93ZM312.64 367.98H320.84V400.77H312.64V367.98Z" fill="black"/>
<path d="M330.88 367.98H339.08V373.17H339.22C341 369.41 344.62 367.16 348.92 367.16C349.94 367.16 350.9 367.37 351.86 367.64V375.56C350.49 375.22 349.2 374.94 347.9 374.94C340.18 374.94 339.09 381.43 339.09 383.21V400.77H330.89V367.98H330.88Z" fill="black"/>
<path d="M363.4 387.25C363.95 392.1 367.64 395.04 372.21 395.04C376.31 395.04 378.97 393.13 381.02 390.6L386.89 395.04C383.06 399.75 378.21 401.6 373.02 401.6C363.11 401.6 355.19 394.7 355.19 384.39C355.19 374.08 363.11 367.17 373.02 367.17C382.17 367.17 388.39 373.59 388.39 385V387.25H363.39H363.4ZM380.21 381.1C380.14 376.32 377 373.31 371.88 373.31C367.03 373.31 364.02 376.38 363.41 381.1H380.22H380.21Z" fill="black"/>
<path d="M414.16 377.07C412.59 374.88 410.54 373.72 407.74 373.72C405.55 373.72 402.96 374.74 402.96 377.2C402.96 383.08 420.65 378.29 420.65 391.07C420.65 398.86 413.2 401.59 406.51 401.59C401.45 401.59 397.08 400.29 393.74 396.53L399.21 391.41C401.33 393.73 403.51 395.44 407 395.44C409.39 395.44 412.47 394.28 412.47 391.68C412.47 384.92 394.78 390.25 394.78 377.74C394.78 370.43 401.34 367.15 407.96 367.15C412.33 367.15 416.98 368.52 419.64 372.14L414.17 377.06L414.16 377.07Z" fill="black"/>
<path d="M449.2 352.41H468.05C475.36 352.41 482.87 355.76 482.87 364.57C482.87 370.03 479.45 373.66 474.47 375.16V375.3C480.55 375.98 484.92 380.76 484.92 386.98C484.92 397.5 475.77 400.78 466.61 400.78H449.19V352.41H449.2ZM457.81 372.08H465.67C471.41 372.08 474.28 369.62 474.28 366C474.28 361.83 471.41 359.78 464.92 359.78H457.82V372.08H457.81ZM457.81 393.39H465.73C470.17 393.39 476.32 392.64 476.32 386.29C476.32 381.23 473.04 379.46 466.07 379.46H457.8V393.4L457.81 393.39Z" fill="black"/>
<path d="M523.26 400.77H515.47V395.51H515.33C513.83 398.79 510.75 401.59 505.29 401.59C496.48 401.59 493.34 395.37 493.34 388.68V367.98H501.54V384.58C501.54 388.2 501.81 394.21 507.55 394.21C512.95 394.21 515.06 390.25 515.06 385.88V367.98H523.26V400.77Z" fill="black"/>
<path d="M550.65 377.07C549.08 374.88 547.03 373.72 544.23 373.72C542.04 373.72 539.45 374.74 539.45 377.2C539.45 383.08 557.14 378.29 557.14 391.07C557.14 398.86 549.69 401.59 543 401.59C537.94 401.59 533.57 400.29 530.23 396.53L535.7 391.41C537.82 393.73 540 395.44 543.49 395.44C545.88 395.44 548.96 394.28 548.96 391.68C548.96 384.92 531.27 390.25 531.27 377.74C531.27 370.43 537.83 367.15 544.45 367.15C548.82 367.15 553.47 368.52 556.13 372.14L550.66 377.06L550.65 377.07Z" fill="black"/>
<path d="M568.28 351.93C571.29 351.93 573.61 354.05 573.61 356.85C573.61 359.65 571.29 361.77 568.28 361.77C565.27 361.77 563.09 359.45 563.09 356.85C563.09 354.25 565.28 351.93 568.28 351.93ZM564.25 367.98H572.45V400.77H564.25V367.98Z" fill="black"/>
<path d="M582.49 367.98H590.28V373.24H590.42C591.92 369.96 595 367.16 600.46 367.16C609.27 367.16 612.41 373.38 612.41 380.07V400.77H604.21V384.17C604.21 380.55 603.94 374.54 598.2 374.54C592.8 374.54 590.69 378.5 590.69 382.87V400.77H582.49V367.98Z" fill="black"/>
<path d="M628.88 387.25C629.43 392.1 633.12 395.04 637.69 395.04C641.79 395.04 644.45 393.13 646.5 390.6L652.38 395.04C648.55 399.75 643.7 401.6 638.51 401.6C628.6 401.6 620.68 394.7 620.68 384.39C620.68 374.08 628.6 367.17 638.51 367.17C647.66 367.17 653.88 373.59 653.88 385V387.25H628.88ZM645.69 381.1C645.62 376.32 642.48 373.31 637.36 373.31C632.51 373.31 629.5 376.38 628.89 381.1H645.7H645.69Z" fill="black"/>
<path d="M679.63 377.07C678.06 374.88 676.01 373.72 673.21 373.72C671.02 373.72 668.43 374.74 668.43 377.2C668.43 383.08 686.12 378.29 686.12 391.07C686.12 398.86 678.67 401.59 671.98 401.59C666.92 401.59 662.55 400.29 659.21 396.53L664.68 391.41C666.8 393.73 668.98 395.44 672.47 395.44C674.86 395.44 677.94 394.28 677.94 391.68C677.94 384.92 660.25 390.25 660.25 377.74C660.25 370.43 666.81 367.15 673.43 367.15C677.8 367.15 682.45 368.52 685.11 372.14L679.64 377.06L679.63 377.07Z" fill="black"/>
<path d="M710.58 377.07C709.01 374.88 706.96 373.72 704.16 373.72C701.97 373.72 699.38 374.74 699.38 377.2C699.38 383.08 717.07 378.29 717.07 391.07C717.07 398.86 709.62 401.59 702.93 401.59C697.87 401.59 693.5 400.29 690.16 396.53L695.63 391.41C697.75 393.73 699.93 395.44 703.42 395.44C705.81 395.44 708.89 394.28 708.89 391.68C708.89 384.92 691.2 390.25 691.2 377.74C691.2 370.43 697.76 367.15 704.38 367.15C708.75 367.15 713.4 368.52 716.06 372.14L710.59 377.06L710.58 377.07Z" fill="black"/>
<path d="M745.83 352.41H758.95L771.86 386.29L784.91 352.41H797.89V400.78H789.69V360.61H789.55L774.86 400.78H768.85L754.16 360.61H754.02V400.78H745.82V352.41H745.83Z" fill="black"/>
<path d="M829.25 396.26H829.05C826.73 399.95 822.9 401.59 818.53 401.59C812.45 401.59 806.58 398.24 806.58 391.75C806.58 381.09 819.01 380.34 827.21 380.34H829.26V379.45C829.26 375.42 826.12 373.3 821.75 373.3C818.33 373.3 815.19 374.67 813.01 376.72L808.71 372.42C812.33 368.73 817.45 367.16 822.65 367.16C836.65 367.16 836.65 377.27 836.65 381.92V400.77H829.27V396.26H829.25ZM828.77 386.08H827.06C822.55 386.08 814.76 386.42 814.76 391.14C814.76 394.15 817.83 395.44 820.5 395.44C826.1 395.44 828.77 392.5 828.77 387.93V386.09V386.08Z" fill="black"/>
<path d="M868.46 377.82C866.55 375.84 864.43 374.54 862.24 374.54C856.23 374.54 852.61 379.25 852.61 384.38C852.61 389.51 856.23 394.22 862.24 394.22C864.77 394.22 867.09 393.13 868.59 391.15L874.06 397.03C870.71 400.38 865.11 401.61 862.24 401.61C852.33 401.61 844.41 394.71 844.41 384.4C844.41 374.09 852.33 367.18 862.24 367.18C866.41 367.18 870.98 368.68 874.13 372.17L868.46 377.84V377.82Z" fill="black"/>
<path d="M875.77 374.95V367.98H882.53V358.48H890.73V367.98H899.75V374.95H890.73V389.3C890.73 392.58 891.69 394.63 895.31 394.63C896.74 394.63 898.73 394.36 899.75 393.61V400.51C898.04 401.33 895.17 401.6 893.26 401.6C884.58 401.6 882.53 397.71 882.53 389.99V374.96H875.77V374.95Z" fill="black"/>
<path d="M929.2 377.82C927.29 375.84 925.17 374.54 922.98 374.54C916.97 374.54 913.35 379.25 913.35 384.38C913.35 389.51 916.97 394.22 922.98 394.22C925.51 394.22 927.83 393.13 929.33 391.15L934.8 397.03C931.45 400.38 925.85 401.61 922.98 401.61C913.07 401.61 905.15 394.71 905.15 384.4C905.15 374.09 913.07 367.18 922.98 367.18C927.15 367.18 931.72 368.68 934.87 372.17L929.2 377.84V377.82Z" fill="black"/>
<path d="M948.53 372.56H948.67C949.97 369.83 953.25 367.16 958.3 367.16C967.11 367.16 970.25 373.38 970.25 380.07V400.77H962.05V384.17C962.05 380.55 961.78 374.54 956.04 374.54C950.64 374.54 948.53 378.5 948.53 382.87V400.77H940.33V349.12H948.53V372.55V372.56Z" fill="black"/>
<path d="M984.33 351.93C987.34 351.93 989.66 354.05 989.66 356.85C989.66 359.65 987.34 361.77 984.33 361.77C981.32 361.77 979.14 359.45 979.14 356.85C979.14 354.25 981.33 351.93 984.33 351.93ZM980.3 367.98H988.5V400.77H980.3V367.98Z" fill="black"/>
<path d="M998.54 367.98H1006.33V373.24H1006.47C1007.97 369.96 1011.05 367.16 1016.51 367.16C1025.32 367.16 1028.46 373.38 1028.46 380.07V400.77H1020.26V384.17C1020.26 380.55 1019.99 374.54 1014.25 374.54C1008.85 374.54 1006.74 378.5 1006.74 382.87V400.77H998.54V367.98Z" fill="black"/>
<path d="M1072.11 367.98V397.83C1072.11 409.65 1066.37 417.16 1053.6 417.16C1047.52 417.16 1041.99 415.86 1037.34 411.76L1042.26 405.07C1045.54 408.08 1048.95 409.78 1053.53 409.78C1061.45 409.78 1063.91 405.27 1063.91 398.78V396.39H1063.77C1061.38 399.6 1057.14 401.17 1053.04 401.17C1043.2 401.17 1036.71 393.66 1036.71 384.37C1036.71 375.08 1042.79 367.15 1052.9 367.15C1057.48 367.15 1061.78 368.93 1064.17 372.89H1064.31V367.97H1072.1L1072.11 367.98ZM1044.92 384.31C1044.92 389.5 1049.02 393.81 1054.55 393.81C1060.63 393.81 1064.32 389.64 1064.32 384.18C1064.32 378.72 1060.56 374.55 1054.62 374.55C1048.68 374.55 1044.92 378.51 1044.92 384.32V384.31Z" fill="black"/>
<path d="M10.63 432.83H0V430.19H24.15V432.83H13.52V461.29H10.62V432.83H10.63Z" fill="black"/>
<path d="M30.92 430.19H33.82V443.89H51.21V430.19H54.11V461.28H51.21V446.52H33.82V461.28H30.92V430.19Z" fill="black"/>
<path d="M74.13 430.19H77.12L90.21 461.28H86.96L83.58 453.02H67.11L63.6 461.28H60.57L74.14 430.19H74.13ZM75.49 433.35L68.24 450.39H82.51L75.48 433.35H75.49Z" fill="black"/>
<path d="M96.66 430.19H99.56V461.28H96.66V430.19Z" fill="black"/>
<path d="M123.45 430.19H126.35V461.28H123.45V430.19Z" fill="black"/>
<path d="M136.85 430.19H140.58L159.51 457.42H159.6V430.19H162.5V461.28H158.77L139.84 434.05H139.75V461.28H136.85V430.19Z" fill="black"/>
<path d="M179.89 432.83H169.26V430.19H193.41V432.83H182.78V461.29H179.88V432.83H179.89Z" fill="black"/>
<path d="M200.18 430.19H219.2V432.83H203.08V443.9H218.19V446.53H203.08V458.65H219.9V461.28H200.18V430.19Z" fill="black"/>
<path d="M228.2 430.19H236.37C238.83 430.19 247.44 430.19 247.44 438.36C247.44 444.29 242.92 445.91 239.49 446.35L248.54 461.28H245.25L236.51 446.52H231.11V461.28H228.21V430.19H228.2ZM231.1 443.89H237.25C243.35 443.89 244.54 440.51 244.54 438.36C244.54 436.21 243.35 432.83 237.25 432.83H231.1V443.9V443.89Z" fill="black"/>
<path d="M256.22 430.19H259.95L278.88 457.42H278.97V430.19H281.87V461.28H278.14L259.21 434.05H259.12V461.28H256.22V430.19Z" fill="black"/>
<path d="M301.89 430.19H304.88L317.97 461.28H314.72L311.34 453.02H294.87L291.36 461.28H288.33L301.9 430.19H301.89ZM303.25 433.35L296 450.39H310.27L303.24 433.35H303.25Z" fill="black"/>
<path d="M328.33 432.83H317.7V430.19H341.85V432.83H331.22V461.29H328.32V432.83H328.33Z" fill="black"/>
<path d="M348.62 430.19H351.52V461.28H348.62V430.19Z" fill="black"/>
<path d="M376.07 429.4C385.56 429.4 392.14 436.25 392.14 445.74C392.14 455.23 385.55 462.08 376.07 462.08C366.59 462.08 360 455.23 360 445.74C360 436.25 366.59 429.4 376.07 429.4ZM376.07 459.44C384.19 459.44 389.24 453.47 389.24 445.74C389.24 438.01 384.19 432.04 376.07 432.04C367.95 432.04 362.9 438.01 362.9 445.74C362.9 453.47 367.95 459.44 376.07 459.44Z" fill="black"/>
<path d="M400.62 430.19H404.35L423.28 457.42H423.37V430.19H426.27V461.28H422.54L403.61 434.05H403.52V461.28H400.62V430.19Z" fill="black"/>
<path d="M446.3 430.19H449.29L462.38 461.28H459.13L455.75 453.02H439.28L435.77 461.28H432.74L446.31 430.19H446.3ZM447.66 433.35L440.41 450.39H454.68L447.65 433.35H447.66Z" fill="black"/>
<path d="M468.83 430.19H471.73V458.65H486.22V461.28H468.83V430.19Z" fill="black"/>
<path d="M513.05 432.83H502.42V430.19H526.57V432.83H515.94V461.29H513.04V432.83H513.05Z" fill="black"/>
<path d="M533.34 430.19H541.51C543.97 430.19 552.58 430.19 552.58 438.36C552.58 444.29 548.06 445.91 544.63 446.35L553.68 461.28H550.39L541.65 446.52H536.25V461.28H533.35V430.19H533.34ZM536.24 443.89H542.39C548.49 443.89 549.68 440.51 549.68 438.36C549.68 436.21 548.49 432.83 542.39 432.83H536.24V443.9V443.89Z" fill="black"/>
<path d="M570.89 430.19H573.88L586.97 461.28H583.72L580.34 453.02H563.87L560.36 461.28H557.33L570.9 430.19H570.89ZM572.25 433.35L565 450.39H579.27L572.24 433.35H572.25Z" fill="black"/>
<path d="M593.03 430.19H602.65C618.81 430.19 619.47 443.45 619.47 445.74C619.47 448.03 618.81 461.29 602.65 461.29H593.03V430.2V430.19ZM595.93 458.65H601.9C610.16 458.65 616.57 454.65 616.57 445.74C616.57 436.83 610.16 432.83 601.9 432.83H595.93V458.65Z" fill="black"/>
<path d="M627.95 430.19H646.97V432.83H630.85V443.9H645.96V446.53H630.85V458.65H647.67V461.28H627.95V430.19Z" fill="black"/>
<path d="M668.96 430.19H678.58C694.74 430.19 695.4 443.45 695.4 445.74C695.4 448.03 694.74 461.29 678.58 461.29H668.96V430.2V430.19ZM671.86 458.65H677.83C686.09 458.65 692.5 454.65 692.5 445.74C692.5 436.83 686.09 432.83 677.83 432.83H671.86V458.65Z" fill="black"/>
<path d="M703.88 430.19H722.9V432.83H706.78V443.9H721.89V446.53H706.78V458.65H723.6V461.28H703.88V430.19Z" fill="black"/>
<path d="M731.9 430.19H734.8V458.65H749.29V461.28H731.9V430.19Z" fill="black"/>
<path d="M755.84 430.19H774.86V432.83H758.74V443.9H773.85V446.53H758.74V458.65H775.56V461.28H755.84V430.19Z" fill="black"/>
<path d="M809.5 459.26C805.9 461.32 801.95 462.07 797.91 462.07C788.42 462.07 781.84 455.22 781.84 445.73C781.84 436.24 788.43 429.39 797.91 429.39C802.52 429.39 806.25 430.8 809.11 433.69L807 435.89C805.11 433.61 801.29 432.03 797.91 432.03C789.79 432.03 784.74 438 784.74 445.73C784.74 453.46 789.79 459.43 797.91 459.43C801.25 459.43 804.23 458.99 806.61 457.59V447.14H799.14V444.51H809.5V459.27V459.26Z" fill="black"/>
<path d="M829.53 430.19H832.52L845.61 461.28H842.36L838.98 453.02H822.51L819 461.28H815.97L829.54 430.19H829.53ZM830.89 433.35L823.64 450.39H837.91L830.88 433.35H830.89Z" fill="black"/>
<path d="M855.97 432.83H845.34V430.19H869.49V432.83H858.86V461.29H855.96V432.83H855.97Z" fill="black"/>
<path d="M876.26 430.19H879.16V461.28H876.26V430.19Z" fill="black"/>
<path d="M903.71 429.4C913.2 429.4 919.78 436.25 919.78 445.74C919.78 455.23 913.19 462.08 903.71 462.08C894.23 462.08 887.64 455.23 887.64 445.74C887.64 436.25 894.23 429.4 903.71 429.4ZM903.71 459.44C911.83 459.44 916.88 453.47 916.88 445.74C916.88 438.01 911.83 432.04 903.71 432.04C895.59 432.04 890.54 438.01 890.54 445.74C890.54 453.47 895.59 459.44 903.71 459.44Z" fill="black"/>
<path d="M928.26 430.19H931.99L950.92 457.42H951.01V430.19H953.91V461.28H950.18L931.25 434.05H931.16V461.28H928.26V430.19Z" fill="black"/>
<path d="M975.34 458.21L987.02 445.87C989.08 443.72 991.46 441.17 991.46 437.83C991.46 434.23 988.82 432.03 985.27 432.03C982.06 432.03 979.69 434.09 979.03 437.12L975.96 436.81C976.97 432.02 980.62 429.65 985.4 429.65C990.18 429.65 994.36 432.59 994.36 437.6C994.36 442.61 991.15 445.68 987.95 448.93L978.24 458.9H994.58V461.27H975.35V458.2L975.34 458.21Z" fill="black"/>
<path d="M1009.77 429.66C1018.51 429.66 1020.05 438.97 1020.05 445.73C1020.05 452.49 1018.51 461.8 1009.77 461.8C1001.03 461.8 999.49 452.49 999.49 445.73C999.49 438.97 1001.03 429.66 1009.77 429.66ZM1009.77 459.43C1016.36 459.43 1017.15 450.56 1017.15 445.73C1017.15 440.9 1016.36 432.03 1009.77 432.03C1003.18 432.03 1002.39 440.9 1002.39 445.73C1002.39 450.56 1003.18 459.43 1009.77 459.43Z" fill="black"/>
<path d="M1024.97 458.21L1036.65 445.87C1038.71 443.72 1041.09 441.17 1041.09 437.83C1041.09 434.23 1038.45 432.03 1034.9 432.03C1031.69 432.03 1029.32 434.09 1028.66 437.12L1025.59 436.81C1026.6 432.02 1030.25 429.65 1035.03 429.65C1039.81 429.65 1043.99 432.59 1043.99 437.6C1043.99 442.61 1040.78 445.68 1037.58 448.93L1027.87 458.9H1044.21V461.27H1024.98V458.2L1024.97 458.21Z" fill="black"/>
<path d="M1052.64 454.78C1053.78 457.77 1055.67 459.44 1059.18 459.44C1063.79 459.44 1066.12 456.41 1066.12 452.68C1066.12 448.07 1061.86 446.27 1057.91 446.27H1056.77V443.64H1058.09C1061.43 443.64 1065.03 442.02 1065.03 437.76C1065.03 434.47 1062.75 432.05 1059.28 432.05C1056.73 432.05 1054.58 433.46 1053.4 435.69L1050.9 434.28C1052.61 431.07 1055.73 429.67 1059.29 429.67C1064.03 429.67 1067.94 432.3 1067.94 437.66C1067.94 441.04 1066.01 443.9 1062.41 444.86V444.95C1066.36 445.65 1069.04 448.95 1069.04 452.9C1069.04 457.82 1065.83 461.81 1059.42 461.81C1054.76 461.81 1051.43 459.92 1049.8 455.71L1052.65 454.79L1052.64 454.78Z" fill="black"/>
<path d="M404.32 186.97C411.54 192.97 418.2 199.63 424.2 206.85C432.71 203.76 441.73 201.77 451.11 201.03C456.39 185.62 459.26 169.09 459.26 151.91C442.08 151.91 425.55 154.78 410.14 160.06C409.4 169.44 407.41 178.46 404.32 186.97Z" fill="#DE1018"/>
<path d="M487.13 277.64C486.23 277.15 485.33 276.68 484.42 276.21C483.51 275.74 482.6 275.29 481.69 274.84C474.56 280.93 466.78 285.89 458.61 289.72C459.04 294.36 459.27 299.06 459.27 303.81H522.19C511.56 293.18 499.73 284.46 487.14 277.65L487.13 277.64Z" fill="#DE1018"/>
<path d="M190.52 206.85C196.52 199.63 203.18 192.97 210.4 186.97C207.31 178.46 205.32 169.43 204.58 160.06C189.17 154.78 172.64 151.91 155.46 151.91C155.46 161.58 156.37 171.03 158.1 180.2C158.68 183.26 159.35 186.28 160.11 189.27C161.12 193.26 162.29 197.18 163.61 201.03C172.99 201.77 182.01 203.76 190.52 206.85Z" fill="#DE1018"/>
<path d="M307.36 48.8C322.96 48.8 337.75 52.29 351.02 58.51C371.17 49.22 392.96 44.57 414.75 44.56C387.23 17.04 349.25 0 307.36 0C265.47 0 227.48 17.04 199.98 44.56C221.77 44.56 243.55 49.22 263.71 58.51C276.98 52.28 291.77 48.8 307.37 48.8H307.36Z" fill="#75AADB"/>
<path d="M487.68 123.49C498.71 134.52 506.7 147.45 511.68 161.23C532.5 168.91 551.2 181.02 566.6 196.43C566.6 157.52 551.8 118.61 522.18 88.99C492.56 59.37 453.65 44.56 414.74 44.57C430.14 59.98 442.26 78.67 449.94 99.49C463.72 104.47 476.65 112.46 487.68 123.49Z" fill="#75AADB"/>
<path d="M562.37 303.81H611.17C611.17 261.92 594.13 223.93 566.61 196.43C566.61 218.22 561.95 240 552.66 260.16C558.89 273.43 562.37 288.22 562.37 303.82V303.81Z" fill="#75AADB"/>
<path d="M62.06 260.15C52.77 240 48.11 218.21 48.11 196.42C20.6 223.93 3.54999 261.92 3.54999 303.81H52.35C52.35 288.21 55.84 273.42 62.06 260.15Z" fill="#75AADB"/>
<path d="M127.04 123.49C138.07 112.46 151 104.47 164.78 99.49C172.46 78.67 184.57 59.97 199.98 44.57C161.07 44.57 122.16 59.37 92.54 88.99C62.92 118.61 48.11 157.52 48.12 196.43C63.53 181.03 82.22 168.91 103.04 161.23C108.02 147.45 116.01 134.52 127.04 123.49Z" fill="#75AADB"/>
<path d="M293.27 152.56C297.91 152.13 302.61 151.9 307.35 151.9C312.09 151.9 316.8 152.13 321.44 152.56C325.27 144.38 330.23 136.61 336.32 129.48C334.08 124.91 331.6 120.42 328.87 116.05C326.69 112.55 324.35 109.12 321.86 105.77C317.5 99.91 312.66 94.29 307.35 88.98C306.59 89.74 305.84 90.51 305.1 91.28C304.36 92.05 303.63 92.83 302.91 93.61C292.82 104.57 284.65 116.68 278.38 129.48C284.47 136.61 289.43 144.39 293.26 152.56H293.27Z" fill="#DE1018"/>
<path d="M133.03 274.84C121.14 280.66 109.86 288.13 99.53 297.24C98.34 298.29 97.16 299.37 96 300.47C94.84 301.57 93.68 302.67 92.54 303.81H155.46C155.46 299.06 155.69 294.36 156.12 289.72C147.94 285.89 140.17 280.93 133.04 274.84H133.03Z" fill="#DE1018"/>
<path d="M307.36 88.98C312.68 94.3 317.51 99.91 321.87 105.77C324.36 109.12 326.7 112.55 328.88 116.05C331.6 120.42 334.09 124.91 336.33 129.48C338.08 127.43 339.93 125.43 341.87 123.49C356.58 108.78 374.66 99.46 393.64 95.52C404.27 111.74 410.47 131.11 410.47 151.91C410.47 154.65 410.36 157.37 410.15 160.06C425.56 154.78 442.09 151.91 459.27 151.91C459.27 133.5 455.97 115.84 449.95 99.49C442.27 78.67 430.16 59.97 414.75 44.57C392.96 44.57 371.18 49.23 351.02 58.52C335.2 65.82 320.38 75.97 307.36 88.99V88.98Z" fill="#00247D"/>
<path d="M459.26 151.9C459.26 169.08 456.39 185.61 451.11 201.02C453.8 200.81 456.52 200.7 459.26 200.7C480.06 200.7 499.43 206.9 515.65 217.53C511.7 236.51 502.38 254.6 487.68 269.3C485.74 271.24 483.74 273.08 481.69 274.84C482.6 275.29 483.52 275.75 484.42 276.21C485.32 276.67 486.23 277.15 487.13 277.64C499.72 284.45 511.55 293.17 522.18 303.8C535.2 290.78 545.36 275.96 552.65 260.14C561.94 239.99 566.6 218.2 566.6 196.41C551.19 181.01 532.5 168.89 511.68 161.21C495.33 155.18 477.68 151.89 459.26 151.89V151.9Z" fill="#00247D"/>
<path d="M155.45 151.9C172.63 151.9 189.16 154.77 204.57 160.05C204.36 157.36 204.25 154.64 204.25 151.9C204.25 131.1 210.45 111.73 221.08 95.51C240.07 99.46 258.15 108.78 272.85 123.48C274.79 125.42 276.63 127.42 278.39 129.47C284.66 116.66 292.83 104.56 302.92 93.6C303.64 92.82 304.37 92.04 305.11 91.27C305.85 90.5 306.6 89.73 307.36 88.97C294.34 75.95 279.52 65.79 263.7 58.5C243.55 49.21 221.76 44.56 199.97 44.55C184.57 59.96 172.45 78.65 164.77 99.47C158.74 115.82 155.45 133.47 155.45 151.89V151.9Z" fill="#00247D"/>
<path d="M92.53 303.81C93.67 302.67 94.83 301.56 95.99 300.47C97.15 299.38 98.33 298.29 99.52 297.24C109.85 288.13 121.13 280.67 133.02 274.84C130.97 273.09 128.97 271.24 127.03 269.3C112.32 254.59 103 236.51 99.06 217.53C115.28 206.9 134.65 200.7 155.45 200.7C158.19 200.7 160.91 200.81 163.6 201.02C162.28 197.17 161.11 193.24 160.1 189.26C159.34 186.27 158.67 183.25 158.09 180.19C156.35 171.02 155.45 161.57 155.45 151.9C137.04 151.9 119.38 155.2 103.03 161.22C82.21 168.9 63.51 181.01 48.11 196.42C48.11 218.21 52.77 239.99 62.06 260.15C69.36 275.97 79.51 290.79 92.53 303.81Z" fill="#00247D"/>
<path d="M307.36 175.59C236.54 175.59 179.14 233 179.14 303.81H213.62C213.62 252.04 255.59 210.07 307.36 210.07C359.13 210.07 401.1 252.04 401.1 303.81H435.59C435.59 232.99 378.18 175.59 307.37 175.59H307.36Z" fill="#75AADB"/>
<path d="M307.36 248.66C276.9 248.66 252.21 273.35 252.21 303.81H362.5C362.5 273.35 337.81 248.66 307.35 248.66H307.36Z" fill="#DE1018"/>
</g>
<defs>
<clipPath id="clip0_59_4">
<rect width="1072.11" height="462.07" fill="white"/>
</clipPath>
</defs>
</svg>
