<svg width="159" height="31" viewBox="0 0 159 31" fill="none" xmlns="http://www.w3.org/2000/svg">
<path d="M25.715 7.45009V0H0V1.08099H3.1602C3.88086 1.08099 4.24119 1.45593 4.24119 2.20581V27.7552C4.24119 28.5343 3.88086 28.919 3.1602 28.919H0V30H14.3986V28.919H9.73868V15.3969H13.1472C13.9507 15.3969 14.7005 15.5381 15.392 15.8107C16.0834 16.0883 16.6872 16.4778 17.2034 16.9745C17.7147 17.4761 18.1188 18.0653 18.411 18.7421C18.7031 19.4238 18.8492 20.1639 18.8492 20.9674H19.8085V8.77942H18.8492C18.8492 9.58286 18.7031 10.3279 18.411 11.0047C18.1188 11.6864 17.7147 12.2659 17.2034 12.7528C16.6872 13.2397 16.0883 13.6195 15.392 13.8971C14.7005 14.1746 13.9507 14.311 13.1472 14.311H9.73868V1.08099H18.5181C19.5991 1.08099 20.5437 1.24655 21.3472 1.58254C22.1506 1.91365 22.808 2.37137 23.3241 2.95569C23.8354 3.54001 24.2201 4.21685 24.4684 4.99594C24.7168 5.77504 24.8434 6.59309 24.8434 7.45009H25.715Z" fill="currentColor"/>
<path d="M34.3289 16.9356L38.2 6.73917L42.5678 16.9356H34.3289ZM41.2336 0H39.2761L28.6707 27.7114C28.5295 28.101 28.3785 28.3931 28.213 28.583C28.0474 28.7778 27.8088 28.8752 27.5069 28.8752H24.7168V30H33.3696V28.8752H29.7907L33.8663 18.0555H43.0596L47.2278 27.7552C47.2813 27.9792 47.3105 28.1156 47.3105 28.174C47.3105 28.6463 46.921 28.8801 46.1468 28.8801H43.1911V30.0049H57.0882V28.8801H53.7186L41.2336 0Z" fill="currentColor"/>
<path d="M82.8516 26.6499C81.6051 28.135 79.7158 28.8752 77.1935 28.8752H69.3684V15.3969H72.7624C73.5658 15.3969 74.3157 15.5381 75.0071 15.8107C75.6986 16.0883 76.3024 16.4778 76.8185 16.9745C77.3298 17.4712 77.734 18.0653 78.0261 18.7421C78.3183 19.4238 78.4643 20.1639 78.4643 20.9674H79.4187V8.77942H78.4643C78.4643 9.58286 78.3183 10.3279 78.0261 11.0047C77.734 11.6864 77.3347 12.2659 76.8185 12.7528C76.3072 13.2397 75.7034 13.6195 75.0071 13.8971C74.3157 14.1746 73.5658 14.3159 72.7624 14.3159H69.3684V1.08099H77.7729C79.8229 1.08099 81.386 1.6361 82.4523 2.74631C83.5187 3.85652 84.0543 5.38062 84.0543 7.32349H85.0136V0H59.7563V1.08099H62.9166C63.6372 1.08099 63.9975 1.45593 63.9975 2.20581V27.7552C63.9975 28.5343 63.6372 28.919 62.9166 28.919H59.7563V30H85.8073V20.8067H84.7263C84.7215 23.2219 84.0982 25.1696 82.8516 26.6499Z" fill="currentColor"/>
<path d="M114.434 1.08099H117.804C118.525 1.08099 118.885 1.45593 118.885 2.20581V21.6393L101.243 0H92.4639V1.08099H95.293C96.0136 1.08099 96.374 1.45593 96.374 2.20581V27.7552C96.374 28.5343 96.0136 28.919 95.293 28.919H92.4639V30H101.828V28.8752H97.7082V4.11946L118.515 30H120.302V1.04204H124.212V0H114.434V1.08099Z" fill="currentColor"/>
<path d="M135.903 16.9356L139.774 6.73917L144.142 16.9356H135.903ZM155.293 28.8801L142.813 0H140.855L130.245 27.7114C130.109 28.101 129.953 28.3931 129.787 28.583C129.622 28.7778 129.383 28.8752 129.081 28.8752H126.296V30H134.949V28.8752H131.37L135.451 18.0555H144.649L148.802 27.7552C148.856 27.9792 148.885 28.1156 148.885 28.1691C148.885 28.6415 148.495 28.8752 147.721 28.8752H144.766V30H158.663V28.8752H155.293V28.8801Z" fill="currentColor"/>
</svg>
