<?xml version="1.0" encoding="UTF-8"?>
<svg id="Layer_2" data-name="Layer 2" xmlns="http://www.w3.org/2000/svg" xmlns:xlink="http://www.w3.org/1999/xlink" viewBox="0 0 210 210">
  <defs>
    <style>
      .cls-1, .cls-2, .cls-3 {
        fill-rule: evenodd;
      }

      .cls-1, .cls-2, .cls-3, .cls-4, .cls-5, .cls-6, .cls-7 {
        stroke-width: 0px;
      }

      .cls-1, .cls-7 {
        fill: #fff;
      }

      .cls-2 {
        fill: #a90411;
      }

      .cls-3, .cls-5 {
        fill: #01095a;
      }

      .cls-8 {
        clip-path: url(#clippath-2);
      }

      .cls-4 {
        fill: none;
      }

      .cls-9 {
        clip-path: url(#clippath-1);
      }

      .cls-10 {
        clip-path: url(#clippath);
      }

      .cls-6 {
        fill: url(#radial-gradient);
      }

      .cls-11 {
        clip-path: url(#clippath-3);
      }
    </style>
    <clipPath id="clippath">
      <rect class="cls-4" width="210" height="210"/>
    </clipPath>
    <clipPath id="clippath-1">
      <rect class="cls-4" width="210" height="210"/>
    </clipPath>
    <clipPath id="clippath-2">
      <polygon class="cls-4" points="103.91 73.8 100.91 46.55 101.73 73.96 96.84 46.98 99.57 74.26 92.81 47.69 97.44 74.71 88.84 48.68 95.34 75.32 84.95 49.95 93.29 76.06 81.15 51.48 91.3 76.95 77.47 53.27 89.37 77.97 73.93 55.32 87.52 79.13 70.54 57.61 85.76 80.41 67.31 60.13 84.09 81.81 64.27 62.86 82.52 83.33 61.43 65.81 81.06 84.95 58.79 68.94 79.72 86.67 56.39 72.25 78.5 88.47 54.22 75.72 77.4 90.36 52.3 79.33 76.45 92.32 50.63 83.07 75.63 94.35 49.23 86.92 74.96 96.42 48.11 90.85 74.43 98.54 47.26 94.85 74.05 100.68 46.69 98.9 73.82 102.85 46.4 102.99 73.75 105.03 46.4 107.08 73.82 107.21 46.69 111.16 74.05 109.38 47.26 115.21 74.43 111.53 48.11 119.21 74.96 113.64 49.23 123.15 75.63 115.72 50.63 126.99 76.45 117.74 52.3 130.73 77.4 119.7 54.22 134.34 78.5 121.59 56.39 137.81 79.72 123.4 58.79 141.12 81.06 125.12 61.43 144.26 82.52 126.74 64.27 147.2 84.09 128.25 67.31 149.94 85.76 129.65 70.54 152.46 87.52 130.94 73.93 154.74 89.37 132.09 77.47 156.79 91.3 133.12 81.15 158.58 93.29 134 84.95 160.12 95.34 134.75 88.84 161.38 97.44 135.35 92.81 162.37 99.57 135.8 96.84 163.08 101.73 136.11 100.91 163.51 103.91 136.26 105 163.65 106.09 136.26 109.09 163.51 108.27 136.11 113.16 163.08 110.43 135.8 117.19 162.37 112.56 135.35 121.16 161.38 114.66 134.75 125.05 160.12 116.71 134 128.85 158.58 118.7 133.12 132.53 156.79 120.63 132.09 136.07 154.74 122.48 130.94 139.46 152.46 124.24 129.65 142.69 149.94 125.91 128.25 145.73 147.2 127.48 126.74 148.57 144.26 128.94 125.12 151.21 141.12 130.29 123.4 153.61 137.81 131.5 121.59 155.78 134.34 132.6 119.7 157.7 130.73 133.55 117.74 159.37 126.99 134.37 115.72 160.76 123.15 135.04 113.64 161.89 119.21 135.57 111.53 162.74 115.21 135.95 109.38 163.31 111.16 136.18 107.21 163.6 107.08 136.25 105.03 163.6 102.99 136.18 102.85 163.31 98.9 135.95 100.68 162.74 94.85 135.57 98.54 161.89 90.85 135.04 96.42 160.76 86.92 134.37 94.35 159.37 83.07 133.55 92.32 157.7 79.33 132.6 90.36 155.78 75.72 131.5 88.47 153.61 72.25 130.29 86.67 151.21 68.94 128.94 84.95 148.57 65.81 127.48 83.33 145.73 62.86 125.91 81.81 142.69 60.13 124.24 80.41 139.46 57.61 122.48 79.13 136.07 55.32 120.63 77.97 132.53 53.27 118.7 76.95 128.85 51.48 116.71 76.06 125.05 49.95 114.66 75.32 121.16 48.68 112.56 74.71 117.19 47.69 110.43 74.26 113.16 46.98 108.27 73.96 109.09 46.55 106.09 73.8 105 46.41 103.91 73.8"/>
    </clipPath>
    <radialGradient id="radial-gradient" cx="-741.61" cy="-928.63" fx="-741.61" fy="-928.63" r="1" gradientTransform="translate(44516.76 -55506.74) scale(59.89 -59.89)" gradientUnits="userSpaceOnUse">
      <stop offset="0" stop-color="#ff5834"/>
      <stop offset=".07" stop-color="#ff5834"/>
      <stop offset=".68" stop-color="#d61622"/>
      <stop offset="1" stop-color="#d61622"/>
    </radialGradient>
    <clipPath id="clippath-3">
      <rect class="cls-4" width="210" height="210"/>
    </clipPath>
  </defs>
  <g id="Layer_2-2" data-name="Layer 2">
    <g id="MMA_Logo" data-name="MMA Logo">
      <g class="cls-10">
        <g class="cls-9">
          <path class="cls-5" d="M161.03,49c-1.06-1.06-2.14-2.08-3.25-3.07-.08-2.12-.55-4.16-1.42-6.11-1.26-2.84-3.73-4.47-6.77-4.47-1.24,0-2.53.26-3.96.78-.29.11-.56.23-.82.35-3.9-2.27-7.98-4.2-12.2-5.77,1.8-2.56,2.58-6.15-.93-10.58-.33-.42-.67-.9-1.03-1.41-1.73-2.45-4.36-6.16-9.48-6.16-.34,0-.68.02-1.03.05-7.96.76-10.33,7.62-11.11,9.87l-.08.24c-.21.61-.43,1.25-.63,1.93-.12.42-.24.8-.37,1.18-.98-.04-1.97-.06-2.96-.06-21.17,0-41.06,8.24-56.03,23.21-14.97,14.97-23.21,34.86-23.21,56.03s8.24,41.06,23.21,56.03c14.97,14.97,34.86,23.21,56.03,23.21s41.06-8.24,56.03-23.21c14.97-14.97,23.21-34.86,23.21-56.03s-8.24-41.06-23.21-56.03M142.65,46.17c2.14,3.56,1.29,4.31.67,4.86-.75.67-1.72,1.23-2.76,1.79-.07-.1-.13-.2-.2-.3-1.98-2.95-3.85-5.74-5.79-8.53-.93-1.35-2.31-2.12-3.04-2.46-1.63-.76-3.25-1.46-4.7-2.08.71-.89,1.26-1.81,1.76-2.7,4.47,1.54,8.73,3.51,12.75,5.85.13,1.14.56,2.34,1.31,3.58M105,177.27c-39.9,0-72.24-32.34-72.24-72.24,0-34.36,23.98-63.11,56.12-70.43-2.08,1.82-3.43,4.52-3.85,7.93-.09.76-.13,1.48-.17,2.19-.07,1.12-.12,2.19-.39,2.95-2.63,7.68,2.58,12.61,5.09,14.97,1.07,1.01,2.31,1.69,3.67,2.01,2.52,3.8,2.41,7.95-.33,12.68-3.41,5.88-5.17,12.13-6.87,18.18-.5,1.76-1.01,3.59-1.55,5.35-.67,2.19-.38,4.38-.13,6.31.06.42.11.84.15,1.25.41,4-.36,6.74-2.57,9.15-2.59,2.84-4.42,6.26-5.87,9.23-.8,1.64-.97,3.31-1.12,4.79-.07.66-.13,1.28-.24,1.79-.52,2.4-1.06,4.83-1.59,7.19-1.25,5.55-2.53,11.29-3.55,17.02-.49,2.76,1.3,7.81,4.68,8.89,1.26.4,2.63.59,4.33.59.89,0,1.77-.05,2.63-.1.84-.05,1.63-.09,2.41-.09,1.21,0,2.33-.62,2.97-1.64.64-1.02.71-2.3.18-3.39-.37-.77-.74-1.45-1.07-2.06-.55-1.02-.98-1.83-1.17-2.52-2.05-7.54-.04-14.06,6.33-20.54,1.48-1.5,2.32-3.33,3.06-4.94.25-.55.49-1.07.74-1.54.63-1.2,1.24-2.41,1.84-3.58.96-1.9,1.96-3.86,2.99-5.72.24-.42.63-.91,1.04-1.43.58-.72,1.24-1.54,1.77-2.54.23.03.47.05.7.05,2.05,0,4.03-1.32,5.21-2.56.49-.52.96-1.05,1.42-1.59,1.04,2.09,2.95,3.33,5.72,3.72,5.25.73,5.24,5.42,4.99,7.4-.55,4.39-.97,8.66-.03,12.81,1.39,6.12,1.52,11.53.42,16.55-.33,1.52-.62,3.75.72,5.67,1.48,2.11,4.07,2.46,5.17,2.6,1.15.15,2.34.41,3.59.68,2.08.45,4.23.91,6.52.96.18.02.74.23,1.11.37,1.01.37,2.26.84,3.72.84,1.62,0,3.95-.59,5.81-3.43,1.04-1.59.62-3.72-.94-4.8-.37-.25-.74-.54-1.14-.85-1-.77-2.13-1.65-3.55-2.22-5.29-2.14-6.95-5.11-5.91-10.61,1.04-5.49,1.92-11.08,2.77-16.48.31-1.95.61-3.91.93-5.86.15-.95.36-2.25.09-3.65-.2-1-.39-1.99-.58-2.99-.75-3.89-1.53-7.91-2.55-11.86-.15-.59-.3-1.18-.45-1.77-1.37-5.48-2.79-11.14-6.71-15.97-1.63-2-1.87-4.15-1.75-7.41,0-.24.02-.49.03-.73.1-2.22.21-4.74-.68-7.15-.35-.96-.49-1.7-.36-2.35.66.53,1.36,1.04,2.13,1.51,1.46.88,2.95,1.52,4.39,2.14.45.19.9.38,1.34.58,2.62,1.18,4.48,1.95,6.37,1.95,3.11,0,4.9-1.89,7.6-4.74l.6-.63c.97-1.02,1.55-2.15,2.07-3.14.14-.27.28-.54.43-.8.4-.71.82-1.42,1.27-2.16,1.13-1.89,2.29-3.84,3.21-5.99.12-.29.24-.59.35-.88,12.95,13.06,20.95,31.03,20.95,50.87,0,39.9-32.34,72.24-72.24,72.24"/>
          <path class="cls-2" d="M177.24,105.03c0-39.9-32.34-72.24-72.24-72.24S32.76,65.14,32.76,105.03s32.34,72.24,72.24,72.24,72.24-32.34,72.24-72.24"/>
        </g>
        <g class="cls-8">
          <rect class="cls-6" x="46.4" y="46.41" width="117.2" height="117.24"/>
        </g>
        <g class="cls-11">
          <path class="cls-1" d="M153.16,41.25c-1.34-3-4.14-2.63-6.32-1.83-2.03.75-2.77,2.33-1.19,4.94,1.65,2.74,3.25,6.4,0,9.29-1.83,1.62-4.24,2.59-6.22,3.75-2.69-4-5.18-7.73-7.72-11.42-.38-.54-1.02-.99-1.63-1.28-2.37-1.1-4.78-2.11-6.54-2.88,0,0-1.25-.41-2.46-2.08,0,0-.03-.04-.07-.1-.11-.15-.2-.27-.27-.37-.09-.12-.16-.22-.19-.26.02.03.07.1.19.26.09.13.2.27.27.37.03.03.04.06.07.1,4.46-2.2,4.93-7.11,7.76-9.94,2.97-2.97,1.8-5.38.12-7.48-2.17-2.74-3.86-6.65-8.46-6.21-4.61.44-6.76,3.57-8.13,7.53-.23.66-.46,1.31-.65,1.98-2.07,7.36-6.45,10.41-14.16,9.85-5.16-.38-8.4,2.29-9.03,7.49-.24,1.96-.1,4.03-.72,5.85-1.72,5.01,1,8.29,4.18,11.29.98.93,2.04,1.26,3.11,1.27l.76.9c4.1,5.77,3.09,11.66.09,16.82-4.15,7.17-5.73,15.1-8.1,22.8-.57,1.87-.05,4.11.16,6.17.45,4.45-.25,8.35-3.47,11.87-2.21,2.41-3.86,5.43-5.31,8.4-.83,1.7-.68,3.86-1.09,5.79-1.73,8.02-3.68,16.01-5.12,24.08-.28,1.55,1.07,4.56,2.3,4.95,2.46.79,5.35.23,8.31.23-1.01-2.09-2.03-3.56-2.47-5.19-2.57-9.44.56-17.15,7.21-23.91,1.47-1.49,2.18-3.73,3.19-5.65,1.64-3.12,3.16-6.3,4.87-9.38.78-1.4,2.05-2.53,2.8-3.95.83-1.57,1.76-2.07,3.58-1.78.88.14,2.15-.7,2.87-1.45,1.68-1.76,3.13-3.75,5.12-6.2.78,2.01,1.36,3.03,1.56,4.13.36,2.03,1.43,2.86,3.48,3.14,5.8.81,8.72,5.4,7.98,11.3-.48,3.83-.92,7.92-.09,11.6,1.38,6.09,1.74,12.08.42,18.08-.66,2.98.35,3.71,2.93,4.05,3.26.43,6.48,1.53,9.73,1.61,2.41.06,5.2,3.06,7.63-.64-1.4-.96-2.59-2.13-4.02-2.71-6.85-2.77-9.37-7.44-8.04-14.51,1.4-7.38,2.48-14.83,3.68-22.25.13-.79.26-1.65.11-2.42-.97-4.9-1.85-9.83-3.09-14.66-1.47-5.73-2.65-11.69-6.48-16.4-2.44-3.01-2.67-6.21-2.53-9.75.08-2.19.29-4.57-.43-6.54-1.38-3.76-.38-6.37,2.49-8.47,1.52,1.21,2.84,2.5,4.38,3.43,1.68,1.01,3.55,1.71,5.35,2.52,5.95,2.67,5.92,2.28,10.6-2.65.86-.9,1.37-2.15,1.99-3.26,1.46-2.58,3.14-5.07,4.3-7.79,1.7-4.01,2.31-8.24.45-12.42"/>
          <path class="cls-3" d="M207.96,202.14s-42.3-34.85-102.96-34.85S2.04,202.14,2.04,202.14v-83.21h205.91v83.21Z"/>
          <path class="cls-7" d="M12.95,180.93v-8.31c2.15-.89,3.22-1.32,5.36-2.17-.01-12.63-.02-25.27-.04-37.9-2.13.1-3.19.15-5.32.27v-5.34h17.25c2.76,4.08,4.15,11.62,6.91,22.97,2.52-12.45,3.78-19.24,6.3-22.97h17.65c0,1.03.01,1.81.02,3.68-2.13.03-3.19.05-5.33.09.04,7.85.06,16.53.1,26.82,2.13-.55,3.19-.81,5.31-1.31,0,2.43.01,3.56.02,5.43-6.61,1.82-9.92,2.88-16.55,5.25-.01-2.11-.02-3.41-.03-6.22,1.43-.43,2.14-.64,3.57-1.05-.03-9.37-.06-18.74-.11-28.11-3.67,12.31-5.68,25.01-8.95,37.43-2.01.77-3.01,1.16-5.02,1.97-4.13-12.49-6.12-25.55-9.48-38.25.03,11.59.05,23.19.07,34.78,1.48-.56,2.22-.83,3.7-1.36,0,3.26.01,4.77.02,7.2-6.17,2.64-9.26,4.07-15.48,7.1M12.95,135.19c1.6-.12,2.4-.18,3.99-.29,0,2.08,0,3.25,0,5.72-1.6-2.28-2.4-3.39-4-5.43M12.95,183c6.76-3.43,10.13-5.03,16.84-7.98-.01-2.71-.02-4.64-.03-8.89.55.58.83.86,1.38,1.39.56,2.03.84,2.95,1.41,4.47,0,2.4.01,3.39.02,4.56-6.06,2.72-9.1,4.2-15.2,7.37-1.76.01-2.65-.18-4.41-.93M26.02,164.78c-.02-7.39-.02-11.96-.04-19.64,1.19,5.28,1.79,8.17,2.99,13.29,0,2.2,0,3.28.01,5.35-1.19.4-1.78.6-2.97,1.01M31.74,127.48c2.17,1.27,3.26,2.35,5.43,4.82.58,1.61.86,2.53,1.44,4.48-.63,2.39-.95,3.73-1.59,6.53-2.11-8.32-3.17-12.78-5.28-15.82M34.93,172.83c2.05-.85,3.07-1.26,5.11-2.06,2.81-9.31,4.65-18.99,6.74-28.47.02,5.58.03,8.79.05,14.31-.24.76-.37,1.14-.61,1.89-1.2.33-1.81.5-3.01.85.02,4.9.03,7.19.04,10.2-.52,1.45-.77,2.08-1.29,3.03-1.24.5-1.86.75-3.11,1.27-1.57-.1-2.36-.31-3.93-1M44.62,169.02c7.18-2.66,10.77-3.83,17.93-5.81-.01-2.13-.02-3.59-.03-6.75,1.16,1.51,1.74,2.2,2.9,3.38,0,2.5.01,3.56.02,4.85-6.84,1.82-10.26,2.92-17.13,5.43-1.48-.18-2.22-.41-3.7-1.1M57.2,155.69c-.03-9.02-.05-15.54-.08-22.85,2.13-.06,3.19-.09,5.32-.15-.01-2.71-.02-3.85-.03-5.21,1.17,1.26,1.75,2.3,2.92,4.68,0,1.52,0,2.38.01,4.2-2.11.1-3.16.16-5.27.28.03,6.7.04,11.34.06,18.37-1.18.26-1.77.4-2.95.67"/>
          <path class="cls-7" d="M82.67,157.51c0-1.69,0-2.67,0-4.75,2.12-.29,3.17-.42,5.29-.66,0-8.17-.01-14.26-.02-21.04-2.12-.02-3.18-.03-5.31-.03,0-1.69,0-2.43,0-3.54h17.25c2.73,4.52,4.09,8.55,6.82,15.59,2.56-7.01,3.84-11.21,6.39-15.59h17.65c0,1.09,0,1.83,0,3.54-2.13,0-3.2,0-5.33.02,0,6.82,0,13.14.02,21.46,2.13.27,3.2.42,5.34.75,0,2.12,0,3.12,0,4.83-6.65-1.18-9.97-1.62-16.61-2.16,0-1.67,0-2.6,0-4.54,1.43.1,2.15.16,3.58.29,0-7.77,0-13.32,0-20.06-3.63,8.49-5.45,15.85-9.08,23.95-2-.1-3.01-.16-5.01-.09-3.74-8.14-5.6-15.23-9.34-23.72,0,6.71,0,12.09,0,19.74,1.47-.12,2.21-.17,3.68-.26,0,1.93,0,2.86,0,4.53-6.13.42-9.19.78-15.3,1.75M82.64,132.43c1.59,0,2.39,0,3.98,0,0,1.23,0,1.9,0,3.29-1.59-1.37-2.39-2.04-3.98-3.29M82.68,158.79c6.65-1.07,9.98-1.45,16.65-1.83,0-2.06,0-3.27,0-5.81.55.44.82.65,1.36,1.08.55,1.35.83,2,1.38,3.23v3.87c-6.03.13-9.04.36-15.05,1.12-1.74-.57-2.61-.89-4.34-1.65M95.61,149.82c0-4.22,0-6.62,0-10.94,1.18,3.07,1.77,4.68,2.95,7.71,0,1.24,0,1.85,0,3.05-1.18.06-1.77.1-2.95.18M101.41,127.48c2.16,1.45,3.24,2.4,5.4,4.21.57,1.18.85,1.81,1.42,3.11-.64,1.56-.96,2.37-1.61,4.01-2.09-5.16-3.13-7.86-5.22-11.33M104.44,156.75c2.04-.05,3.06.05,5.11.15,2.74-5.71,4.11-10.21,6.84-17.9,0,3.85,0,5.96,0,9.77-.25.47-.37.69-.62,1.15-1.21-.09-1.81-.13-3.01-.2,0,3.26,0,4.83,0,7.37-.52,1.03-.79,1.5-1.31,2.35-1.24-.06-1.86-.08-3.1-.11-1.56-.95-2.35-1.53-3.91-2.59M114.13,157.19c7.19.57,10.8,1.06,18,2.42,0-2.02,0-3.33,0-6.15,1.16,1.77,1.74,2.64,2.91,4.25,0,2.36,0,3.37,0,4.72-6.89-1.4-10.33-1.92-17.22-2.54-1.48-.96-2.21-1.51-3.69-2.68M126.78,151c0-7.35,0-12.32-.01-18.58,2.13,0,3.2,0,5.33.02,0-2.47,0-3.54,0-4.96,1.16,1.32,1.74,2.27,2.91,4.55,0,1.44,0,2.24,0,3.93-2.11-.07-3.16-.1-5.27-.14,0,5.76,0,9.56.01,15.56-1.18-.16-1.77-.24-2.96-.38"/>
          <path class="cls-7" d="M152.37,163.15c0-1.91,0-3.07-.01-5.57,1.83.45,2.74.69,4.57,1.18,2.76-10.25,4.81-21.56,9.3-31.28h12.41c5.67,12.88,7.03,27.91,9.65,41.6,1.82.71,2.73,1.07,4.54,1.8,0,3.62,0,5.29,0,7.99-6.95-3.33-10.43-4.88-17.4-7.69,0-2.3,0-3.72-.01-6.79,1.79.61,2.68.92,4.46,1.56-.91-3.99-1.36-6.2-2.27-10.52-4.62-1.19-6.93-1.75-11.55-2.78-.84,3.47-1.26,5.17-2.1,8.09,1.82.54,2.74.82,4.56,1.39,0,2.88,0,4.22.01,6.38-6.46-2.39-9.69-3.47-16.16-5.36M152.38,164.57c7,2.1,10.49,3.32,17.47,6.05,0-2.48-.01-4.23-.02-8.08,1.18,1.87,1.76,2.79,2.94,4.58,0,3.96.01,5.62.02,7.29-6.25-2.66-9.38-3.86-15.65-5.98-1.9-1.35-2.86-2.15-4.76-3.86M165.95,159.04c.38-1.45.57-2.21.95-3.78,3.92.97,5.88,1.49,9.79,2.59.37,1.92.55,2.88.92,4.73-4.66-1.52-6.99-2.23-11.66-3.55M167.5,146.62c3.46.58,5.19.89,8.65,1.54-1.78-8.6-2.67-12.86-4.44-17.62-1.68,4.68-2.52,8.75-4.21,16.08M169.51,144.4c.87-3.96,1.3-5.95,2.17-9.29.69,2.56,1.04,4.04,1.73,7.19-.22,1.03-.33,1.56-.56,2.61-1.34-.21-2.01-.31-3.35-.51M175.43,172.88c7.5,3.14,11.25,4.88,18.72,8.65,0-3.08,0-5.28,0-10.1,1.16,2.56,1.74,3.82,2.9,6.22v8.63c-7.05-3.88-10.59-5.68-17.67-8.94-1.58-1.53-2.37-2.45-3.94-4.45M189.08,166.54c-2.41-12.85-3.7-27.01-9.1-39.06,2.35,1.59,3.52,3.11,5.86,7.12,2.62,10.91,4.37,22.05,6.33,33.08-1.24-.46-1.85-.69-3.09-1.14"/>
        </g>
      </g>
    </g>
  </g>
</svg>