<?xml version="1.0" encoding="UTF-8"?>
<svg id="Layer_2" data-name="Layer 2" xmlns="http://www.w3.org/2000/svg" xmlns:xlink="http://www.w3.org/1999/xlink" viewBox="0 0 210 210">
  <defs>
    <style>
      .cls-1 {
        fill: #a90411;
      }

      .cls-1, .cls-2 {
        fill-rule: evenodd;
      }

      .cls-1, .cls-2, .cls-3, .cls-4, .cls-5, .cls-6 {
        stroke-width: 0px;
      }

      .cls-2, .cls-4 {
        fill: #01095a;
      }

      .cls-7 {
        clip-path: url(#clippath-2);
      }

      .cls-3 {
        fill: none;
      }

      .cls-8 {
        clip-path: url(#clippath-1);
      }

      .cls-9 {
        clip-path: url(#clippath);
      }

      .cls-5 {
        fill: url(#radial-gradient);
      }

      .cls-10 {
        clip-path: url(#clippath-3);
      }

      .cls-6 {
        fill: #fff;
      }
    </style>
    <clipPath id="clippath">
      <rect class="cls-3" width="210" height="210"/>
    </clipPath>
    <clipPath id="clippath-1">
      <rect class="cls-3" width="210" height="210"/>
    </clipPath>
    <clipPath id="clippath-2">
      <polygon class="cls-3" points="103.91 73.7 100.91 46.44 101.73 73.85 96.84 46.87 99.57 74.15 92.81 47.58 97.44 74.6 88.84 48.57 95.34 75.21 84.94 49.84 93.29 75.95 81.15 51.37 91.3 76.84 77.47 53.16 89.37 77.86 73.93 55.21 87.52 79.02 70.54 57.5 85.76 80.3 67.31 60.02 84.09 81.7 64.27 62.75 82.52 83.22 61.42 65.7 81.06 84.84 58.79 68.83 79.71 86.56 56.39 72.14 78.49 88.36 54.22 75.61 77.4 90.25 52.3 79.23 76.45 92.21 50.63 82.96 75.63 94.24 49.23 86.81 74.96 96.31 48.11 90.74 74.43 98.43 47.26 94.74 74.05 100.57 46.69 98.79 73.82 102.74 46.4 102.88 73.75 104.92 46.4 106.97 73.82 107.1 46.69 111.05 74.05 109.27 47.26 115.1 74.43 111.42 48.11 119.1 74.96 113.53 49.23 123.04 75.63 115.61 50.63 126.88 76.45 117.63 52.3 130.62 77.4 119.59 54.22 134.23 78.49 121.48 56.39 137.7 79.71 123.29 58.79 141.01 81.06 125.01 61.42 144.15 82.52 126.63 64.27 147.09 84.09 128.14 67.31 149.83 85.76 129.54 70.54 152.35 87.52 130.83 73.93 154.64 89.37 131.98 77.47 156.68 91.3 133.01 81.15 158.47 93.29 133.89 84.94 160.01 95.34 134.64 88.84 161.27 97.44 135.24 92.81 162.26 99.57 135.69 96.84 162.97 101.73 136 100.91 163.4 103.91 136.15 105 163.54 106.09 136.15 109.09 163.4 108.27 136 113.16 162.97 110.43 135.69 117.19 162.26 112.56 135.24 121.16 161.27 114.66 134.64 125.05 160.01 116.71 133.89 128.85 158.47 118.7 133.01 132.53 156.68 120.63 131.98 136.07 154.64 122.48 130.83 139.46 152.35 124.24 129.54 142.69 149.83 125.91 128.14 145.73 147.09 127.48 126.63 148.57 144.15 128.94 125.01 151.2 141.01 130.28 123.29 153.61 137.7 131.5 121.48 155.78 134.23 132.6 119.59 157.7 130.62 133.55 117.63 159.37 126.88 134.37 115.61 160.76 123.04 135.04 113.54 161.89 119.1 135.57 111.42 162.74 115.1 135.95 109.27 163.31 111.05 136.18 107.1 163.6 106.97 136.25 104.92 163.6 102.88 136.18 102.74 163.31 98.79 135.95 100.57 162.74 94.74 135.57 98.43 161.89 90.74 135.04 96.31 160.76 86.81 134.37 94.24 159.37 82.96 133.55 92.21 157.7 79.23 132.6 90.25 155.78 75.61 131.5 88.36 153.61 72.14 130.28 86.56 151.2 68.83 128.94 84.84 148.57 65.7 127.48 83.22 145.73 62.75 125.91 81.7 142.69 60.02 124.24 80.3 139.46 57.5 122.48 79.02 136.07 55.21 120.63 77.86 132.53 53.16 118.7 76.84 128.85 51.37 116.71 75.95 125.05 49.84 114.66 75.21 121.16 48.57 112.56 74.6 117.19 47.58 110.43 74.15 113.16 46.87 108.27 73.85 109.09 46.44 106.09 73.7 105 46.3 103.91 73.7"/>
    </clipPath>
    <radialGradient id="radial-gradient" cx="-741.61" cy="-1172.39" fx="-741.61" fy="-1172.39" r="1" gradientTransform="translate(44516.76 -70104.47) scale(59.89 -59.89)" gradientUnits="userSpaceOnUse">
      <stop offset="0" stop-color="#ff5834"/>
      <stop offset=".07" stop-color="#ff5834"/>
      <stop offset=".68" stop-color="#d61622"/>
      <stop offset="1" stop-color="#d61622"/>
    </radialGradient>
    <clipPath id="clippath-3">
      <rect class="cls-3" width="210" height="210"/>
    </clipPath>
  </defs>
  <g id="Layer_2-2" data-name="Layer 2">
    <g id="Muay_Thai_Logo" data-name="Muay Thai Logo">
      <g class="cls-9">
        <g class="cls-8">
          <path class="cls-4" d="M171.93,62.46c.34-1.35.66-2.68.97-3.96.67-2.81.95-5.88.79-8.88-.25-4.82-4.07-8.45-8.89-8.45-1.29,0-2.55.27-3.76.79-1.26.55-2.34,1.28-3.3,1.92-.23.15-.46.31-.68.46-.18.12-.37.24-.56.37-4.7-4.04-9.81-7.47-15.22-10.26.69-1.18,1.44-3.18.15-5.66-.09-.17-.19-.34-.31-.49-.11-.57-.31-1.11-.61-1.6-.86-1.43-2.37-2.28-4.05-2.28-.18,0-.37,0-.55.03-1.8.2-3.6.74-5.22,1.57-.68.35-1.2.81-1.61,1.3-1.02-.63-2.08-1.08-3.1-1.43-.29-.62-.76-1.26-1.47-1.89,0,0-.01-.01-.02-.01-1.4-2.25-3.3-2.6-4.33-2.6-1.2,0-2.16.44-2.85.75l-.13.06c-.66-1.65-1.64-3.05-2.94-4.19-.32-.28-.68-.69-1.05-1.12-.61-.69-1.36-1.55-2.37-2.32-.41-1.52-1.79-2.58-3.38-2.58h-5.43c-1.11,0-2.16.53-2.82,1.42-.07.09-.13.18-.18.27-1.88,1.16-4.14,3.41-4.89,4.46-.1.15-.21.29-.31.44-.19.27-.45.64-.62.83-.57-.06-1.16-.09-1.79-.09-1.25,0-2.45.11-3.6.22-.53.05-1.05.1-1.57.13-3.47.24-6.48,3.02-6.85,6.32-.05.49-.11.98-.17,1.47-.1.86-.2,1.74-.29,2.62-11.15,3.87-21.37,10.24-29.96,18.84-14.97,14.97-23.21,34.86-23.21,56.03s8.24,41.06,23.21,56.03c14.97,14.97,34.86,23.21,56.03,23.21s41.06-8.24,56.03-23.21c14.97-14.97,23.21-34.87,23.21-56.03,0-15.27-4.29-29.89-12.31-42.46M123.85,44.08c-.21.77-.42,1.5-.65,2.18-.55-.57-1.03-1.13-1.43-1.72.56-.09,1.13-.21,1.71-.36.13-.03.25-.07.38-.11M142.71,53.78c-.63.42-1.08.9-1.47,1.36-.46.54-.88,1.09-1.28,1.61-.78,1.02-1.52,1.98-2.31,2.63-.18.14-.74.33-1.25.48-.93-.86-1.85-1.73-2.76-2.59,1.44-3.78,1.99-7.57,2.41-11.18.18-1.51.38-2.42.99-3.14.57-.68.98-1.41,1.31-2.12,4.28,2.23,8.3,4.88,12.02,7.89-2.35,1.54-4.87,3.21-7.67,5.06M105,177.16c-39.9,0-72.24-32.34-72.24-72.24,0-31.43,20.08-58.17,48.11-68.1.44.28.88.46,1.26.59.71.22,1.42.48,2.33.81.46.17.97.35,1.54.55.38.13.77.2,1.16.2.57,0,1.13-.14,1.64-.4.29,2.09.63,4.18.96,6.2.53,3.19,1.02,6.2,1.32,9.27.38,3.87,2.1,6.82,5.12,8.76,1.05.68,2.13,1.12,3.09,1.5.58.24,1.13.46,1.59.7,1.1.58,2.21,1.22,3.37,1.89-.02,1.66.94,2.86,1.34,3.35,0,0,.01.02.02.02.69,1.45,2.17,2.36,3.89,2.36.74,0,1.5-.17,2.24-.47.2.3.43.73.73,1.33.2.39.41.81.66,1.24,0,.15,0,.31.02.48,0,.07,0,.15,0,.22.01.55.04,1.46.48,2.42.78,1.69.62,3.68.43,5.98-.04.46-.08.93-.11,1.39-.1,1.43.31,2.71.6,3.64.22.69.56,1.21.8,1.55.43,2.14.83,4.34,1.21,6.46l.13.72c.17.94.33,1.88.49,2.81.25,1.45.5,2.96.79,4.45.18.93.4,1.83.62,2.7.35,1.41.69,2.75.76,3.97.14,2.59-1.44,4.89-3.68,7.85-2.07,2.72-3.29,5.49-3.73,8.44-.45,3.01-.85,6.06-1.23,9-.16,1.27-.33,2.54-.5,3.81-.22,1.62-.76,2.22-1.32,2.62-3.41,2.46-4.04,6.09-1.67,9.71.32.49.56,1.11.62,1.61.19,1.54.31,3.1.43,4.74.08,1.09.16,2.22.27,3.34.16,1.67,1.41,4.31,4.08,4.33.67,0,1.35,0,2.03,0,1.65,0,3.84-.02,6.04-.2,2.02-.17,3.62-1.35,4.18-3.1.57-1.78-.09-3.73-1.71-5.08-.72-.61-1.09-1.28-.93-3.08.11-1.27.04-2.65-.21-4.1-.35-2.03.15-4.11.72-6.51.15-.62.3-1.25.44-1.9.04-.09.12-.25.19-.37.07-.14.15-.28.22-.43,1-2.03,2-4.05,3.01-6.08.97-1.96,1.94-3.92,2.91-5.89.2-.41.39-.83.58-1.25.29-.62.55-1.22.84-1.71.49-.83,1.19-1.68,1.93-2.57,1.85-2.24,4.13-4.99,4.24-9.07.07-.2.12-.43.15-.68.07-.55.16-1.11.25-1.7.26-1.63.52-3.31.49-5.12,0-.02,0-.03,0-.04,3.22-2.31,6.47-4.93,8.68-8.84,2.78-2.56,2.08-5.82,1.85-6.9-.17-.78-.24-1.54-.21-2.2.25.38.5.72.72,1.02.25.34.49.66.61.89.08.16.13.28.16.37-.23,1.02-.55,2.07-.88,3.17-.23.76-.47,1.55-.69,2.36-1.14,4.23.52,6.67,2.12,7.97,1.18.96,2.34,1.43,3.55,1.43,1.48,0,3.5-.67,4.71-3.87.67-1.78,1.49-3.51,2.36-5.35.33-.71.66-1.41.99-2.12.09-.2.24-.46.39-.73.42-.75.95-1.69,1.19-2.86,1.36-6.48,2.67-12.29,4.79-17.92.33-.87.63-1.74.92-2.62,5.11,9.91,8,21.15,8,33.06,0,39.9-32.34,72.24-72.24,72.24"/>
          <path class="cls-1" d="M177.24,104.92c0-39.9-32.34-72.24-72.24-72.24S32.76,65.03,32.76,104.92s32.34,72.24,72.24,72.24,72.24-32.34,72.24-72.24"/>
        </g>
        <g class="cls-7">
          <rect class="cls-5" x="46.4" y="46.3" width="117.2" height="117.24"/>
        </g>
        <g class="cls-10">
          <path class="cls-6" d="M102.02,15.46h5.43c-.53.25-.82.38-1.52.71,3.17.45,4.24,2.88,6.01,4.44,1.91,1.67,2.6,3.99,2.72,6.5,1.43-.63,2.69-1.17,3.94-1.74,1.14-.51,2.09-1.05,3.01.59.46.8,1.82,1.09,1.01,2.52,2.88.88,5.75,1.57,7.21,4.72.36-.8.57-1.44.92-2.01.45-.75.85-1.73,1.54-2.08,1.22-.63,2.63-1.05,4-1.2,1.2-.13,1.77,1.14,1.18,2.25-.18.35-.47.64-.66.98-.18.32-.31.67-.26,1.16.54-.59,1.09-1.17,1.77-1.91.96,1.85-.62,2.68-.99,3.84-.28.88-.73,1.71-1.11,2.56-.6,1.32-.96,2.84-1.86,3.91-1.27,1.51-1.58,3.19-1.79,4.98-.5,4.21-1.12,8.39-3.13,12.45,1.82,1.71,3.69,3.47,5.58,5.22.2.18.55.41.74.35,1.41-.48,3.05-.73,4.13-1.64,1.56-1.3,2.7-3.1,4.03-4.68.21-.26.44-.52.72-.7,4.77-3.15,9.55-6.3,14.33-9.43,1.13-.74,2.24-1.57,3.46-2.1,3.6-1.57,7.55.69,7.75,4.63.14,2.62-.09,5.34-.7,7.89-1.26,5.25-2.55,10.53-4.45,15.56-2.27,6.01-3.62,12.2-4.94,18.43-.21,1-.9,1.9-1.34,2.86-1.17,2.55-2.44,5.06-3.43,7.68-.64,1.69-1.38,2.11-2.78.97-1.45-1.18-1.38-2.75-.95-4.35.55-2.02,1.26-4,1.69-6.04.15-.72-.18-1.64-.53-2.35-.5-1-1.35-1.82-1.85-2.82-.94-1.88-.13-3.36,1.9-3.73,2.34-.43,2.69-.71,2.77-3.05.08-2.48-.05-4.97-.07-7.45-.02-2.35,0-4.69,0-6.76-.69,1.21-2.21,2.41-2.28,4.55-.04,1.27-.57,2.52-.84,3.78-.09.41-.25.91-.11,1.26.53,1.29.21,2.18-1.02,2.8-1.08.54-2.15,1.21-3.19-.79-.72,2.02-1.36,3.61-1.84,5.25-.54,1.84-1.08,3.7-1.35,5.59-.18,1.29-.07,2.68.2,3.96.31,1.45.28,2.68-.91,3.7-.13.11-.28.22-.35.36-1.93,3.65-5.07,6.1-8.34,8.43-.87.62-1.03,1.46-1.01,2.63.03,2.1-.44,4.21-.72,6.31-.02.16-.19.32-.18.47.18,4.64-3.67,7.09-5.69,10.53-.6,1.01-1.03,2.13-1.55,3.18-1.97,3.99-3.95,7.97-5.92,11.96-.25.5-.56,1.01-.68,1.54-.68,3.23-1.78,6.41-1.2,9.81.18,1.05.26,2.15.17,3.21-.21,2.38.2,4.42,2.17,6.07,1.07.89.78,1.91-.51,2.01-2.57.21-5.17.2-7.75.18-.22,0-.58-.75-.62-1.17-.26-2.72-.37-5.47-.71-8.18-.14-1.07-.57-2.18-1.17-3.09-1.31-2-1.19-3.53.78-4.95,1.74-1.25,2.47-2.98,2.74-5,.56-4.25,1.08-8.51,1.71-12.75.38-2.54,1.46-4.73,3.06-6.85,2.25-2.97,4.61-6.15,4.39-10.16-.13-2.4-.98-4.75-1.44-7.14-.46-2.4-.83-4.81-1.26-7.21-.46-2.58-.92-5.16-1.45-7.72-.11-.52-.64-.93-.8-1.45-.24-.76-.5-1.57-.44-2.34.21-3.06.74-6.12-.63-9.08-.2-.43-.14-.99-.18-1.49-.04-.45.09-1-.12-1.33-1.36-2.07-1.92-4.85-4.84-5.56-.89,1.08-2.63,1.55-2.93.71-.29-.83-2.22-1.79.26-3.09-2.36-1.35-4.39-2.58-6.48-3.69-1.44-.76-3.07-1.19-4.42-2.06-2.18-1.4-3.26-3.39-3.53-6.16-.51-5.26-1.6-10.46-2.32-15.71-.46-3.38-.44-6.71,1.61-9.76.65-.96.72-2.3,1.09-3.57h-9.41c.55,3.62,1.05,6.95,1.63,10.81-1.7-.6-2.82-1.02-3.97-1.39-1.19-.38-.99-1.34-.92-2.19.15-1.85.39-3.68.59-5.53.18-1.6,1.82-3.1,3.61-3.22,2.12-.15,4.28-.49,6.38-.27,2.3.23,3.13-1.33,4.13-2.71.72-1,3.22-3.29,4.32-3.76.34-.15.53-.66.72-.93M123.98,51.69c2.74-2.78,3-6.59,4.22-10.01.5-1.39.39-2.49-.46-3.13-1.85.83-3.45,1.79-5.18,2.26-1.83.49-3.78.51-5.58.72.52,4.6,3.69,7.38,7,10.15"/>
          <path class="cls-2" d="M207.96,202.14s-42.3-34.85-102.96-34.85S2.04,202.14,2.04,202.14v-83.21h205.91v83.21Z"/>
          <path class="cls-6" d="M12.95,179.49v-8.44c1.14-.45,1.7-.68,2.84-1.12,0-12.49-.01-24.98-.02-37.47-1.13.05-1.69.08-2.82.14v-5.11h9.14c1.47,4.24,2.2,11.93,3.68,24.41,1.33-13.11,2-20.43,3.33-24.41h9.35c.01,1.07.02,1.94.03,4.06-1.13.04-1.69.06-2.82.09.04,10.38.07,20.76.1,31.15,1.13-.37,1.7-.55,2.83-.9,0,2.96.02,4.34.03,6.67-3.52,1.32-5.28,2.01-8.81,3.46,0-2.51-.01-4.02-.02-7.23.76-.26,1.14-.39,1.9-.65-.03-10.56-.05-21.11-.09-31.66-1.93,13.55-2.99,27.19-4.72,40.76-1.07.45-1.6.68-2.67,1.14-2.04-13.67-3.15-27.45-5.04-41.13.02,11.79.03,23.58.04,35.38.79-.3,1.18-.45,1.97-.74,0,3.48,0,5.11.01,7.83-3.28,1.46-4.92,2.22-8.21,3.78M12.95,134.85c.85-.06,1.27-.09,2.11-.15,0,2.02,0,3.15,0,5.56-.85-2.3-1.27-3.41-2.12-5.41M12.95,181.68c3.58-1.77,5.37-2.63,8.93-4.27,0-3.14-.01-5.24-.02-9.79.29.73.44,1.08.73,1.76.3,2.32.45,3.39.75,5.25,0,2.73.01,3.89.02,5.45-3.22,1.56-4.84,2.38-8.07,4.06-.94-.65-1.4-1.15-2.34-2.46M19.88,165.5c-.01-7.72-.01-12.37-.02-20.17.64,5.45.95,8.47,1.59,13.99,0,2.3,0,3.44,0,5.62-.63.22-.95.33-1.58.55M22.91,127.48c1.15,1.33,1.73,2.45,2.88,5.09.31,1.71.46,2.69.77,4.79-.34,2.53-.5,3.94-.84,6.88-1.13-9-1.69-13.58-2.81-16.76M24.62,176.16c1.09-.49,1.63-.73,2.72-1.21,1.49-10.35,2.45-20.8,3.56-31.2.02,6.2.02,9.8.04,16.09-.13.83-.19,1.25-.32,2.06-.64.2-.96.31-1.6.51.01,5.52.02,8.14.03,11.79-.27,1.64-.41,2.36-.68,3.49-.66.31-.99.46-1.65.77-.84-.62-1.26-1.1-2.1-2.31M29.78,173.89c3.83-1.64,5.73-2.42,9.55-3.89-.01-2.68-.02-4.48-.03-8.35.62,1.98.93,2.9,1.56,4.51.01,3.11.02,4.44.03,6.12-3.65,1.47-5.47,2.24-9.13,3.87-.79-.62-1.18-1.09-1.98-2.27M36.46,160.1c-.03-10.77-.05-18.37-.09-26.67,1.13-.06,1.69-.08,2.83-.14-.01-3.12-.02-4.41-.03-5.82.63,1.31.94,2.46,1.57,5.21,0,1.76.01,2.76.02,4.92-1.12.1-1.68.14-2.79.24.03,7.79.04,13.3.07,21.79-.63.18-.94.28-1.57.46"/>
          <path class="cls-6" d="M43.85,131.38c-1.13.03-1.69.05-2.81.08-.01-2.08-.02-2.93-.03-3.98h9.01c0,1.01.01,1.81.02,3.74-.84.02-1.26.03-2.11.05.03,5.66.04,10.73.07,19.38.01,3.85.3,6.35.86,7.62.56,1.26,1.52,1.63,2.89,1.25,1.35-.38,2.28-1.22,2.8-2.62.51-1.4.76-4.04.75-8.12-.03-7.89-.04-12.44-.07-17.67-.88.02-1.31.03-2.19.04,0-1.88-.01-2.67-.02-3.67h8.81c0,1,.01,1.74.02,3.51-1.11.02-1.67.02-2.78.04.02,4.56.03,8.26.06,15.09.01,3.54-.05,6.07-.18,7.58-.13,1.51-.35,2.87-.67,4.09-.59,2.25-1.38,3.79-2.38,4.85-.99,1.06-2.38,1.83-4.15,2.4-1.48.48-2.72.66-3.71.47-1-.19-1.8-.77-2.39-1.86-.61-1.14-1.05-2.72-1.31-4.81-.26-2.08-.4-6.07-.42-11.79,0-.92,0-1.37,0-2.28-.02-6.19-.03-9.31-.05-13.4M43.16,133.12c0,1.56,0,2.44.02,4.29-.85-1.79-1.28-2.64-2.13-4.2.84-.04,1.27-.06,2.11-.09M59.78,132.54c1.11-.03,1.67-.04,2.78-.07-.01-2.58-.02-3.67-.03-4.99.62.67.93,1.12,1.55,2.15.01,2.03.02,3.41.03,6.41-1.1.05-1.65.08-2.75.14.02,4.5.03,7.3.04,12.44,0,1.79,0,3.16-.04,4.14-.03.98-.09,1.86-.16,2.65-.14,1.48-.35,2.83-.62,4.06-.27,1.23-.6,2.3-1,3.24-.75,1.8-1.66,2.96-2.74,3.81-1.08.85-2.37,1.46-3.88,1.97-1.24.42-2.28.65-3.12.59-.84-.06-1.76-.41-2.76-1.43-.48-.49-.72-.76-1.21-1.37.49.6,1.26.88,2.31.9,1.04.03,2.23-.21,3.54-.65,1.44-.48,2.7-1.12,3.78-1.99,1.08-.86,1.93-1.9,2.54-3.25.65-1.42,1.11-3.08,1.39-5.04.28-1.96.41-5.12.4-9.51,0-.46,0-.69,0-1.16-.02-5.75-.03-8.77-.05-13.04M48.65,132.89c.84-.03,1.25-.05,2.09-.08-.01-2.83-.02-4-.03-5.33.65.59.97.98,1.62,1.89.01,2.21.02,3.81.03,7.35-.84.06-1.26.09-2.11.15.03,7.46.05,12.81.07,20.72-.6-.28-1.02-.87-1.25-1.79-.23-.92-.35-2.67-.36-5.3-.03-7.65-.04-12-.07-17.61M54.55,136.1c-.6-1.42-.9-2.11-1.5-3.36.59-.02.89-.03,1.48-.05,0,1.26,0,1.95.02,3.41"/>
          <path class="cls-6" d="M63.47,160.65c0-1.91-.01-3.02-.02-5.39.96-.21,1.45-.31,2.41-.51,1.94-12.14,2.92-22.15,4.87-27.26h6.58c2.06,5.26,3.09,14.32,5.13,24.44.96-.13,1.45-.19,2.41-.31,0,2.03,0,2.99,0,4.7-3.69.53-5.53.85-9.22,1.56,0-1.77,0-2.8-.01-4.95.94-.15,1.42-.23,2.36-.37-.48-2.35-.72-3.65-1.21-6.26-2.44.27-3.66.41-6.11.73-.44,2.85-.66,4.31-1.1,6.97.96-.18,1.44-.27,2.41-.45,0,2.21,0,3.26.01,5.07-3.41.73-5.12,1.13-8.53,2.01M63.47,162.08c3.69-.99,5.53-1.43,9.22-2.23,0-2.15-.01-3.51-.02-6.41.62,1.01.93,1.5,1.56,2.4,0,2.98.01,4.31.02,6.09-3.3.7-4.95,1.1-8.25,1.96-1.01-.55-1.51-.92-2.52-1.82M70.62,152c.2-1.25.3-1.89.5-3.18,2.07-.3,3.11-.44,5.18-.7.2,1.19.29,1.77.49,2.9-2.47.36-3.7.56-6.16.98M71.43,142.21c1.83-.16,2.75-.23,4.58-.37-.94-5.38-1.42-8.22-2.37-11.85-.89,3.63-1.33,6.48-2.21,12.22M72.49,140.27c.46-2.99.68-4.43,1.14-6.89.37,1.81.55,2.82.92,4.9-.12.74-.18,1.11-.29,1.87-.71.05-1.06.07-1.77.12M75.64,159.23c3.97-.79,5.95-1.14,9.92-1.71,0-2.08,0-3.34,0-5.99.62,1.07.93,1.59,1.54,2.56,0,2.65,0,3.85,0,5.63-3.75.49-5.62.79-9.37,1.51-.83-.66-1.25-1.07-2.09-2M82.86,150.21c-1.93-9.8-2.9-17.78-4.84-22.73,1.25,1.4,1.87,2.48,3.11,4.87,1.35,6.03,2.02,10.72,3.37,17.67-.66.07-.98.11-1.64.19"/>
          <path class="cls-6" d="M84.74,130.9c0-1.61,0-2.32,0-3.42h9.14c0,1.18,0,1.91,0,3.51-.78-.01-1.16-.02-1.94-.03,1.4,3.04,2.11,4.96,3.51,8.73,1.38-3.8,2.07-5.61,3.44-8.62-.78-.01-1.18-.02-1.96-.04,0-1.6,0-2.33,0-3.56h8.27v3.72c-.99.02-1.49-.03-2.48-.05-2.25,4.72-3.38,7.85-5.63,13.89,0,2.22,0,3.34,0,5.43,1.31-.08,1.97-.12,3.29-.18v4.47c-4.04.22-6.05.39-10.08.85,0-1.69,0-2.63,0-4.6,1.09-.1,1.64-.15,2.73-.24,0-2.08,0-3.19,0-5.42-2.29-6.03-3.43-9.65-5.72-14.45-1.02,0-1.53-.01-2.55-.02M84.74,132.23c.88,0,1.31,0,2.19,0,.53,1.18.79,1.82,1.32,3.14-.62,0-.94,0-1.56.01-.78-1.32-1.17-1.96-1.94-3.16M101.09,150.27c.62,1.04.93,1.55,1.55,2.53,0,2.54,0,3.73,0,5.72-4.12.1-6.18.23-10.28.62-.83-.8-1.24-1.24-2.07-2.22,4.31-.5,6.47-.67,10.8-.89,0-2.09,0-3.29,0-5.76M93.37,132.3c.49,0,.73,0,1.22.02,0-2.24,0-3.26,0-4.83.65.74.97,1.17,1.62,2.09,0,1.02,0,1.58,0,2.76.47,0,.71.01,1.18.02-.79,1.71-1.18,2.65-1.97,4.62-.82-1.97-1.23-2.93-2.05-4.68M97.82,148.91c0-1.26,0-1.91,0-3.2,2.1-5.63,3.15-8.58,5.25-13.23,1.13.03,1.69.06,2.82.03v-5.02c.63.92.94,1.41,1.57,2.45v5.55c-1.47.03-2.21.06-3.68.03-1.77,4.22-2.66,6.67-4.43,11.34v1.98c-.61.03-.92.04-1.53.08"/>
          <path class="cls-6" d="M118.86,155.52c0-1.69,0-2.63,0-4.58,1.12.1,1.68.16,2.8.27,0-8.04,0-13.79-.01-20.29-1.6.01-2.4.02-3.99.04,0,3.52,0,5.85,0,10.4-1.56-.05-2.34-.07-3.9-.1,0-6.47,0-9.91,0-13.8h19.88c0,3.32.01,7.34.02,14.76-1.56-.12-2.34-.18-3.9-.28,0-4.95,0-7.49-.01-11.08-1.6,0-2.4,0-4,.01,0,6.54,0,12.55.01,20.79,1.14.14,1.71.22,2.85.37,0,2.07,0,3.06,0,4.79-3.9-.63-5.85-.9-9.76-1.32M113.76,142.82c1.84.05,2.76.08,4.61.16,0-4.57,0-6.96,0-10.7,1.04-.01,1.56-.01,2.6-.02,0,1.18,0,1.81,0,3.12-.42,0-.64,0-1.06,0,0,4.22,0,6.74,0,11.34-1.68-.12-2.52-.17-4.2-.26-.78-1.46-1.17-2.19-1.94-3.63M118.94,156.82c4.15.46,6.23.75,10.39,1.46,0-2.09,0-3.39,0-6.13.6,1.16.9,1.74,1.5,2.84,0,2.87,0,4.16,0,5.95-3.94-.71-5.92-1-9.86-1.46-.82-.95-1.22-1.5-2.04-2.66M126.48,150.13c0-7.21,0-11.92-.01-17.9,1.03,0,1.55,0,2.58,0,0,1.21,0,1.86,0,3.24-.4,0-.6-.01-.99-.02,0,5.47,0,9.04.01,14.87-.63-.08-.95-.12-1.59-.19M129.77,143.68c1.83.15,2.75.22,4.58.4,0-8.23-.01-12.97-.02-16.59.63.73.94,1.18,1.57,2.24,0,5.24.01,10.42.02,18.62-1.78-.23-2.67-.34-4.44-.55-.68-1.66-1.03-2.49-1.71-4.12"/>
          <path class="cls-6" d="M136.63,158.31c0-1.79,0-2.83,0-5.02,1.13.19,1.69.29,2.82.5-.01-9.06-.02-16.04-.03-22.89-1.13,0-1.69-.01-2.82-.01,0-1.67,0-2.39,0-3.41h9.06c0,1,0,1.73.01,3.48-.86-.01-1.29-.01-2.15-.02,0,2.81,0,4.7.02,8.63,2.91.21,4.36.33,7.27.59,0-4.18-.01-6.19-.02-9.13-.86-.01-1.29-.02-2.15-.03,0-1.78,0-2.53-.01-3.52h9.07c0,1.01,0,1.79.01,3.69-1.13-.02-1.69-.04-2.82-.06.02,7.52.03,15.76.05,26.06,1.13.28,1.7.43,2.83.72,0,2.6,0,3.83.01,5.9-3.63-1.13-5.45-1.66-9.09-2.62,0-1.93,0-3.07-.01-5.47.86.19,1.29.29,2.15.49,0-4.16-.01-6.6-.02-11.18-2.91-.39-4.36-.57-7.27-.89,0,4.29.01,6.57.02,10.49.86.17,1.29.26,2.15.44,0,2.35,0,3.46.01,5.35-3.63-.91-5.45-1.33-9.08-2.07M138.73,135.73c-.85-1.5-1.28-2.19-2.14-3.45.85,0,1.28.01,2.13.03,0,1.27,0,1.96,0,3.43M136.63,159.67c3.92.83,5.88,1.3,9.8,2.33,0-2.25,0-3.7-.01-6.81.62,1.26.93,1.88,1.55,3.07,0,3.35.01,4.83.02,6.66-3.65-1.03-5.47-1.5-9.12-2.34-.9-1.02-1.34-1.62-2.24-2.92M144.22,137.78c0-2.35,0-3.46,0-5.38.87.02,1.3.03,2.17.05,0-2.57,0-3.65-.01-4.96.62.56.93.91,1.55,1.73,0,2.1,0,3.61.02,6.93-.86-.04-1.29-.07-2.15-.11,0,.72,0,1.09,0,1.84-.63-.04-.94-.06-1.57-.1M144.24,152.86c0-2.57,0-3.96-.01-6.68,2.36.31,3.54.48,5.89.83,0,1.87,0,2.81,0,4.64-1.73-.33-2.59-.49-4.32-.8,0,.94,0,1.4,0,2.3-.63-.12-.94-.18-1.57-.3M150.1,135.59c-.59-1.33-.89-1.96-1.47-3.1.59.01.88.02,1.47.04,0,1.14,0,1.75,0,3.06M148.68,162.61c3.91,1.08,5.87,1.67,9.77,2.94,0-2.43-.01-4.03-.02-7.49.63,1.53.94,2.28,1.57,3.72,0,3.56.01,5.11.02,6.97-3.76-1.32-5.64-1.94-9.4-3.06-.78-1.06-1.17-1.69-1.94-3.08M155.64,155.27c-.02-9.11-.03-15.46-.04-22.58,1.12.04,1.68.06,2.79.09,0-2.81-.01-3.97-.02-5.3.63.64.94,1.06,1.57,2.09,0,2.22.01,3.81.02,7.31-1.13-.08-1.7-.12-2.82-.19.01,6.81.02,11.56.04,18.95-.61-.15-.92-.22-1.54-.36"/>
          <path class="cls-6" d="M160.71,164.72c0-2.12,0-3.37-.01-6.05.97.26,1.45.4,2.42.67,1.41-10.54,2.32-21.5,4.89-31.86h6.58c3.06,12.04,3.73,24.78,5.15,37.08.96.33,1.45.5,2.41.84,0,3.26,0,4.79.01,7.34-3.69-1.56-5.54-2.3-9.24-3.71,0-2.35,0-3.75-.01-6.74.95.3,1.42.46,2.36.77-.49-3.66-.73-5.67-1.21-9.63-2.45-.58-3.67-.86-6.12-1.4-.44,3.53-.66,5.28-1.1,8.39.97.29,1.45.43,2.42.73,0,2.89,0,4.25.01,6.52-3.42-1.25-5.13-1.84-8.56-2.95M160.72,166.3c3.7,1.25,5.55,1.92,9.25,3.33,0-2.66-.01-4.44-.02-8.28.62,1.68.94,2.5,1.56,4.08,0,3.98.01,5.7.02,7.71-3.31-1.37-4.97-2.02-8.29-3.25-1.01-1.25-1.52-1.99-2.53-3.61M167.9,158.42c.2-1.51.3-2.29.5-3.89,2.08.51,3.11.77,5.19,1.3.2,1.78.29,2.66.49,4.38-2.47-.74-3.71-1.1-6.18-1.79M168.71,145.99c1.83.3,2.75.45,4.58.77-.95-7.91-1.42-11.87-2.37-16.37-.89,4.46-1.33,8.32-2.21,15.6M169.77,143.7c.46-3.88.68-5.78,1.14-8.97.37,2.4.56,3.79.92,6.72-.12.99-.17,1.49-.29,2.5-.71-.1-1.06-.15-1.77-.25M172.93,170.79c3.98,1.58,5.97,2.41,9.94,4.17,0-2.98,0-4.99-.01-9.31.62,2.08.93,3.1,1.55,5.04,0,4.25,0,6.08.01,8.23-3.75-1.8-5.63-2.66-9.39-4.28-.84-1.31-1.26-2.1-2.1-3.85M180.16,162.11c-1.31-11.48-1.94-23.4-4.86-34.62,1.25,1.48,1.87,2.86,3.12,6.37,1.39,9.56,2.35,19.19,3.38,28.79-.66-.22-.99-.32-1.64-.53"/>
          <path class="cls-6" d="M192,169.05c1.12.44,1.69.66,2.81,1.1,0,3.67,0,5.39,0,8.26-3.87-1.84-5.81-2.72-9.7-4.41,0-2.62,0-4.2,0-7.55,1.12.41,1.68.62,2.8,1.03,0-11.78-.02-23.55-.03-35.33-1.12-.05-1.69-.07-2.81-.12,0-2.39,0-3.37,0-4.56h9.74c0,1.31,0,2.38,0,5-1.13-.06-1.69-.08-2.82-.13,0,12.23.01,24.46.02,36.7M187.21,139.37c-.85-2.33-1.28-3.41-2.13-5.3.85.05,1.28.08,2.13.13,0,1.88,0,2.93,0,5.17M187.34,180.34c-.89-1.49-1.33-2.39-2.23-4.37,4.15,1.88,6.23,2.87,10.37,4.93,0-3.36,0-5.61,0-10.48.62,2.01.94,2.99,1.56,4.89v10.05c-3.87-2.1-5.82-3.1-9.7-5.02M192.69,166.4c0-10.61,0-21.23-.01-31.84,1.12.08,1.69.11,2.81.19,0-3.91,0-5.53,0-7.26.63.83.94,1.41,1.57,2.83v10.2c-1.12-.14-1.68-.21-2.81-.34,0,9.58,0,16.35,0,26.79-.62-.23-.93-.34-1.56-.57"/>
        </g>
      </g>
    </g>
  </g>
</svg>