<svg xmlns="http://www.w3.org/2000/svg" viewBox="0 0 329.44 378.72"><defs><style>.cls-1{fill:#cb2229;}</style></defs><g id="Layer_2" data-name="Layer 2"><g id="Layer_1-2" data-name="Layer 1"><path class="cls-1" d="M188.45,377.07c15.55-5.8,26.71-16,31.5-32.29,4.35-14.81,0-27.67-9.28-39.19-10.08-12.51-23.82-16.91-39.37-17-3,0-6-.54-9.3-.85-1.12-15.8-11.82-29.75-6.44-46.29-5.19-.79-8,1.08-9.89,4.23a44.7,44.7,0,0,0-3.44,8.32c-2.78,8.19-3.78,9-12.21,9-12.37,0-28.31,11.17-32.61,22.76-2.47,6.65-1.4,12.72,3.12,18.27-11.66-2.28-21.76-20.6-20.27-36.52,4.13,1,8.22,2.62,12.42,3,8.9.8,16.65-2.86,23.28-8.29,10.4-8.51,18.3-19.11,21.52-32.33,3.77-15.49.66-30.47-7.22-43.89-9-15.35-22-27.45-36.19-38-4.92-3.66-8.73-7.83-10.36-13.8-4.12-15.09-14.4-25.47-26.43-34.48a8.9,8.9,0,0,0-4.45-2c-7.41-.27-10.81-5.24-13.42-11.1a71.24,71.24,0,0,1-3.65-10.14,6,6,0,0,1,.75-4.14Q66,20.37,122.3.51c3.58-1.26,4.82-.14,5.44,2.9a23.62,23.62,0,0,1,.42,5c-.22,22.09-.67,44.18-.66,66.27,0,23-.3,46.05.92,69,.94,17.7,11.13,30.13,27.14,37.67,25.84,12.18,57.32-4.51,63.9-28.27,3.41-12.36,3.43-12.35,16.52-12.35H322.4c6.41,0,7,.63,7,7.08,0,21.7-6.66,41.64-16.87,60.37-4.88,9-11.34,17-17.24,25.41-1.87,2.66-1.9,4.78.17,7.33,9.45,11.66,17.73,24.09,23.46,38a139.32,139.32,0,0,1,9.66,37.43c2.14,18.76.08,37.1-3.8,55.39-.93,4.38-3.43,6.52-7.89,6.51q-59.22,0-118.43-.07C195.15,378.19,191.85,377.47,188.45,377.07Z"/><path class="cls-1" d="M91.26,247.35l-3.43-3.22c-1.6,2.31-3,4.42-4.48,6.51,5.68,4.53,9.68,4.6,14.58-.45,11.17-11.54,15.84-24.93,11-41-4.6-15.43-14.27-26.66-27.8-34.89-1-.63-2-1.29-3-2-5.6-3.83-8.74-8.69-6.52-15.75-4.75-.52-8.49,3-8.31,8.59.21,6.1,1.17,12.18,1.78,18-4.92-2.41-8.38-6.14-9.17-12.89-.54-4.55-3.6-8.77-5.37-13.21-.54-1.35-1.25-3.22-.74-4.32,8.31-17.76,2.5-25.49-8-34.26C29.1,107.88,28.07,102.49,31,88.13c7.22,12,19.63,17.14,29.62,25.26a58.87,58.87,0,0,1,22.11,40.13c.48,4,1.8,8,2.79,12.16,7-1.85,5-6.69,5.84-11.72,7.23,7.25,14.18,13.53,20.29,20.54a99.4,99.4,0,0,1,11.67,17c2.64,4.76,3.31,10-1.65,14.41-.91.81-.55,3-.78,4.61,1.52-.49,3.22-.72,4.52-1.56,1.07-.69,1.68-2.1,3.11-4,4.76,16.07,2.87,30-6.29,42.23a48.34,48.34,0,0,1-14.52,12.66c-17.13,9.7-30.58,1.22-36-15.26-2.16-6.59.25-12.73,6.17-16.3,5.12-3.09,12.85-2.14,17.15,2.11C100.51,235.84,99.14,242.35,91.26,247.35Z"/><path class="cls-1" d="M67.45,170.63c5.16,4,10.28,8.05,15.51,12,2,1.53,4.42,2.62,6.5,4.1,5.21,3.7,5.83,5.63,4.14,11.69a5.36,5.36,0,0,0-.23,1.77,11.35,11.35,0,0,0,.61,2.07l5.3-1.87c5.47,8.53,7.43,17.72,5.29,27.83-3-2.5-5.63-5.12-8.67-7a15.16,15.16,0,0,0-15.57-.45c-12.87,6.65-21,17-23.48,31.38a62.5,62.5,0,0,0,11.24,48.52c8.1,11.27,18.73,18.76,33.73,17.59,9-.69,19.38-9.88,20.1-18.76.18-2.17-.52-5.23-2-6.49s-4.45-1-6.63-.63c-2.81.5-2.53,2.15-.87,4.19,1,1.18,4.89,1.9,2,4-1.43,1.06-5.38.64-6.84-.64a12.2,12.2,0,0,1-4-11.9c.76-3.45,7-6.56,11.64-6.47,9.91.19,17.48,11.54,15.4,22.17-3.17,16.27-14.52,27.42-30.84,30.37-3.88.71-7.77.29-10.91-3.53-1.66-2-5.27-3.19-8.07-3.35-6.3-.34-11.09-3.54-15-7.69-8.27-8.88-15.64-18.59-18-30.9a34.36,34.36,0,0,1,.28-12.9,14.4,14.4,0,0,0-2.07-11.58c-7.75-11-3.78-21.61.73-32.15,2.51-5.85,6.39-9.85,13.25-11.69,10.46-2.8,14.7-13.47,11.56-25.41-.62-2.33-.49-4.86-.81-7.28q-1-7.37-2.09-14.72a30.84,30.84,0,0,0-.84-3.24Z"/><path class="cls-1" d="M21.87,275c1.54.51,2.41,1.08,2.75.85,1.46-.95,3.43-1.92,3.89-3.32.31-.93-1.33-3.32-2.58-3.81-4-1.57-8.74,1.75-9.31,6.1-1,7.56,4,16.7,11.12,18.94,2.83.9,3.55,2.42,4.4,4.68,5.33,14.24,13.89,26.06,26.52,34.71,2.42,1.66,3.17,3.29,2.29,6.32-1.79,6.16,1.72,12.86,7.26,15.48,3.68,1.75,6.74.11,9.08-2,1.62-1.46,2.09-4.35,2.65-6.71a3.09,3.09,0,0,0-1.7-2.55c-.89-.18-2.17.65-3,1.39-1.39,1.27-1,5.32-4.49,3.2s-4.66-8.11-2.42-10.82c5.09-6.16,14.42-4.69,19.44,3.06,2.89,4.47,2.61,6.38-1.15,10.34-.73.77-1.47,2.26-1.19,3.07a3.48,3.48,0,0,0,2.83,1.62c5.59-.29,7.71,3.19,8.91,7.79.78,3,1.5,6,2.36,9.44-16.34-2.65-31.09-7.91-43.63-18.16-21.29-17.41-35.94-39.32-43-66a122.55,122.55,0,0,1-3.11-19.09A39.27,39.27,0,0,0,0,247.12c9.15.52,17,1.89,21.28,10.67A3.3,3.3,0,0,0,24.13,259c6.53-1.28,10.06,0,13.32,5.77a46.62,46.62,0,0,1,3.94,10c1.65,5.78-.13,9.9-4.6,11.71-4.26,1.74-9.27-.07-12-4.63C23.64,280.05,23,277.88,21.87,275Z"/><path class="cls-1" d="M23.08,247.1c-4.11-2.28-7.34-3.88-10.33-5.86a3.94,3.94,0,0,1-1.26-3.34c2.2-9.33,4.12-18.76,7.1-27.85,2.52-7.68,6.3-14.94,9.57-22.37,5.32-12.13,8.64-24.39,2.15-37.44,13.17,3,22,20.32,17.54,34a8.13,8.13,0,0,0,2,.74,17,17,0,0,1,13.35,26c-2.49,4.16-8.75,6.57-13.93,5.38C44.39,215.2,37.88,209,38.19,205c.13-1.68,2-3.63,3.56-4.66s3.74-1,5.81-1.41c1.35-4-.51-5.39-4.33-5.47-4.76-.1-8.06,2.1-10.32,6.13s-3.84,8.33-.83,12.64c1.63,2.33,1.48,3.91-.15,6.27C26.2,226.8,22.22,235.8,23.08,247.1Z"/><path class="cls-1" d="M147.45,259.4c2.48,9.11,5,17.08,6.75,25.22,1.58,7.43-1.37,13.67-7.06,18.54-.8.68-2.19.7-3.33.95-2.59.56-5.19,1.06-7.59,1.55,1.75-15-5-25.13-20.25-31.27,5.62-1.55,11.19-3.34,16.88-4.59C138.83,268.5,144.1,266.44,147.45,259.4Z"/><path class="cls-1" d="M95.77,346.17c11.94,4.47,21.79,1.05,32.4-3.8,0,11.14.05,21.55,0,32,0,3.21-1.25,5.34-5,3.94-4.76-1.75-9.65-3.26-14.21-5.44-1.48-.71-2.73-3.1-3-4.9-1.1-6.72-3.18-12.81-8.42-17.53C96.71,349.74,96.61,348.36,95.77,346.17Z"/><path class="cls-1" d="M22.9,107.35c3.87,7.24,8.52,12.93,15.33,17.26,7.88,5,10.36,15.92,6.69,23.86q-8.39-3.79-16.75-7.6c-10.18-4.65-9.23-6.36-7.79-14C21.6,120.45,22.09,113.87,22.9,107.35Z"/><path class="cls-1" d="M63.05,245.08c3.52,6,6.92,11.73,10.22,17.51a3,3,0,0,1,0,2.15c-5.06,16.6,8.88,41.21,25.07,47.07.12,0,.17.24.31.45-13-.43-21.41-7.82-27.83-18.1a65.15,65.15,0,0,1-10-38.79C61.06,251.86,62.31,248.42,63.05,245.08Z"/><path class="cls-1" d="M100.56,339.36c17.51-3.73,28.59-14.23,34.79-30.49,4.54,5.47,11,1.21,16.51,2.56C144.29,327,117.56,346.33,100.56,339.36Z"/><path class="cls-1" d="M43,290c5.94,14.64,13.43,27.94,26.34,37.34-3.37,3.33-7.1,3.24-11.6-.06-7.48-5.49-12.39-13.09-16.87-21-2.21-3.87-3.78-8.11-5.72-12.37Z"/><path class="cls-1" d="M37.76,218.91l9.72,4.38c-7.65,8.35-9.07,18.76-10.1,29.26-8.31-.05-10.11-2.14-9.51-10.91C28.36,234.42,32.67,224.52,37.76,218.91Z"/><path class="cls-1" d="M19.55,149.4c7.88,5.33,11.35,18.3,4.45,29C22.46,168.36,21,159,19.55,149.4Z"/></g></g></svg>